<svg width="122" height="122" viewBox="0 0 122 122" fill="none" xmlns="http://www.w3.org/2000/svg">
<g filter="url(#filter0_d)">
<circle cx="61" cy="61" r="37" fill="white"/>
</g>
<g filter="url(#filter1_d)">
<circle cx="61" cy="61" r="27" fill="white"/>
<circle cx="61" cy="61" r="26.5" stroke="url(#paint0_linear)"/>
</g>
<g clip-path="url(#clip0)">
<path d="M51.2487 47.809H54.6644V46.7921C54.6644 46.3651 54.8381 45.9771 55.1198 45.6954C55.3997 45.4154 55.7876 45.2401 56.2164 45.2401C56.6434 45.2401 57.0314 45.4155 57.3113 45.6954C57.593 45.9771 57.7684 46.3651 57.7684 46.7921V47.809H61.1824V46.7921C61.1824 46.3651 61.3578 45.9771 61.6377 45.6954C61.9194 45.4154 62.3074 45.2401 62.7343 45.2401C63.1613 45.2401 63.5493 45.4155 63.8311 45.6954C64.1127 45.9771 64.2864 46.3651 64.2864 46.7921V47.809H67.7021V46.8044C67.7021 46.3775 67.8757 45.9894 68.1574 45.7077C68.4373 45.4279 68.8253 45.2525 69.2541 45.2525C69.6811 45.2525 70.0691 45.4279 70.349 45.7077C70.6308 45.9894 70.8061 46.3775 70.8061 46.8044V47.809H71.3199C72.0446 47.809 72.7018 48.1048 73.1784 48.5797C73.6549 49.0562 73.9508 49.7136 73.9508 50.4381V55.3226C73.9508 55.5813 73.74 55.7921 73.4813 55.7921C73.2226 55.7921 73.0118 55.5813 73.0118 55.3226V53.9708H60.5374C60.277 53.9708 60.0679 53.7617 60.0679 53.5031C60.0679 53.2427 60.277 53.0336 60.5374 53.0336H73.0118V50.4381C73.0118 49.9722 72.8223 49.5506 72.5157 49.244C72.2074 48.9357 71.7857 48.7462 71.3198 48.7462H70.806V49.749C70.806 50.1759 70.6306 50.5639 70.3489 50.8456C70.0689 51.1273 69.681 51.3009 69.254 51.3009C68.8252 51.3009 68.4372 51.1273 68.1572 50.8456C67.8756 50.5639 67.7019 50.1759 67.7019 49.749V48.7462H64.2862V49.7366C64.2862 50.1636 64.1126 50.5515 63.8309 50.8332C63.5492 51.1132 63.1612 51.2886 62.7342 51.2886C62.3073 51.2886 61.9192 51.1131 61.6376 50.8332C61.3576 50.5515 61.1822 50.1636 61.1822 49.7366V48.7462H57.7683V49.7366C57.7683 50.1636 57.5929 50.5515 57.3112 50.8332C57.0312 51.1132 56.6432 51.2886 56.2163 51.2886C55.7876 51.2886 55.3996 51.1131 55.1196 50.8332C54.8379 50.5515 54.6643 50.1636 54.6643 49.7366V48.7462H51.2487V49.7366C51.2487 50.1636 51.0732 50.5515 50.7934 50.8332C50.5117 51.1132 50.1237 51.2886 49.6967 51.2886C49.2698 51.2886 48.8817 51.1131 48.6 50.8332C48.3201 50.5515 48.1447 50.1636 48.1447 49.7366V48.7462H47.6291C47.1649 48.7462 46.7415 48.9357 46.4351 49.244C46.1286 49.5505 45.9372 49.9721 45.9372 50.4381V53.0337H58.4134C58.6721 53.0337 58.8829 53.2427 58.8829 53.5032C58.8829 53.7619 58.6721 53.9709 58.4134 53.9709H45.9373V67.8129C45.9373 68.0716 45.7282 68.2807 45.4696 68.2807C45.2109 68.2807 45.0001 68.0716 45.0001 67.8129V50.4381C45 49.7136 45.2959 49.0562 45.7724 48.5797C46.249 48.1048 46.9063 47.809 47.6291 47.809H48.1447V46.7921C48.1447 46.3651 48.3183 45.9771 48.6 45.6954C48.8817 45.4154 49.2698 45.2401 49.6967 45.2401C50.1237 45.2401 50.5116 45.4155 50.7934 45.6954C51.0733 45.9771 51.2487 46.3651 51.2487 46.7921V47.809ZM69.9293 66.0289C69.9293 65.7702 70.1383 65.5612 70.3969 65.5612C70.6574 65.5612 70.8664 65.7702 70.8664 66.0289V70.1569C70.8664 70.2844 70.8168 70.3978 70.7336 70.4829L67.8687 73.8526C67.7022 74.0511 67.4081 74.0758 67.2097 73.9075C67.0131 73.741 66.9882 73.4469 67.1548 73.2484L69.9293 69.9868V66.0289ZM67.0716 65.57C66.8607 65.7224 66.5684 65.6746 66.4178 65.4655C66.2654 65.2564 66.3115 64.9641 66.5223 64.8117C67.0751 64.4096 67.6934 64.0924 68.3596 63.8763C69.0028 63.6672 69.6884 63.5538 70.3971 63.5538C71.3272 63.5538 72.2113 63.7452 73.0121 64.0924V57.4451C73.0121 57.1864 73.2229 56.9774 73.4816 56.9774C73.7402 56.9774 73.9511 57.1865 73.9511 57.4451V64.5902C74.355 64.8489 74.7288 65.1501 75.0672 65.4885C76.2613 66.6826 77 68.3338 77 70.1569C77 71.9799 76.2612 73.6311 75.0671 74.8252C73.8712 76.0212 72.2218 76.7599 70.3969 76.7599C68.5739 76.7599 66.9244 76.0212 65.7286 74.8252C65.2751 74.3717 64.8871 73.8525 64.5806 73.2821H47.4378C46.7664 73.2821 46.1569 73.0093 45.7157 72.5681C45.2746 72.1252 45 71.5175 45 70.8461V69.9354C45 69.6767 45.2109 69.4678 45.4695 69.4678C45.7281 69.4678 45.9372 69.6768 45.9372 69.9354V70.8461C45.9372 71.257 46.1073 71.6327 46.3784 71.9037C46.6512 72.1765 47.0251 72.3449 47.4378 72.3449H64.166C63.9251 71.6611 63.7939 70.9241 63.7939 70.1569C63.7939 69.4837 63.8968 68.8316 64.0863 68.2152C64.2829 67.5791 64.5718 66.9839 64.9367 66.447C65.0819 66.2326 65.3743 66.1777 65.5868 66.3231C65.7994 66.4683 65.8543 66.7606 65.7091 66.9732C65.3955 67.4356 65.1475 67.9459 64.9791 68.4898C64.8197 69.0142 64.7329 69.5741 64.7329 70.1569C64.7329 71.7214 65.3671 73.1387 66.3911 74.1627C67.4169 75.1885 68.8325 75.8227 70.3969 75.8227C71.9613 75.8227 73.3786 75.1885 74.4044 74.1627C75.4285 73.1387 76.0627 71.7214 76.0627 70.1569C76.0627 68.5926 75.4285 67.1752 74.4044 66.1512C73.3786 65.1254 71.9613 64.4911 70.3969 64.4911C69.7858 64.4911 69.1976 64.5886 68.6483 64.7657C68.0778 64.9517 67.5463 65.2246 67.0716 65.57ZM65.0199 55.9604H70.5546C70.8133 55.9604 71.0242 56.1695 71.0242 56.4281V61.9629C71.0242 62.2233 70.8133 62.4324 70.5546 62.4324H65.0199C64.7612 62.4324 64.5504 62.2233 64.5504 61.9629V56.4281C64.5505 56.1695 64.7613 55.9604 65.0199 55.9604ZM70.0869 56.8976H65.4894V61.4952H70.0869V56.8976ZM56.7072 63.8834H62.2419C62.5024 63.8834 62.7114 64.0942 62.7114 64.3529V69.8876C62.7114 70.1463 62.5024 70.3571 62.2419 70.3571H56.7072C56.4485 70.3571 56.2395 70.1463 56.2395 69.8876V64.3529C56.2395 64.0942 56.4486 63.8834 56.7072 63.8834ZM61.7743 64.8224H57.1768V69.4199H61.7743V64.8224ZM56.7072 55.9604H62.2419C62.5024 55.9604 62.7114 56.1695 62.7114 56.4281V61.9629C62.7114 62.2233 62.5024 62.4324 62.2419 62.4324H56.7072C56.4485 62.4324 56.2395 62.2233 56.2395 61.9629V56.4281C56.2395 56.1695 56.4486 55.9604 56.7072 55.9604ZM61.7743 56.8976H57.1768V61.4952H61.7743V56.8976ZM48.3945 63.8834H53.9309C54.1896 63.8834 54.3987 64.0942 54.3987 64.3529V69.8876C54.3987 70.1463 54.1896 70.3571 53.9309 70.3571H48.3945C48.1358 70.3571 47.9268 70.1463 47.9268 69.8876V64.3529C47.9268 64.0942 48.1359 63.8834 48.3945 63.8834ZM53.4615 64.8224H48.864V69.4199H53.4615V64.8224ZM48.3945 55.9604H53.9309C54.1896 55.9604 54.3987 56.1695 54.3987 56.4281V61.9629C54.3987 62.2233 54.1896 62.4324 53.9309 62.4324H48.3945C48.1358 62.4324 47.9268 62.2233 47.9268 61.9629V56.4281C47.9268 56.1695 48.1359 55.9604 48.3945 55.9604ZM53.4615 56.8976H48.864V61.4952H53.4615V56.8976ZM69.2542 46.1914C69.0859 46.1914 68.9318 46.2605 68.8201 46.3721C68.7086 46.4837 68.6394 46.6362 68.6394 46.8044V48.2767V49.7491C68.6394 49.9173 68.7085 50.0714 68.8201 50.1831C68.9318 50.2947 69.0859 50.3638 69.2542 50.3638C69.4225 50.3638 69.5749 50.2947 69.6865 50.1831C69.7981 50.0714 69.8673 49.9173 69.8673 49.7491V48.2767V46.8044C69.8673 46.6362 69.7982 46.4837 69.6865 46.3721C69.5749 46.2606 69.4226 46.1914 69.2542 46.1914ZM50.1308 46.358C50.0192 46.2464 49.8651 46.1773 49.6968 46.1773C49.5285 46.1773 49.3743 46.2464 49.2627 46.358C49.1511 46.4696 49.082 46.6237 49.082 46.7921V48.2767V49.7366C49.082 49.9049 49.1511 50.0591 49.2627 50.1707C49.3743 50.2822 49.5285 50.3514 49.6968 50.3514C49.8651 50.3514 50.0192 50.2823 50.1308 50.1707C50.2424 50.0591 50.3115 49.9049 50.3115 49.7366V48.2767V46.7921C50.3115 46.6237 50.2424 46.4696 50.1308 46.358ZM56.2165 46.1773C56.0464 46.1773 55.8941 46.2464 55.7824 46.358C55.6708 46.4696 55.6018 46.6237 55.6018 46.7921V48.2767V49.7366C55.6018 49.9049 55.6708 50.0591 55.7824 50.1707C55.8941 50.2822 56.0464 50.3514 56.2165 50.3514C56.3848 50.3514 56.5371 50.2823 56.6488 50.1707C56.7604 50.0591 56.8295 49.9049 56.8295 49.7366V48.2767V46.7921C56.8295 46.6237 56.7604 46.4696 56.6488 46.358C56.5371 46.2464 56.3848 46.1773 56.2165 46.1773ZM62.7344 46.1773C62.5662 46.1773 62.412 46.2464 62.3004 46.358C62.1888 46.4696 62.1197 46.6237 62.1197 46.7921V48.2767V49.7366C62.1197 49.9049 62.1888 50.0591 62.3004 50.1707C62.412 50.2822 62.5662 50.3514 62.7344 50.3514C62.9028 50.3514 63.0569 50.2823 63.1685 50.1707C63.2801 50.0591 63.3493 49.9049 63.3493 49.7366V48.2767V46.7921C63.3493 46.6237 63.2802 46.4696 63.1685 46.358C63.0569 46.2464 62.9028 46.1773 62.7344 46.1773Z" fill="url(#paint1_linear)"/>
</g>
<defs>
<filter id="filter0_d" x="0" y="0" width="122" height="122" filterUnits="userSpaceOnUse" color-interpolation-filters="sRGB">
<feFlood flood-opacity="0" result="BackgroundImageFix"/>
<feColorMatrix in="SourceAlpha" type="matrix" values="0 0 0 0 0 0 0 0 0 0 0 0 0 0 0 0 0 0 127 0"/>
<feOffset/>
<feGaussianBlur stdDeviation="12"/>
<feColorMatrix type="matrix" values="0 0 0 0 0.120833 0 0 0 0 0.0090625 0 0 0 0 0.0962437 0 0 0 0.06 0"/>
<feBlend mode="normal" in2="BackgroundImageFix" result="effect1_dropShadow"/>
<feBlend mode="normal" in="SourceGraphic" in2="effect1_dropShadow" result="shape"/>
</filter>
<filter id="filter1_d" x="10" y="10" width="102" height="102" filterUnits="userSpaceOnUse" color-interpolation-filters="sRGB">
<feFlood flood-opacity="0" result="BackgroundImageFix"/>
<feColorMatrix in="SourceAlpha" type="matrix" values="0 0 0 0 0 0 0 0 0 0 0 0 0 0 0 0 0 0 127 0"/>
<feOffset/>
<feGaussianBlur stdDeviation="12"/>
<feColorMatrix type="matrix" values="0 0 0 0 0.120833 0 0 0 0 0.0090625 0 0 0 0 0.0962437 0 0 0 0.06 0"/>
<feBlend mode="normal" in2="BackgroundImageFix" result="effect1_dropShadow"/>
<feBlend mode="normal" in="SourceGraphic" in2="effect1_dropShadow" result="shape"/>
</filter>
<linearGradient id="paint0_linear" x1="61" y1="34" x2="61" y2="88" gradientUnits="userSpaceOnUse">
<stop stop-color="#85CD43"/>
<stop offset="1" stop-color="#4CB854"/>
</linearGradient>
<linearGradient id="paint1_linear" x1="61" y1="45.2401" x2="61" y2="76.7599" gradientUnits="userSpaceOnUse">
<stop stop-color="#85CD43"/>
<stop offset="1" stop-color="#4CB854"/>
</linearGradient>
<clipPath id="clip0">
<rect width="32" height="32" fill="white" transform="translate(45 45)"/>
</clipPath>
</defs>
</svg>
