<svg width="52" height="52" viewBox="0 0 52 52" fill="none" xmlns="http://www.w3.org/2000/svg">
<path d="M50.5548 7.15102C50.9755 7.15102 51.3165 6.80997 51.3165 6.3893V4.59773C51.3165 2.06253 49.254 0 46.7188 0H23.3391C20.8034 0 18.7403 2.06253 18.7403 4.59773V15.7984L8.62237 20.7798C6.64688 21.7525 5.2251 23.6256 4.81895 25.7904C4.74136 26.2038 5.01365 26.602 5.42721 26.6795C5.47464 26.6883 5.52187 26.6927 5.56849 26.6927C5.92781 26.6927 6.24763 26.4372 6.31629 26.0712C6.63438 24.3754 7.74802 22.9082 9.29532 22.1464L18.7403 17.4963V29.5604L16.465 31.8357C16.1675 32.1332 16.1675 32.6155 16.465 32.9129C16.7625 33.2103 17.2448 33.2103 17.5422 32.9129L26.5758 23.8793C27.3201 23.135 28.3097 22.7251 29.3622 22.7251C30.4148 22.7251 31.4044 23.135 32.1487 23.8793C33.6851 25.4157 33.6851 27.9157 32.1487 29.4522L27.5088 34.0921C27.293 34.3078 27.2269 34.6315 27.3406 34.9146C28.2371 37.1466 27.7176 39.6875 26.0173 41.3879C24.683 42.7223 22.8437 43.3418 20.9711 43.0882C20.7265 43.0554 20.4842 43.1425 20.3172 43.3181L13.4734 50.161L2.52252 39.2102L6.42913 35.3044C6.58279 35.1508 6.66353 34.9388 6.65104 34.722L6.3169 28.9268C6.29263 28.5069 5.93299 28.1844 5.51263 28.2102C5.09267 28.2344 4.77183 28.5945 4.796 29.0145L5.11044 34.4687L0.906666 38.6715C0.763767 38.8143 0.683533 39.0081 0.683533 39.2101C0.683533 39.4121 0.763767 39.6059 0.906666 39.7488L12.9347 51.7769C13.0834 51.9257 13.2784 52 13.4733 52C13.6682 52 13.8632 51.9257 14.0119 51.777L21.1496 44.6402C23.364 44.8289 25.512 44.0477 27.0945 42.4652C28.7992 40.7605 29.557 38.3823 29.2184 36.0669H46.7188C49.254 36.0669 51.3165 34.0043 51.3165 31.4691V9.43617C51.3165 9.0155 50.9755 8.67445 50.5548 8.67445C50.1341 8.67445 49.7931 9.0155 49.7931 9.43617V31.4691C49.7931 33.1643 48.4139 34.5434 46.7188 34.5434H29.212L33.2259 30.5296C33.9059 29.8495 34.3831 29.0214 34.6305 28.1183H41.7209C42.1415 28.1183 42.4826 27.7772 42.4826 27.3566C42.4826 26.9359 42.1415 26.5949 41.7209 26.5949H34.8246C34.8197 26.2135 34.7757 25.8386 34.6951 25.4743H46.0824C46.503 25.4743 46.8441 25.1333 46.8441 24.7126C46.8441 24.2919 46.503 23.9509 46.0824 23.9509H34.105C33.8667 23.5361 33.5732 23.1495 33.2259 22.8022C32.1938 21.7701 30.8217 21.2018 29.3622 21.2018C27.9028 21.2018 26.5307 21.7701 25.4986 22.8022L20.2638 28.037V4.59773C20.2638 2.90255 21.6433 1.52344 23.3391 1.52344H46.7188C48.4139 1.52344 49.7931 2.90255 49.7931 4.59773V6.3893C49.7931 6.80997 50.1341 7.15102 50.5548 7.15102Z" fill="url(#paint0_linear)"/>
<defs>
<linearGradient id="paint0_linear" x1="26" y1="0" x2="26" y2="52" gradientUnits="userSpaceOnUse">
<stop stop-color="#85CD43"/>
<stop offset="1" stop-color="#4CB854"/>
</linearGradient>
</defs>
</svg>
