<svg width="52" height="52" viewBox="0 0 52 52" fill="none" xmlns="http://www.w3.org/2000/svg">
<g clip-path="url(#clip0)">
<path d="M50.5548 7.15102C50.9755 7.15102 51.3165 6.80997 51.3165 6.3893V4.59773C51.3165 2.06253 49.254 0 46.7188 0H23.3391C20.8034 0 18.7403 2.06253 18.7403 4.59773V15.7984L8.62237 20.7798C6.64688 21.7525 5.2251 23.6256 4.81895 25.7904C4.74136 26.2038 5.01365 26.602 5.42721 26.6795C5.47464 26.6883 5.52187 26.6927 5.56849 26.6927C5.92781 26.6927 6.24763 26.4372 6.31629 26.0712C6.63438 24.3754 7.74802 22.9082 9.29532 22.1464L18.7403 17.4963V29.5604L16.465 31.8357C16.1675 32.1332 16.1675 32.6155 16.465 32.9129C16.7625 33.2103 17.2448 33.2103 17.5422 32.9129L26.5758 23.8793C27.3201 23.135 28.3097 22.7251 29.3622 22.7251C30.4148 22.7251 31.4044 23.135 32.1487 23.8793C33.6851 25.4157 33.6851 27.9157 32.1487 29.4522L27.5088 34.0921C27.293 34.3078 27.2269 34.6315 27.3406 34.9146C28.2371 37.1466 27.7176 39.6875 26.0173 41.3879C24.683 42.7223 22.8437 43.3418 20.9711 43.0882C20.7265 43.0554 20.4842 43.1425 20.3172 43.3181L13.4734 50.161L2.52252 39.2102L6.42913 35.3044C6.58279 35.1508 6.66353 34.9388 6.65104 34.722L6.3169 28.9268C6.29263 28.5069 5.93299 28.1844 5.51263 28.2102C5.09267 28.2344 4.77183 28.5945 4.796 29.0145L5.11044 34.4687L0.906666 38.6715C0.763767 38.8143 0.683533 39.0081 0.683533 39.2101C0.683533 39.4121 0.763767 39.6059 0.906666 39.7488L12.9347 51.7769C13.0834 51.9257 13.2784 52 13.4733 52C13.6682 52 13.8632 51.9257 14.0119 51.777L21.1496 44.6402C23.364 44.8289 25.512 44.0477 27.0945 42.4652C28.7992 40.7605 29.557 38.3823 29.2184 36.0669H46.7188C49.254 36.0669 51.3165 34.0043 51.3165 31.4691V9.43617C51.3165 9.0155 50.9755 8.67445 50.5548 8.67445C50.1341 8.67445 49.7931 9.0155 49.7931 9.43617V31.4691C49.7931 33.1643 48.4139 34.5434 46.7188 34.5434H29.212L33.2259 30.5296C33.9059 29.8495 34.3831 29.0214 34.6305 28.1183H41.7209C42.1415 28.1183 42.4826 27.7772 42.4826 27.3566C42.4826 26.9359 42.1415 26.5949 41.7209 26.5949H34.8246C34.8197 26.2135 34.7757 25.8386 34.6951 25.4743H46.0824C46.503 25.4743 46.8441 25.1333 46.8441 24.7126C46.8441 24.2919 46.503 23.9509 46.0824 23.9509H34.105C33.8667 23.5361 33.5732 23.1495 33.2259 22.8022C32.1938 21.7701 30.8217 21.2018 29.3622 21.2018C27.9028 21.2018 26.5307 21.7701 25.4986 22.8022L20.2638 28.037V4.59773C20.2638 2.90255 21.6433 1.52344 23.3391 1.52344H46.7188C48.4139 1.52344 49.7931 2.90255 49.7931 4.59773V6.3893C49.7931 6.80997 50.1341 7.15102 50.5548 7.15102Z" fill="url(#paint0_linear)"/>
<path d="M29.9286 4.64464C29.5687 4.42699 29.1005 4.54246 28.8827 4.9023L25.7559 10.0734L24.358 8.50706C24.0777 8.19303 23.5962 8.16581 23.2825 8.44592C22.9686 8.72603 22.9413 9.20753 23.2214 9.52136L25.3058 11.857C25.4511 12.0198 25.6582 12.1115 25.8741 12.1115C25.8974 12.1115 25.9209 12.1104 25.9444 12.1083C26.1851 12.086 26.4009 11.9508 26.5259 11.744L30.1863 5.69042C30.404 5.33059 30.2887 4.86228 29.9286 4.64464Z" fill="url(#paint1_linear)"/>
<path d="M46.0823 6.17725H34.0645C33.6439 6.17725 33.3028 6.51829 33.3028 6.93896C33.3028 7.35963 33.6439 7.70068 34.0645 7.70068H46.0823C46.503 7.70068 46.844 7.35963 46.844 6.93896C46.844 6.51829 46.503 6.17725 46.0823 6.17725Z" fill="url(#paint2_linear)"/>
<path d="M34.0645 10.3447H41.7208C42.1415 10.3447 42.4825 10.0037 42.4825 9.58301C42.4825 9.16234 42.1415 8.82129 41.7208 8.82129H34.0645C33.6439 8.82129 33.3028 9.16234 33.3028 9.58301C33.3028 10.0037 33.6439 10.3447 34.0645 10.3447Z" fill="url(#paint3_linear)"/>
<path d="M46.844 15.4946C46.844 15.074 46.503 14.7329 46.0823 14.7329H34.0645C33.6439 14.7329 33.3028 15.074 33.3028 15.4946C33.3028 15.9153 33.6439 16.2563 34.0645 16.2563H46.0823C46.503 16.2563 46.844 15.9153 46.844 15.4946Z" fill="url(#paint4_linear)"/>
<path d="M34.0645 17.377C33.6439 17.377 33.3028 17.718 33.3028 18.1387C33.3028 18.5593 33.6439 18.9004 34.0645 18.9004H41.7208C42.1415 18.9004 42.4825 18.5593 42.4825 18.1387C42.4825 17.718 42.1415 17.377 41.7208 17.377H34.0645Z" fill="url(#paint5_linear)"/>
<path d="M29.0407 14.1426C28.7432 13.8451 28.2609 13.8451 27.9635 14.1426L26.0506 16.0555L24.1377 14.1426C23.8402 13.845 23.3579 13.8451 23.0605 14.1426C22.763 14.4401 22.763 14.9224 23.0605 15.2198L24.9734 17.1327L23.0605 19.0456C22.763 19.3431 22.763 19.8254 23.0605 20.1228C23.2092 20.2715 23.4042 20.3459 23.5991 20.3459C23.794 20.3459 23.989 20.2716 24.1377 20.1228L26.0506 18.2098L27.9635 20.1228C28.1122 20.2716 28.3072 20.3459 28.5021 20.3459C28.697 20.3459 28.892 20.2716 29.0407 20.1228C29.3382 19.8253 29.3382 19.343 29.0407 19.0456L27.1278 17.1327L29.0407 15.2198C29.3382 14.9223 29.3382 14.44 29.0407 14.1426Z" fill="url(#paint6_linear)"/>
</g>
<defs>
<linearGradient id="paint0_linear" x1="26" y1="0" x2="26" y2="52" gradientUnits="userSpaceOnUse">
<stop stop-color="#85CD43"/>
<stop offset="1" stop-color="#4CB854"/>
</linearGradient>
<linearGradient id="paint1_linear" x1="26.6621" y1="4.53467" x2="26.6621" y2="12.1115" gradientUnits="userSpaceOnUse">
<stop stop-color="#85CD43"/>
<stop offset="1" stop-color="#4CB854"/>
</linearGradient>
<linearGradient id="paint2_linear" x1="40.0734" y1="6.17725" x2="40.0734" y2="7.70068" gradientUnits="userSpaceOnUse">
<stop stop-color="#85CD43"/>
<stop offset="1" stop-color="#4CB854"/>
</linearGradient>
<linearGradient id="paint3_linear" x1="37.8927" y1="8.82129" x2="37.8927" y2="10.3447" gradientUnits="userSpaceOnUse">
<stop stop-color="#85CD43"/>
<stop offset="1" stop-color="#4CB854"/>
</linearGradient>
<linearGradient id="paint4_linear" x1="40.0734" y1="14.7329" x2="40.0734" y2="16.2563" gradientUnits="userSpaceOnUse">
<stop stop-color="#85CD43"/>
<stop offset="1" stop-color="#4CB854"/>
</linearGradient>
<linearGradient id="paint5_linear" x1="37.8927" y1="17.377" x2="37.8927" y2="18.9004" gradientUnits="userSpaceOnUse">
<stop stop-color="#85CD43"/>
<stop offset="1" stop-color="#4CB854"/>
</linearGradient>
<linearGradient id="paint6_linear" x1="26.0506" y1="13.9194" x2="26.0506" y2="20.3459" gradientUnits="userSpaceOnUse">
<stop stop-color="#85CD43"/>
<stop offset="1" stop-color="#4CB854"/>
</linearGradient>
<clipPath id="clip0">
<rect width="52" height="52" fill="white"/>
</clipPath>
</defs>
</svg>
