<svg width="20" height="21" viewBox="0 0 20 21" fill="none" xmlns="http://www.w3.org/2000/svg">
<path d="M16.1666 12.636C15.4949 12.4915 14.9635 12.8034 14.493 13.0758C14.0111 13.3564 13.0949 14.0997 12.5697 13.9095C9.88084 12.8024 7.35189 10.4489 6.25714 7.74921C6.0642 7.21281 6.804 6.29075 7.08259 5.80321C7.35292 5.33126 7.65833 4.79487 7.51904 4.11813C7.39316 3.51001 5.76497 1.43822 5.18923 0.871679C4.80952 0.497448 4.42053 0.291622 4.02123 0.258357C2.51995 0.193906 0.843272 2.19708 0.549208 2.6763C-0.187499 3.69816 -0.183372 5.05787 0.56159 6.70656C2.35693 11.135 9.14723 17.8181 13.5922 19.6809C14.4125 20.0645 15.1626 20.2568 15.8364 20.2568C16.4957 20.2568 17.0828 20.0728 17.5874 19.708C17.9681 19.4886 20.0534 17.7287 19.9987 16.1871C19.9657 15.7941 19.7604 15.4012 19.391 15.0207C18.8286 14.4396 16.7702 12.7629 16.1666 12.636Z" fill="#F8981D"/>
</svg>
