<svg width="30" height="30" viewBox="0 0 30 30" fill="none" xmlns="http://www.w3.org/2000/svg">
<path d="M16.9899 15.0002L25.8377 6.15202C26.3874 5.60276 26.3874 4.71156 25.8377 4.1623C25.288 3.61257 24.3978 3.61257 23.8481 4.1623L15.0002 13.0105L6.15192 4.1623C5.60221 3.61257 4.71199 3.61257 4.16228 4.1623C3.61257 4.71156 3.61257 5.60276 4.16228 6.15202L13.0106 15.0002L4.16228 23.8484C3.61257 24.3977 3.61257 25.2889 4.16228 25.8382C4.43713 26.1126 4.79735 26.25 5.1571 26.25C5.51685 26.25 5.87707 26.1126 6.15192 25.8377L15.0002 16.9895L23.8481 25.8377C24.1229 26.1126 24.4832 26.25 24.8429 26.25C25.2026 26.25 25.5629 26.1126 25.8377 25.8377C26.3874 25.2884 26.3874 24.3972 25.8377 23.848L16.9899 15.0002Z" fill="#4B4242"/>
</svg>
