<svg width="52" height="52" viewBox="0 0 52 52" fill="none" xmlns="http://www.w3.org/2000/svg">
<g clip-path="url(#clip0)">
<path d="M22.9091 24.0665L22.8908 25.2226C22.8753 26.2251 24.3916 26.2513 24.4071 25.2464L24.4254 24.0903C24.4408 23.0898 22.9245 23.0588 22.9091 24.0665Z" fill="url(#paint0_linear)"/>
<path d="M22.7235 35.9387L22.7056 37.0947C22.6898 38.0969 24.2061 38.1231 24.2219 37.1185L24.2398 35.9621C24.2557 34.9568 22.7394 34.9385 22.7235 35.9387Z" fill="url(#paint1_linear)"/>
<path d="M27.413 27.6209C27.9074 27.6209 28.0617 27.221 28.771 26.6025C29.4903 25.9051 28.4366 24.8145 27.7157 25.5135L26.8854 26.3181C26.3946 26.7942 26.7378 27.6209 27.413 27.6209Z" fill="url(#paint2_linear)"/>
<path d="M18.7684 34.1857L18.3598 34.582C17.6401 35.2791 18.6942 36.3701 19.4151 35.6711L19.8237 35.2747C20.5434 34.5773 19.4893 33.4871 18.7684 34.1857Z" fill="url(#paint3_linear)"/>
<path d="M19.5758 25.3863C18.8779 24.6666 17.7877 25.7211 18.4867 26.442L18.8827 26.8506C19.5718 27.5612 20.6787 26.5245 19.9717 25.7949L19.5758 25.3863Z" fill="url(#paint4_linear)"/>
<path d="M26.7503 34.9679L27.5552 35.7982C28.2531 36.5179 29.3429 35.4634 28.6443 34.7429L27.8393 33.9126C27.1414 33.1933 26.0516 34.247 26.7503 34.9679Z" fill="url(#paint5_linear)"/>
<path d="M30.0796 31.4522C31.0738 31.4522 31.0877 29.9514 30.0911 29.9359C28.5375 29.9117 29.0179 29.9176 28.9231 29.9176C27.9289 29.9176 27.9146 31.4185 28.9112 31.4339C30.4652 31.4581 29.9848 31.4522 30.0796 31.4522Z" fill="url(#paint6_linear)"/>
<path d="M3.26829 19.3683C-0.239594 19.8952 -0.894991 24.6575 2.27726 26.1417L13.5892 31.4341C14.243 33.7093 17.0653 34.5559 18.8578 32.9674L24.0946 32.5247C26.3091 32.3374 26.3559 29.0993 24.1521 28.8438L19.0022 28.2459C18.4194 27.6631 17.6164 27.3001 16.7301 27.2942L11.0347 23.4661L18.5582 20.578C21.3401 19.5104 22.3359 16.0977 20.6077 13.705V10.0254H21.9955C23.0758 10.0254 23.9549 9.1462 23.9549 8.06551V6.29094H37.5148C38.5169 6.29094 38.5185 4.77464 37.5148 4.77464H4.33033C2.90171 4.77464 1.73929 3.61222 1.73929 2.1832C1.73929 1.75949 2.08365 1.41513 2.50736 1.41513H49.6638C51.2027 1.41513 50.3561 4.77464 47.8408 4.77464H40.5477C39.5452 4.77464 39.5436 6.29094 40.5477 6.29094H47.8408C50.1058 6.29094 51.9486 4.44813 51.9486 2.1832C51.9486 0.923586 50.9238 -0.101562 49.6638 -0.101562H2.50736C1.24735 -0.101562 0.222595 0.923586 0.222595 2.1832C0.222595 4.44813 2.0654 6.29094 4.33033 6.29094H9.51201V8.06551C9.51201 9.1462 10.3912 10.025 11.4719 10.025H12.8592V13.5336L3.26829 19.3683ZM1.8234 23.503C1.26599 21.6709 3.32542 20.1114 4.93971 21.1965C6.69285 22.3751 12.6093 26.352 14.8663 27.869C14.2287 28.3102 13.7562 28.9739 13.5614 29.7468C3.04651 24.5841 2.28995 25.0364 1.8234 23.503ZM14.998 30.7854C14.8456 29.7253 15.6812 28.8109 16.7083 28.8109C17.6612 28.8109 18.4364 29.5861 18.4364 30.539C18.4364 32.6457 15.3435 32.9218 14.998 30.7854ZM23.9776 30.3502C24.3747 30.3962 24.3656 30.9798 23.9668 31.0135L19.8472 31.3619C19.9765 30.8687 19.9853 30.3565 19.8849 29.8753L23.9776 30.3502ZM19.7385 17.4513C19.4259 18.248 18.8137 18.8558 18.0147 19.162L9.49654 22.4323C5.54631 19.7825 5.76173 19.9095 5.51853 19.7746C11.5326 16.1159 14.6588 14.2136 15.3713 13.78C17.8449 12.276 20.7787 14.7992 19.7385 17.4513ZM11.0287 8.06551V6.29094H22.4382V8.06551C22.4382 8.30989 22.2395 8.50865 21.9951 8.50865H11.4719C11.2275 8.50865 11.0287 8.30989 11.0287 8.06551ZM14.3759 10.025H19.091V12.3716C16.6174 11.0299 14.4104 12.5981 14.3759 12.6108V10.025Z" fill="url(#paint7_linear)"/>
<path d="M46.9989 40.4938V35.9501C46.9989 27.9627 36.8192 24.5655 32.0021 30.9037C31.3955 31.7019 32.602 32.6207 33.2094 31.8213C37.1509 26.6349 45.4826 29.414 45.4826 35.9501V40.4438H31.8208C31.8736 36.2345 31.6891 35.6085 32.0307 34.2636C32.2774 33.2924 30.808 32.9175 30.5608 33.8906C30.1494 35.5113 30.3636 36.4079 30.3045 40.4438H5.93025C2.77228 40.4438 0.203064 43.013 0.203064 46.1714C0.203064 49.3294 2.77228 51.8986 5.93025 51.8986H46.2407C49.3987 51.8986 51.9679 49.3294 51.9679 46.1714C51.9679 43.2701 49.8002 40.8659 46.9989 40.4938ZM46.2407 50.3819H5.93025C3.60859 50.3819 1.71976 48.4931 1.71976 46.1714C1.71976 43.8497 3.60859 41.9605 5.93025 41.9605H46.2407C48.5628 41.9605 50.4516 43.8497 50.4516 46.1714C50.4516 48.4931 48.5624 50.3819 46.2407 50.3819Z" fill="url(#paint8_linear)"/>
<path d="M46.2407 43.2783H5.93021C4.33536 43.2783 3.03766 44.576 3.03766 46.1709C3.03766 47.7661 4.33536 49.0638 5.93021 49.0638H46.2411C47.8359 49.0634 49.1332 47.7661 49.1332 46.1709C49.1332 44.5764 47.8359 43.2787 46.2407 43.2783ZM17.2525 46.1713C17.2525 45.4123 17.8698 44.795 18.6287 44.795C19.3873 44.795 20.0046 45.4123 20.0046 46.1713C20.0046 46.9302 19.3873 47.5471 18.6287 47.5471C17.8698 47.5471 17.2525 46.9302 17.2525 46.1713ZM16.0849 47.5471H8.47404C8.93464 46.6993 8.94377 45.6599 8.47404 44.795H16.0849C15.6243 45.6432 15.6148 46.6823 16.0849 47.5471ZM21.1726 44.795H30.9983C30.5377 45.6432 30.5286 46.6823 30.9983 47.5471H21.1726C21.6332 46.6993 21.6423 45.6599 21.1726 44.795ZM32.1663 46.1713C32.1663 45.4123 32.7836 44.795 33.5422 44.795C34.3011 44.795 34.9184 45.4123 34.9184 46.1713C34.9184 46.9302 34.3011 47.5471 33.5422 47.5471C32.7836 47.5471 32.1663 46.9302 32.1663 46.1713ZM36.086 44.795H43.6969C43.2355 45.6448 43.2279 46.6838 43.6969 47.5471H36.086C36.5466 46.6993 36.5561 45.6599 36.086 44.795ZM4.55396 46.1713C4.55396 45.4123 5.17127 44.795 5.93021 44.795C6.68916 44.795 7.30647 45.4123 7.30647 46.1713C7.30647 46.9302 6.68916 47.5471 5.93021 47.5471C5.17127 47.5471 4.55396 46.9298 4.55396 46.1713ZM46.2407 47.5471C45.4817 47.5471 44.8644 46.9298 44.8644 46.1713C44.8644 45.4127 45.4817 44.795 46.2407 44.795C46.9996 44.795 47.6169 45.4123 47.6169 46.1713C47.6169 46.9298 46.9992 47.5471 46.2407 47.5471Z" fill="url(#paint9_linear)"/>
</g>
<defs>
<linearGradient id="paint0_linear" x1="23.6581" y1="23.3252" x2="23.6581" y2="25.9874" gradientUnits="userSpaceOnUse">
<stop stop-color="#85CD43"/>
<stop offset="1" stop-color="#4CB854"/>
</linearGradient>
<linearGradient id="paint1_linear" x1="23.4727" y1="35.1982" x2="23.4727" y2="37.8592" gradientUnits="userSpaceOnUse">
<stop stop-color="#85CD43"/>
<stop offset="1" stop-color="#4CB854"/>
</linearGradient>
<linearGradient id="paint2_linear" x1="27.8328" y1="25.2886" x2="27.8328" y2="27.6209" gradientUnits="userSpaceOnUse">
<stop stop-color="#85CD43"/>
<stop offset="1" stop-color="#4CB854"/>
</linearGradient>
<linearGradient id="paint3_linear" x1="19.0918" y1="33.9609" x2="19.0918" y2="35.8959" gradientUnits="userSpaceOnUse">
<stop stop-color="#85CD43"/>
<stop offset="1" stop-color="#4CB854"/>
</linearGradient>
<linearGradient id="paint4_linear" x1="19.2303" y1="25.1455" x2="19.2303" y2="27.0887" gradientUnits="userSpaceOnUse">
<stop stop-color="#85CD43"/>
<stop offset="1" stop-color="#4CB854"/>
</linearGradient>
<linearGradient id="paint5_linear" x1="27.6973" y1="33.6719" x2="27.6973" y2="36.039" gradientUnits="userSpaceOnUse">
<stop stop-color="#85CD43"/>
<stop offset="1" stop-color="#4CB854"/>
</linearGradient>
<linearGradient id="paint6_linear" x1="29.5013" y1="29.917" x2="29.5013" y2="31.4528" gradientUnits="userSpaceOnUse">
<stop stop-color="#85CD43"/>
<stop offset="1" stop-color="#4CB854"/>
</linearGradient>
<linearGradient id="paint7_linear" x1="26.0856" y1="-0.101563" x2="26.0856" y2="33.7836" gradientUnits="userSpaceOnUse">
<stop stop-color="#85CD43"/>
<stop offset="1" stop-color="#4CB854"/>
</linearGradient>
<linearGradient id="paint8_linear" x1="26.0855" y1="27.6035" x2="26.0855" y2="51.8986" gradientUnits="userSpaceOnUse">
<stop stop-color="#85CD43"/>
<stop offset="1" stop-color="#4CB854"/>
</linearGradient>
<linearGradient id="paint9_linear" x1="26.0854" y1="43.2783" x2="26.0854" y2="49.0638" gradientUnits="userSpaceOnUse">
<stop stop-color="#85CD43"/>
<stop offset="1" stop-color="#4CB854"/>
</linearGradient>
<clipPath id="clip0">
<rect width="52" height="52" fill="white"/>
</clipPath>
</defs>
</svg>
