<svg width="130" height="130" viewBox="0 0 130 130" fill="none" xmlns="http://www.w3.org/2000/svg">
<g filter="url(#filter0_d)">
<path d="M64.6667 16L68.5929 21.043L73.3565 16.7821L76.3192 22.4451L81.767 19.1032L83.6709 25.2042L89.6279 22.8888L90.4118 29.2317L96.6865 28.0172L96.3252 34.3981L102.716 34.3235L101.221 40.5374L107.522 41.6051L104.942 47.4522L110.952 49.6279L107.369 54.9203L112.893 58.134L108.423 62.7016L113.284 66.8502L108.07 70.5462L112.113 75.4961L106.323 78.2017L109.417 83.794L103.237 85.4222L105.283 91.4771L98.911 91.9756L99.8428 98.2985L93.4845 97.6513L93.2723 104.039L87.1317 102.267L85.7824 108.514L80.057 105.674L77.6139 111.58L72.4875 107.763L69.0292 113.138L64.6667 108.467L60.3043 113.138L56.8459 107.763L51.7196 111.58L49.2765 105.674L43.551 108.514L42.2017 102.267L36.0611 104.039L35.849 97.6513L29.4907 98.2985L30.4225 91.9756L24.0508 91.4771L26.0966 85.4222L19.9163 83.794L23.0104 78.2017L17.2202 75.4961L21.2631 70.5462L16.049 66.8502L20.9108 62.7016L16.4404 58.134L21.9648 54.9203L18.3819 49.6279L24.3914 47.4522L21.811 41.6051L28.1124 40.5374L26.6175 34.3235L33.0083 34.3981L32.647 28.0172L38.9217 29.2317L39.7056 22.8888L45.6626 25.2042L47.5665 19.1032L53.0143 22.4451L55.9769 16.7821L60.7405 21.043L64.6667 16Z" fill="#FFE0B1"/>
</g>
<path d="M68.738 23.5091L72.7943 19.8808L75.317 24.703L75.5651 25.1773L76.0215 24.8974L80.6604 22.0517L82.2816 27.2468L82.441 27.7579L82.94 27.5639L88.0125 25.5923L88.68 30.9934L88.7456 31.5247L89.2712 31.423L94.6142 30.3888L94.3066 35.8222L94.2763 36.3567L94.8116 36.3505L100.253 36.2869L98.9805 41.5781L98.8553 42.0986L99.3831 42.188L104.749 43.0972L102.552 48.0761L102.335 48.5659L102.839 48.7481L107.956 50.6007L104.905 55.1073L104.605 55.5506L105.068 55.8198L109.772 58.5563L105.965 62.4457L105.591 62.8283L105.998 63.1758L110.138 66.7083L105.698 69.8555L105.261 70.1651L105.6 70.5797L109.043 74.7946L104.112 77.0985L103.627 77.3251L103.886 77.7935L106.521 82.5554L101.258 83.9419L100.741 84.0783L100.912 84.5854L102.654 89.7413L97.2285 90.1658L96.6947 90.2075L96.7728 90.7371L97.5662 96.1212L92.152 95.5701L91.6195 95.5159L91.6017 96.0509L91.421 101.49L86.1922 99.9811L85.6779 99.8327L85.5649 100.356L84.4159 105.675L79.5406 103.257L79.061 103.019L78.8564 103.514L76.7761 108.543L72.4109 105.293L71.9815 104.973L71.6918 105.423L68.747 110L65.0323 106.023L64.6669 105.631L64.3015 106.023L60.5868 110L57.642 105.423L57.3523 104.973L56.9229 105.293L52.5578 108.543L50.4774 103.514L50.2728 103.019L49.7932 103.257L44.9179 105.675L43.7689 100.356L43.6559 99.8327L43.1416 99.9811L37.9128 101.49L37.7321 96.0509L37.7144 95.5159L37.1818 95.5701L31.7676 96.1212L32.561 90.7371L32.6391 90.2075L32.1054 90.1658L26.6798 89.7413L28.4218 84.5854L28.5932 84.0783L28.0755 83.9419L22.8129 82.5554L25.4476 77.7935L25.7068 77.3251L25.2218 77.0985L20.2913 74.7946L23.7339 70.5797L24.0725 70.1651L23.6358 69.8555L19.1959 66.7083L23.3358 63.1758L23.743 62.8283L23.3686 62.4457L19.562 58.5563L24.2661 55.8198L24.7289 55.5506L24.4287 55.1073L21.3778 50.6007L26.495 48.7481L26.9983 48.5659L26.7822 48.0761L24.585 43.0972L29.9507 42.188L30.4785 42.0986L30.3533 41.5781L29.0804 36.2869L34.5222 36.3505L35.0575 36.3567L35.0273 35.8222L34.7196 30.3888L40.0626 31.423L40.5882 31.5247L40.6539 30.9934L41.3214 25.5923L46.3938 27.5639L46.8928 27.7579L47.0523 27.2468L48.6734 22.0517L53.3124 24.8974L53.7687 25.1773L54.0168 24.703L56.5396 19.8808L60.5958 23.5091L60.9948 23.866L61.3237 23.4435L64.6669 19.1494L68.0101 23.4435L68.339 23.866L68.738 23.5091Z" fill="#FFE0B1" stroke="#F8981D"/>
<path d="M43.6575 61.5981V50.3211H41.6625V47.5911H46.8915V61.5981H43.6575ZM61.9142 54.6051C61.9142 57.1811 61.2422 59.1341 59.8982 60.4641C58.9042 61.4301 57.6512 61.9131 56.1392 61.9131C54.6552 61.9131 53.4162 61.4301 52.4222 60.4641C51.0782 59.1341 50.4062 57.1811 50.4062 54.6051C50.4062 51.9871 51.0782 50.0271 52.4222 48.7251C53.4162 47.7591 54.6552 47.2761 56.1392 47.2761C57.6512 47.2761 58.9042 47.7591 59.8982 48.7251C61.2422 50.0271 61.9142 51.9871 61.9142 54.6051ZM57.4622 50.5731C57.0982 50.2231 56.6642 50.0481 56.1602 50.0481C55.6562 50.0481 55.2222 50.2231 54.8582 50.5731C54.0742 51.3431 53.6822 52.6801 53.6822 54.5841C53.6822 56.5021 54.0742 57.8461 54.8582 58.6161C55.2222 58.9661 55.6562 59.1411 56.1602 59.1411C56.6642 59.1411 57.0982 58.9661 57.4622 58.6161C58.2462 57.8461 58.6382 56.5021 58.6382 54.5841C58.6382 52.6801 58.2462 51.3431 57.4622 50.5731ZM74.506 54.6051C74.506 57.1811 73.834 59.1341 72.49 60.4641C71.496 61.4301 70.243 61.9131 68.731 61.9131C67.247 61.9131 66.008 61.4301 65.014 60.4641C63.67 59.1341 62.998 57.1811 62.998 54.6051C62.998 51.9871 63.67 50.0271 65.014 48.7251C66.008 47.7591 67.247 47.2761 68.731 47.2761C70.243 47.2761 71.496 47.7591 72.49 48.7251C73.834 50.0271 74.506 51.9871 74.506 54.6051ZM70.054 50.5731C69.69 50.2231 69.256 50.0481 68.752 50.0481C68.248 50.0481 67.814 50.2231 67.45 50.5731C66.666 51.3431 66.274 52.6801 66.274 54.5841C66.274 56.5021 66.666 57.8461 67.45 58.6161C67.814 58.9661 68.248 59.1411 68.752 59.1411C69.256 59.1411 69.69 58.9661 70.054 58.6161C70.838 57.8461 71.23 56.5021 71.23 54.5841C71.23 52.6801 70.838 51.3431 70.054 50.5731ZM78.9288 61.5561L87.1398 47.3601L88.6098 47.6751L80.3778 61.8921L78.9288 61.5561ZM80.5458 49.5861C80.2518 49.2641 79.8528 49.1031 79.3488 49.1031C78.8448 49.1031 78.4458 49.2641 78.1518 49.5861C77.8438 49.8941 77.6898 50.3001 77.6898 50.8041C77.6898 51.3081 77.8438 51.7141 78.1518 52.0221C78.4458 52.3441 78.8448 52.5051 79.3488 52.5051C79.8528 52.5051 80.2518 52.3441 80.5458 52.0221C80.8538 51.7141 81.0078 51.3081 81.0078 50.8041C81.0078 50.3001 80.8538 49.8941 80.5458 49.5861ZM82.1208 48.4521C82.7228 49.0541 83.0238 49.8381 83.0238 50.8041C83.0238 51.7701 82.7228 52.5541 82.1208 53.1561C81.4488 53.8561 80.5248 54.2061 79.3488 54.2061C78.1728 54.2061 77.2488 53.8561 76.5768 53.1561C75.9748 52.5541 75.6738 51.7701 75.6738 50.8041C75.6738 49.8381 75.9748 49.0541 76.5768 48.4521C77.2488 47.7521 78.1728 47.4021 79.3488 47.4021C80.5248 47.4021 81.4488 47.7521 82.1208 48.4521ZM89.3658 57.1671C89.0718 56.8451 88.6728 56.6841 88.1688 56.6841C87.6648 56.6841 87.2658 56.8451 86.9718 57.1671C86.6638 57.4751 86.5098 57.8811 86.5098 58.3851C86.5098 58.8891 86.6638 59.2951 86.9718 59.6031C87.2658 59.9251 87.6648 60.0861 88.1688 60.0861C88.6728 60.0861 89.0718 59.9251 89.3658 59.6031C89.6738 59.2951 89.8278 58.8891 89.8278 58.3851C89.8278 57.8811 89.6738 57.4751 89.3658 57.1671ZM90.9408 56.0331C91.5428 56.6351 91.8438 57.4191 91.8438 58.3851C91.8438 59.3511 91.5428 60.1351 90.9408 60.7371C90.2688 61.4371 89.3448 61.7871 88.1688 61.7871C86.9928 61.7871 86.0688 61.4371 85.3968 60.7371C84.7948 60.1351 84.4938 59.3511 84.4938 58.3851C84.4938 57.4191 84.7948 56.6351 85.3968 56.0331C86.0688 55.3331 86.9928 54.9831 88.1688 54.9831C89.3448 54.9831 90.2688 55.3331 90.9408 56.0331Z" fill="#4B4242"/>
<path d="M31.2443 68.6481V69.7281C30.7523 69.2841 30.2093 69.0621 29.6153 69.0621C28.9673 69.0621 28.4393 69.2781 28.0313 69.7101C27.6293 70.1361 27.4283 70.6821 27.4283 71.3481C27.4283 71.9901 27.6353 72.5271 28.0493 72.9591C28.4633 73.3851 28.9883 73.5981 29.6243 73.5981C30.2183 73.5981 30.7583 73.3671 31.2443 72.9051V73.9941C30.7403 74.2941 30.1913 74.4441 29.5973 74.4441C28.7633 74.4441 28.0553 74.1681 27.4733 73.6161C26.8313 73.0161 26.5103 72.2601 26.5103 71.3481C26.5103 70.3881 26.8313 69.6051 27.4733 68.9991C28.0253 68.4771 28.7483 68.2161 29.6423 68.2161C30.2603 68.2161 30.7943 68.3601 31.2443 68.6481ZM34.8724 73.0491L35.6104 73.4631C35.4424 73.7631 35.2294 73.9941 34.9714 74.1561C34.6774 74.3481 34.3054 74.4441 33.8554 74.4441C33.3274 74.4441 32.9014 74.2821 32.5774 73.9581C32.2054 73.5861 32.0194 73.1031 32.0194 72.5091C32.0194 71.8851 32.2204 71.3661 32.6224 70.9521C32.9644 70.6101 33.3874 70.4391 33.8914 70.4391C34.3834 70.4391 34.7884 70.6041 35.1064 70.9341C35.4604 71.3001 35.6374 71.8341 35.6374 72.5361V72.6441H32.9194C32.9434 72.9621 33.0514 73.2171 33.2434 73.4091C33.4054 73.5711 33.6304 73.6521 33.9184 73.6521C34.1524 73.6521 34.3534 73.5891 34.5214 73.4631C34.6594 73.3551 34.7764 73.2171 34.8724 73.0491ZM32.9824 71.9241H34.7374C34.7014 71.7141 34.6114 71.5431 34.4674 71.4111C34.3114 71.2671 34.1134 71.1951 33.8734 71.1951C33.6214 71.1951 33.4144 71.2761 33.2524 71.4381C33.1204 71.5581 33.0304 71.7201 32.9824 71.9241ZM37.4412 73.8861V76.3881H36.5592V70.5381H37.4412V70.9521C37.7292 70.6101 38.1042 70.4391 38.5662 70.4391C39.0822 70.4391 39.5172 70.6221 39.8712 70.9881C40.2312 71.3481 40.4112 71.8221 40.4112 72.4101C40.4112 73.0161 40.2252 73.5081 39.8532 73.8861C39.4812 74.2581 39.0552 74.4441 38.5752 74.4441C38.1252 74.4441 37.7472 74.2581 37.4412 73.8861ZM38.4582 71.2311C38.1582 71.2311 37.9032 71.3391 37.6932 71.5551C37.4892 71.7651 37.3872 72.0651 37.3872 72.4551C37.3872 72.8331 37.4892 73.1271 37.6932 73.3371C37.9032 73.5471 38.1582 73.6521 38.4582 73.6521C38.7702 73.6521 39.0222 73.5351 39.2142 73.3011C39.4122 73.0671 39.5112 72.7821 39.5112 72.4461C39.5112 72.1041 39.4122 71.8161 39.2142 71.5821C39.0222 71.3481 38.7702 71.2311 38.4582 71.2311ZM43.9416 71.3481H42.8346V74.3271H41.9526V71.3481H40.8456V70.5381H43.9416V71.3481ZM44.5748 70.5381H45.4568V72.6891L48.0488 70.1961V74.3271H47.1668V72.1221L44.5748 74.6151V70.5381ZM51.1787 76.3881V74.3901C50.5307 74.3961 50.0117 74.2311 49.6217 73.8951C49.1957 73.5351 48.9827 73.0461 48.9827 72.4281C48.9827 71.8161 49.1927 71.3301 49.6127 70.9701C49.9967 70.6401 50.5187 70.4751 51.1787 70.4751V68.3241H52.0607V70.4751C52.7207 70.4751 53.2427 70.6401 53.6267 70.9701C54.0467 71.3301 54.2567 71.8161 54.2567 72.4281C54.2567 73.0461 54.0437 73.5351 53.6177 73.8951C53.2277 74.2311 52.7087 74.3961 52.0607 74.3901V76.3881H51.1787ZM51.1787 73.5981V71.2671C50.8307 71.2671 50.5547 71.3331 50.3507 71.4651C50.0387 71.6511 49.8827 71.9721 49.8827 72.4281C49.8827 72.8541 50.0297 73.1691 50.3237 73.3731C50.5517 73.5351 50.8367 73.6101 51.1787 73.5981ZM52.0607 71.2671V73.5981C52.4027 73.6101 52.6877 73.5351 52.9157 73.3731C53.2097 73.1691 53.3567 72.8541 53.3567 72.4281C53.3567 71.9721 53.2007 71.6511 52.8887 71.4651C52.6847 71.3331 52.4087 71.2671 52.0607 71.2671ZM55.192 70.5381H56.074V72.6891L58.666 70.1961V74.3271H57.784V72.1221L55.192 74.6151V70.5381ZM59.7799 74.3271V70.5381H60.6619V73.5171H62.1559V70.5381H63.0379V73.5171H63.6679V75.4071H62.8579V74.3271H59.7799ZM64.2975 70.5381H65.1795V72.6891L67.7715 70.1961V74.3271H66.8895V72.1221L64.2975 74.6151V70.5381ZM69.7673 73.8861V76.3881H68.8853V70.5381H69.7673V70.9521C70.0553 70.6101 70.4303 70.4391 70.8923 70.4391C71.4083 70.4391 71.8433 70.6221 72.1973 70.9881C72.5573 71.3481 72.7373 71.8221 72.7373 72.4101C72.7373 73.0161 72.5513 73.5081 72.1793 73.8861C71.8073 74.2581 71.3813 74.4441 70.9013 74.4441C70.4513 74.4441 70.0733 74.2581 69.7673 73.8861ZM70.7843 71.2311C70.4843 71.2311 70.2293 71.3391 70.0193 71.5551C69.8153 71.7651 69.7133 72.0651 69.7133 72.4551C69.7133 72.8331 69.8153 73.1271 70.0193 73.3371C70.2293 73.5471 70.4843 73.6521 70.7843 73.6521C71.0963 73.6521 71.3483 73.5351 71.5403 73.3011C71.7383 73.0671 71.8373 72.7821 71.8373 72.4461C71.8373 72.1041 71.7383 71.8161 71.5403 71.5821C71.3483 71.3481 71.0963 71.2311 70.7843 71.2311ZM74.0358 71.0061C74.4258 70.6281 74.9088 70.4391 75.4848 70.4391C76.0608 70.4391 76.5408 70.6281 76.9248 71.0061C77.3148 71.3781 77.5098 71.8551 77.5098 72.4371C77.5098 73.0131 77.3148 73.4931 76.9248 73.8771C76.5408 74.2551 76.0608 74.4441 75.4848 74.4441C74.9088 74.4441 74.4258 74.2551 74.0358 73.8771C73.6518 73.4931 73.4598 73.0131 73.4598 72.4371C73.4598 71.8551 73.6518 71.3781 74.0358 71.0061ZM74.6658 73.3281C74.8698 73.5441 75.1428 73.6521 75.4848 73.6521C75.8268 73.6521 76.0998 73.5441 76.3038 73.3281C76.5078 73.1061 76.6098 72.8121 76.6098 72.4461C76.6098 72.0441 76.4988 71.7411 76.2768 71.5371C76.0608 71.3331 75.7968 71.2311 75.4848 71.2311C75.1728 71.2311 74.9058 71.3331 74.6838 71.5371C74.4678 71.7411 74.3598 72.0441 74.3598 72.4461C74.3598 72.8121 74.4618 73.1061 74.6658 73.3281ZM78.4303 70.5381H79.9153C80.2933 70.5381 80.5813 70.6131 80.7793 70.7631C81.0133 70.9491 81.1303 71.1921 81.1303 71.4921C81.1303 71.8341 80.9803 72.0801 80.6803 72.2301C80.8723 72.2661 81.0433 72.3501 81.1933 72.4821C81.3913 72.6621 81.4903 72.9051 81.4903 73.2111C81.4903 73.5771 81.3523 73.8651 81.0763 74.0751C80.8483 74.2431 80.5573 74.3271 80.2033 74.3271H78.4303V70.5381ZM79.3123 72.0141H79.7623C79.9183 72.0141 80.0353 71.9871 80.1133 71.9331C80.2273 71.8611 80.2843 71.7591 80.2843 71.6271C80.2843 71.5011 80.2333 71.4021 80.1313 71.3301C80.0593 71.2821 79.9303 71.2581 79.7443 71.2581H79.3123V72.0141ZM79.3123 73.6071H79.9693C80.1673 73.6071 80.3203 73.5711 80.4283 73.4991C80.5483 73.4211 80.6083 73.3101 80.6083 73.1661C80.6083 73.0101 80.5513 72.8991 80.4373 72.8331C80.3353 72.7671 80.1883 72.7341 79.9963 72.7341H79.3123V73.6071ZM85.1837 70.9791V70.5381H86.0657V74.3271H85.1837V73.9311C84.8897 74.2731 84.5117 74.4441 84.0497 74.4441C83.4917 74.4441 83.0447 74.2461 82.7087 73.8501C82.3787 73.4541 82.2137 72.9801 82.2137 72.4281C82.2137 71.8281 82.3907 71.3481 82.7447 70.9881C83.1047 70.6221 83.5427 70.4391 84.0587 70.4391C84.5327 70.4391 84.9077 70.6191 85.1837 70.9791ZM84.1667 71.2311C83.8547 71.2311 83.5997 71.3481 83.4017 71.5821C83.2097 71.8161 83.1137 72.1041 83.1137 72.4461C83.1137 72.7821 83.2097 73.0671 83.4017 73.3011C83.5997 73.5351 83.8547 73.6521 84.1667 73.6521C84.4667 73.6521 84.7187 73.5471 84.9227 73.3371C85.1327 73.1271 85.2377 72.8331 85.2377 72.4551C85.2377 72.0651 85.1327 71.7651 84.9227 71.5551C84.7187 71.3391 84.4667 71.2311 84.1667 71.2311ZM87.1842 74.3271V70.5381H88.0662V71.9421H89.6322V70.5381H90.5142V74.3271H89.6322V72.7521H88.0662V74.3271H87.1842ZM91.6314 74.3271V70.5381H92.5134V71.9421H94.0794V70.5381H94.9614V74.3271H94.0794V72.7521H92.5134V74.3271H91.6314ZM96.4567 71.0061C96.8467 70.6281 97.3297 70.4391 97.9057 70.4391C98.4817 70.4391 98.9617 70.6281 99.3457 71.0061C99.7357 71.3781 99.9307 71.8551 99.9307 72.4371C99.9307 73.0131 99.7357 73.4931 99.3457 73.8771C98.9617 74.2551 98.4817 74.4441 97.9057 74.4441C97.3297 74.4441 96.8467 74.2551 96.4567 73.8771C96.0727 73.4931 95.8807 73.0131 95.8807 72.4371C95.8807 71.8551 96.0727 71.3781 96.4567 71.0061ZM97.0867 73.3281C97.2907 73.5441 97.5637 73.6521 97.9057 73.6521C98.2477 73.6521 98.5207 73.5441 98.7247 73.3281C98.9287 73.1061 99.0307 72.8121 99.0307 72.4461C99.0307 72.0441 98.9197 71.7411 98.6977 71.5371C98.4817 71.3331 98.2177 71.2311 97.9057 71.2311C97.5937 71.2311 97.3267 71.3331 97.1047 71.5371C96.8887 71.7411 96.7807 72.0441 96.7807 72.4461C96.7807 72.8121 96.8827 73.1061 97.0867 73.3281ZM103.506 73.0491L104.244 73.4631C104.076 73.7631 103.863 73.9941 103.605 74.1561C103.311 74.3481 102.939 74.4441 102.489 74.4441C101.961 74.4441 101.535 74.2821 101.211 73.9581C100.839 73.5861 100.653 73.1031 100.653 72.5091C100.653 71.8851 100.854 71.3661 101.256 70.9521C101.598 70.6101 102.021 70.4391 102.525 70.4391C103.017 70.4391 103.422 70.6041 103.74 70.9341C104.094 71.3001 104.271 71.8341 104.271 72.5361V72.6441H101.553C101.577 72.9621 101.685 73.2171 101.877 73.4091C102.039 73.5711 102.264 73.6521 102.552 73.6521C102.786 73.6521 102.987 73.5891 103.155 73.4631C103.293 73.3551 103.41 73.2171 103.506 73.0491ZM101.616 71.9241H103.371C103.335 71.7141 103.245 71.5431 103.101 71.4111C102.945 71.2671 102.747 71.1951 102.507 71.1951C102.255 71.1951 102.048 71.2761 101.886 71.4381C101.754 71.5581 101.664 71.7201 101.616 71.9241ZM59.0401 79.7091V80.6991C58.7221 80.3871 58.3651 80.2311 57.9691 80.2311C57.6331 80.2311 57.3541 80.3421 57.1321 80.5641C56.916 80.7801 56.808 81.0711 56.808 81.4371C56.808 81.8151 56.922 82.1181 57.15 82.3461C57.3661 82.5501 57.6331 82.6521 57.9511 82.6521C58.3891 82.6521 58.752 82.4901 59.0401 82.1661V83.1471C58.7221 83.3451 58.3381 83.4441 57.8881 83.4441C57.2821 83.4441 56.802 83.2581 56.448 82.8861C56.088 82.5141 55.908 82.0401 55.908 81.4641C55.908 80.8701 56.1 80.3811 56.484 79.9971C56.856 79.6251 57.363 79.4391 58.005 79.4391C58.3711 79.4391 58.7161 79.5291 59.0401 79.7091ZM59.8853 83.3271V79.5381H60.7673V80.8791H61.2713C61.4333 80.8791 61.5653 80.8851 61.6673 80.8971C61.7693 80.9031 61.8923 80.9361 62.0363 80.9961C62.1803 81.0561 62.3063 81.1461 62.4143 81.2661C62.6123 81.4881 62.7113 81.7641 62.7113 82.0941C62.7113 82.4721 62.5973 82.7751 62.3693 83.0031C62.2673 83.1051 62.1443 83.1831 62.0003 83.2371C61.8623 83.2851 61.7453 83.3121 61.6493 83.3181C61.5593 83.3241 61.4303 83.3271 61.2623 83.3271H59.8853ZM60.7673 82.5711H61.1723C61.3883 82.5711 61.5413 82.5441 61.6313 82.4901C61.7633 82.3941 61.8293 82.2651 61.8293 82.1031C61.8293 81.9351 61.7663 81.8091 61.6403 81.7251C61.5443 81.6651 61.3913 81.6351 61.1813 81.6351H60.7673V82.5711ZM63.1073 83.3271V79.5381H63.9893V83.3271H63.1073ZM65.9881 82.8861V85.3881H65.106V79.5381H65.9881V79.9521C66.276 79.6101 66.6511 79.4391 67.1131 79.4391C67.6291 79.4391 68.0641 79.6221 68.418 79.9881C68.7781 80.3481 68.9581 80.8221 68.9581 81.4101C68.9581 82.0161 68.7721 82.5081 68.4001 82.8861C68.0281 83.2581 67.6021 83.4441 67.1221 83.4441C66.6721 83.4441 66.2941 83.2581 65.9881 82.8861ZM67.005 80.2311C66.705 80.2311 66.45 80.3391 66.2401 80.5551C66.0361 80.7651 65.9341 81.0651 65.9341 81.4551C65.9341 81.8331 66.0361 82.1271 66.2401 82.3371C66.45 82.5471 66.705 82.6521 67.005 82.6521C67.3171 82.6521 67.5691 82.5351 67.7611 82.3011C67.9591 82.0671 68.0581 81.7821 68.0581 81.4461C68.0581 81.1041 67.9591 80.8161 67.7611 80.5821C67.5691 80.3481 67.3171 80.2311 67.005 80.2311ZM69.8785 83.3271V79.5381H70.7605V80.8791H71.2645C71.4265 80.8791 71.5585 80.8851 71.6605 80.8971C71.7625 80.9031 71.8855 80.9361 72.0295 80.9961C72.1735 81.0561 72.2995 81.1461 72.4075 81.2661C72.6055 81.4881 72.7045 81.7641 72.7045 82.0941C72.7045 82.4721 72.5905 82.7751 72.3625 83.0031C72.2605 83.1051 72.1375 83.1831 71.9935 83.2371C71.8555 83.2851 71.7385 83.3121 71.6425 83.3181C71.5525 83.3241 71.4235 83.3271 71.2555 83.3271H69.8785ZM70.7605 82.5711H71.1655C71.3815 82.5711 71.5345 82.5441 71.6245 82.4901C71.7565 82.3941 71.8225 82.2651 71.8225 82.1031C71.8225 81.9351 71.7595 81.8091 71.6335 81.7251C71.5375 81.6651 71.3845 81.6351 71.1745 81.6351H70.7605V82.5711ZM76.137 82.0491L76.875 82.4631C76.707 82.7631 76.494 82.9941 76.236 83.1561C75.942 83.3481 75.57 83.4441 75.12 83.4441C74.592 83.4441 74.166 83.2821 73.842 82.9581C73.47 82.5861 73.284 82.1031 73.284 81.5091C73.284 80.8851 73.485 80.3661 73.887 79.9521C74.229 79.6101 74.652 79.4391 75.156 79.4391C75.648 79.4391 76.053 79.6041 76.371 79.9341C76.725 80.3001 76.902 80.8341 76.902 81.5361V81.6441H74.184C74.208 81.9621 74.316 82.2171 74.508 82.4091C74.67 82.5711 74.895 82.6521 75.183 82.6521C75.417 82.6521 75.618 82.5891 75.786 82.4631C75.924 82.3551 76.041 82.2171 76.137 82.0491ZM74.247 80.9241H76.002C75.966 80.7141 75.876 80.5431 75.732 80.4111C75.576 80.2671 75.378 80.1951 75.138 80.1951C74.886 80.1951 74.679 80.2761 74.517 80.4381C74.385 80.5581 74.295 80.7201 74.247 80.9241ZM74.004 78.6021C73.896 78.4941 73.842 78.3621 73.842 78.2061C73.842 78.0501 73.896 77.9181 74.004 77.8101C74.112 77.7021 74.244 77.6481 74.4 77.6481C74.556 77.6481 74.688 77.7021 74.796 77.8101C74.904 77.9181 74.958 78.0501 74.958 78.2061C74.958 78.3621 74.904 78.4941 74.796 78.6021C74.688 78.7101 74.556 78.7641 74.4 78.7641C74.244 78.7641 74.112 78.7101 74.004 78.6021ZM75.624 78.6021C75.516 78.4941 75.462 78.3621 75.462 78.2061C75.462 78.0501 75.516 77.9181 75.624 77.8101C75.732 77.7021 75.864 77.6481 76.02 77.6481C76.176 77.6481 76.308 77.7021 76.416 77.8101C76.524 77.9181 76.578 78.0501 76.578 78.2061C76.578 78.3621 76.524 78.4941 76.416 78.6021C76.308 78.7101 76.176 78.7641 76.02 78.7641C75.864 78.7641 75.732 78.7101 75.624 78.6021Z" fill="#4B4242"/>
<defs>
<filter id="filter0_d" x="0.0489502" y="0" width="129.235" height="129.138" filterUnits="userSpaceOnUse" color-interpolation-filters="sRGB">
<feFlood flood-opacity="0" result="BackgroundImageFix"/>
<feColorMatrix in="SourceAlpha" type="matrix" values="0 0 0 0 0 0 0 0 0 0 0 0 0 0 0 0 0 0 127 0"/>
<feOffset/>
<feGaussianBlur stdDeviation="8"/>
<feColorMatrix type="matrix" values="0 0 0 0 0 0 0 0 0 0 0 0 0 0 0 0 0 0 0.14 0"/>
<feBlend mode="normal" in2="BackgroundImageFix" result="effect1_dropShadow"/>
<feBlend mode="normal" in="SourceGraphic" in2="effect1_dropShadow" result="shape"/>
</filter>
</defs>
</svg>
