<svg width="24" height="25" viewBox="0 0 24 25" fill="none" xmlns="http://www.w3.org/2000/svg">
<path fill-rule="evenodd" clip-rule="evenodd" d="M16.9395 3.03198C18.2805 3.03198 19.5705 3.56764 20.5195 4.5288C21.4695 5.48794 22.0005 6.78161 22.0005 8.13592V16.1203C22.0005 18.9401 19.7305 21.2242 16.9395 21.2242H7.06049C4.26949 21.2242 2.00049 18.9401 2.00049 16.1203V8.13592C2.00049 5.31612 4.25949 3.03198 7.06049 3.03198H16.9395ZM18.5305 9.64184L18.6105 9.56098C18.8495 9.26789 18.8495 8.8434 18.5995 8.5503C18.4605 8.39971 18.2695 8.30774 18.0705 8.28753C17.8605 8.27641 17.6605 8.34817 17.5095 8.48966L13.0005 12.1281C12.4205 12.6143 11.5895 12.6143 11.0005 12.1281L6.50049 8.48966C6.18949 8.25721 5.75949 8.28753 5.50049 8.56041C5.23049 8.83329 5.20049 9.26789 5.42949 9.57109L5.56049 9.70248L10.1105 13.2904C10.6705 13.7351 11.3495 13.9777 12.0605 13.9777C12.7695 13.9777 13.4605 13.7351 14.0195 13.2904L18.5305 9.64184Z" fill="#F8981D"/>
</svg>
