<svg width="24" height="25" viewBox="0 0 24 25" fill="none" xmlns="http://www.w3.org/2000/svg">
<path fill-rule="evenodd" clip-rule="evenodd" d="M16.9395 3.03223C18.2805 3.03223 19.5705 3.56789 20.5195 4.52904C21.4695 5.48818 22.0005 6.78185 22.0005 8.13616V16.1205C22.0005 18.9403 19.7305 21.2245 16.9395 21.2245H7.06049C4.26949 21.2245 2.00049 18.9403 2.00049 16.1205V8.13616C2.00049 5.31637 4.25949 3.03223 7.06049 3.03223H16.9395ZM18.5305 9.64208L18.6105 9.56123C18.8495 9.26813 18.8495 8.84365 18.5995 8.55055C18.4605 8.39996 18.2695 8.30798 18.0705 8.28777C17.8605 8.27665 17.6605 8.34841 17.5095 8.48991L13.0005 12.1284C12.4205 12.6145 11.5895 12.6145 11.0005 12.1284L6.50049 8.48991C6.18949 8.25745 5.75949 8.28777 5.50049 8.56065C5.23049 8.83354 5.20049 9.26813 5.42949 9.57134L5.56049 9.70272L10.1105 13.2906C10.6705 13.7353 11.3495 13.9779 12.0605 13.9779C12.7695 13.9779 13.4605 13.7353 14.0195 13.2906L18.5305 9.64208Z" fill="#4B4242"/>
</svg>
