<svg width="30" height="30" viewBox="0 0 30 30" fill="none" xmlns="http://www.w3.org/2000/svg">
<circle cx="15" cy="15" r="14.5" stroke="url(#paint0_linear)"/>
<path fill-rule="evenodd" clip-rule="evenodd" d="M18.7046 8.25C19.7104 8.25 20.6779 8.6475 21.3896 9.36075C22.1021 10.0725 22.5004 11.0325 22.5004 12.0375V17.9625C22.5004 20.055 20.7979 21.75 18.7046 21.75H11.2954C9.20212 21.75 7.50037 20.055 7.50037 17.9625V12.0375C7.50037 9.945 9.19462 8.25 11.2954 8.25H18.7046ZM19.8979 13.1549L19.9579 13.0949C20.1371 12.8774 20.1371 12.5624 19.9496 12.3449C19.8454 12.2332 19.7021 12.1649 19.5529 12.1499C19.3954 12.1417 19.2454 12.1949 19.1321 12.2999L15.7504 14.9999C15.3154 15.3607 14.6921 15.3607 14.2504 14.9999L10.8754 12.2999C10.6421 12.1274 10.3196 12.1499 10.1254 12.3524C9.92285 12.5549 9.90035 12.8774 10.0721 13.1024L10.1704 13.1999L13.5829 15.8624C14.0029 16.1924 14.5121 16.3724 15.0454 16.3724C15.5771 16.3724 16.0954 16.1924 16.5146 15.8624L19.8979 13.1549Z" fill="url(#paint1_linear)"/>
<defs>
<linearGradient id="paint0_linear" x1="15" y1="0" x2="15" y2="30" gradientUnits="userSpaceOnUse">
<stop stop-color="#F8BB1D"/>
<stop offset="1" stop-color="#F8981D"/>
</linearGradient>
<linearGradient id="paint1_linear" x1="15.0004" y1="8.25" x2="15.0004" y2="21.75" gradientUnits="userSpaceOnUse">
<stop stop-color="#F8BB1D"/>
<stop offset="1" stop-color="#F8981D"/>
</linearGradient>
</defs>
</svg>
