<svg width="24" height="25" viewBox="0 0 24 25" fill="none" xmlns="http://www.w3.org/2000/svg">
<path fill-rule="evenodd" clip-rule="evenodd" d="M16.9394 3.03223C18.2804 3.03223 19.5704 3.56789 20.5194 4.52904C21.4694 5.48818 22.0004 6.78185 22.0004 8.13616V16.1205C22.0004 18.9403 19.7304 21.2245 16.9394 21.2245H7.06043C4.26943 21.2245 2.00043 18.9403 2.00043 16.1205V8.13616C2.00043 5.31637 4.25943 3.03223 7.06043 3.03223H16.9394ZM18.5304 9.64208L18.6104 9.56123C18.8494 9.26813 18.8494 8.84365 18.5994 8.55055C18.4604 8.39996 18.2694 8.30798 18.0704 8.28777C17.8604 8.27665 17.6604 8.34841 17.5094 8.48991L13.0004 12.1284C12.4204 12.6145 11.5894 12.6145 11.0004 12.1284L6.50043 8.48991C6.18943 8.25745 5.75943 8.28777 5.50043 8.56065C5.23043 8.83354 5.20043 9.26813 5.42943 9.57134L5.56043 9.70272L10.1104 13.2906C10.6704 13.7353 11.3494 13.9779 12.0604 13.9779C12.7694 13.9779 13.4604 13.7353 14.0194 13.2906L18.5304 9.64208Z" fill="white"/>
</svg>
