<svg width="52" height="52" viewBox="0 0 52 52" fill="none" xmlns="http://www.w3.org/2000/svg">
<path d="M50.0138 27.6073L47.8839 26.925C47.6111 26.8375 47.3961 26.6198 47.3088 26.3424C46.8599 24.9152 46.1825 23.5753 45.2953 22.3598C44.891 21.8057 44.4414 21.2767 43.9503 20.773C44.2645 19.3945 44.4353 17.8344 44.4132 16.4866C44.3815 14.5584 43.9962 13.4275 43.2353 13.029C42.8255 12.8141 41.5783 12.1613 34.8277 15.2514C34.6679 15.3245 34.5186 15.4146 34.3803 15.5178C33.9252 15.3955 33.4601 15.2824 32.9921 15.1808C32.9357 15.1685 32.8776 15.1577 32.8208 15.1457C33.3679 13.9507 33.6873 12.6528 33.7473 11.313C33.766 10.8954 33.4427 10.5417 33.0251 10.5232C32.6086 10.5024 32.2538 10.8276 32.2352 11.2453C32.1366 13.4483 31.2228 15.521 29.6621 17.0818C28.7297 18.0142 27.6379 18.6915 26.4743 19.1181C24.4564 18.8349 22.4009 18.8349 20.383 19.1181C19.2193 18.6915 18.1276 18.0142 17.1951 17.0818C15.5301 15.4167 14.6131 13.203 14.6131 10.8483C14.6131 8.49343 15.5301 6.27977 17.1951 4.61475C18.8602 2.94964 21.074 2.03263 23.4286 2.03263C25.7833 2.03263 27.9971 2.94964 29.6621 4.61475C30.3312 5.28385 30.8841 6.0474 31.3055 6.88397C31.4935 7.25731 31.9486 7.40762 32.3219 7.21953C32.6952 7.03164 32.8454 6.57654 32.6574 6.20329C32.1635 5.2223 31.5159 4.32784 30.7325 3.54439C28.7816 1.59347 26.1877 0.519043 23.4287 0.519043C20.6698 0.519043 18.0759 1.59347 16.125 3.54439C14.1741 5.4954 13.0996 8.08921 13.0996 10.8482C13.0996 13.6071 14.1741 16.201 16.125 18.1519C16.6877 18.7147 17.3 19.1986 17.9475 19.6041C17.9477 19.6041 17.9479 19.604 17.9481 19.604C17.4776 19.7262 17.0106 19.8636 16.5488 20.0179C16.1524 20.1505 15.9385 20.5792 16.071 20.9757C16.2035 21.3721 16.6324 21.5859 17.0287 21.4535C21.1558 20.0738 25.7017 20.0738 29.8288 21.4535C29.9084 21.4801 29.9893 21.4927 30.0688 21.4927C30.3854 21.4927 30.6805 21.2924 30.7864 20.9757C30.919 20.5793 30.7051 20.1505 30.3087 20.0179C29.8469 19.8636 29.3799 19.7261 28.9094 19.604C28.9096 19.604 28.9098 19.6041 28.91 19.6041C29.5576 19.1986 30.1697 18.7147 30.7325 18.1519C31.2304 17.6541 31.6698 17.1104 32.0514 16.5326C32.26 16.5731 32.4671 16.6156 32.6711 16.6599C32.9429 16.7189 33.2135 16.7822 33.4816 16.8488C33.4732 16.8817 33.4645 16.9145 33.4575 16.9479C33.0885 18.6993 33.1124 20.2484 33.5287 21.5517C33.9029 22.7232 34.5782 23.6723 35.5356 24.3728C36.6641 25.1983 38.0264 25.5549 39.2605 25.5549C40.1893 25.5549 41.0456 25.3528 41.6744 24.9966C42.3858 24.5937 42.9818 23.7448 43.4535 22.4702C43.6716 22.7247 43.8783 22.9854 44.073 23.2523C44.8629 24.3343 45.4659 25.5269 45.8652 26.7966C46.0997 27.5424 46.6819 28.1292 47.4224 28.3666L49.5523 29.0489C50.1112 29.2279 50.4867 29.7423 50.4867 30.3292V33.861C50.4867 34.4478 50.1112 34.9622 49.5523 35.1413L46.1206 36.2405C45.5716 36.4165 45.107 36.7938 44.8123 37.3031C43.4641 39.6331 41.3444 41.5613 38.5117 43.034C38.1845 43.2043 37.9578 43.5089 37.8895 43.8699L36.7904 49.6897C36.76 49.8501 36.6196 49.9664 36.4564 49.9664H32.8827C32.7195 49.9664 32.579 49.85 32.5486 49.6897L31.9399 46.4733C31.82 45.8405 31.2265 45.4201 30.5877 45.5169C29.0483 45.7497 27.4621 45.8676 25.8734 45.8676C24.6914 45.8676 23.5245 45.8017 22.405 45.6716C21.786 45.6004 21.2093 46.0224 21.0936 46.6336L20.5151 49.6897C20.4847 49.8501 20.3443 49.9664 20.1811 49.9664H16.6074C16.4442 49.9664 16.3037 49.85 16.273 49.6873L15.2147 44.1905C15.1465 43.8364 14.9241 43.5352 14.6041 43.3643C9.77539 40.7865 7.22313 36.4799 7.22313 30.9102C7.22313 28.0961 7.8388 25.6077 9.05298 23.5139C10.186 21.5599 11.8409 19.9444 13.9715 18.7119C14.3333 18.5026 14.4569 18.0397 14.2477 17.6778C14.0385 17.3161 13.5756 17.1927 13.2137 17.4017C9.08223 19.7916 6.59039 23.4788 5.90434 28.1618V28.1617C5.83152 28.1551 5.75859 28.1488 5.68598 28.1413C5.69918 27.636 5.60777 27.1262 5.40871 26.6314C4.96966 25.54 4.06778 24.7523 3.11096 24.6246C2.35696 24.5236 1.63942 24.8438 1.14146 25.5017C0.419453 26.4558 0.537164 27.2108 0.762937 27.6761C1.1441 28.4615 2.12388 29.0171 3.74979 29.3663C3.7051 29.4333 3.65595 29.5005 3.60212 29.5681C2.64144 30.7729 1.50962 31.0393 0.774719 31.0644C0.3445 31.0789 0 31.4243 0 31.8548V31.8585C0 32.2831 0.335055 32.6295 0.759281 32.6488C0.813617 32.6514 0.870391 32.6527 0.9295 32.6527C1.85941 32.6527 3.35187 32.3097 4.78573 30.5118C5.01211 30.228 5.19655 29.9286 5.33833 29.6192C5.48112 29.6354 5.61834 29.6492 5.74976 29.6614C5.74976 29.6611 5.74976 29.6609 5.74986 29.6606C5.72406 30.0707 5.70974 30.4868 5.70974 30.9102C5.70974 34.0615 6.461 36.8712 7.94249 39.2617C9.30851 41.4656 11.2643 43.2702 13.7575 44.6272L14.7863 49.971C14.9517 50.8453 15.7176 51.4799 16.6074 51.4799H20.1811C21.0709 51.4799 21.8368 50.8453 22.0022 49.971L22.5252 47.2077C23.6116 47.3228 24.7363 47.3811 25.8732 47.3811C27.4333 47.3811 28.9914 47.2724 30.51 47.0579L31.0614 49.9712C31.2269 50.8455 31.9928 51.48 32.8825 51.48H36.4562C37.346 51.48 38.1118 50.8454 38.2774 49.9708L39.3475 44.3046C42.3709 42.7059 44.6497 40.6058 46.1222 38.061C46.2283 37.8776 46.3917 37.743 46.5823 37.682L50.0138 36.5828C51.2018 36.202 52 35.1083 52 33.8608V30.329C52 29.0816 51.2018 27.9878 50.0138 27.6073ZM42.786 18.6132C42.4948 21.1041 41.7134 23.2349 40.9284 23.6796C40.036 24.185 37.9758 24.2826 36.429 23.1511C34.8804 22.0183 34.365 19.9812 34.9383 17.2599C34.9383 17.2598 34.9383 17.2598 34.9383 17.2598C34.9959 16.9865 35.1901 16.75 35.4577 16.6276C39.2464 14.8933 41.4307 14.3261 42.2422 14.3261C42.3647 14.3261 42.4559 14.339 42.5166 14.3627C42.7604 14.6225 43.0801 16.0993 42.786 18.6132ZM2.12479 27.0153C2.04648 26.8538 2.23133 26.5699 2.34853 26.4149C2.53429 26.1696 2.70542 26.1194 2.83471 26.1194C2.86203 26.1194 2.88752 26.1216 2.91088 26.1248C3.25884 26.1712 3.74634 26.5541 4.00461 27.1961C4.06545 27.3472 4.14446 27.5975 4.16295 27.9097C3.11533 27.6927 2.30141 27.3798 2.12479 27.0153Z" fill="url(#paint0_linear)"/>
<defs>
<linearGradient id="paint0_linear" x1="26" y1="0.519043" x2="26" y2="51.48" gradientUnits="userSpaceOnUse">
<stop stop-color="#85CD43"/>
<stop offset="1" stop-color="#4CB854"/>
</linearGradient>
</defs>
</svg>
