<svg width="52" height="52" viewBox="0 0 52 52" fill="none" xmlns="http://www.w3.org/2000/svg">
<path d="M42.9104 27.4844C42.4925 27.4844 42.1537 27.8232 42.1537 28.2411C42.1537 28.771 41.7227 29.202 41.1928 29.202C40.6631 29.202 40.2319 28.771 40.2319 28.2411C40.2319 27.8231 39.8931 27.4844 39.4752 27.4844C39.0573 27.4844 38.7184 27.8232 38.7184 28.2411C38.7184 29.6055 39.8285 30.7155 41.1928 30.7155C42.5571 30.7155 43.6672 29.6054 43.6672 28.2411C43.6672 27.823 43.3284 27.4844 42.9104 27.4844Z" fill="url(#paint0_linear)"/>
<path d="M50.0138 28.0882L47.8839 27.4059C47.6111 27.3185 47.3961 27.1007 47.3088 26.8234C46.8599 25.3961 46.1825 24.0562 45.2953 22.8407C44.891 22.2867 44.4414 21.7576 43.9503 21.254C44.2645 19.8755 44.4353 18.3154 44.4132 16.9676C44.3815 15.0394 43.9962 13.9085 43.2353 13.51C42.8255 13.2951 41.5783 12.6422 34.8277 15.7324C34.6679 15.8055 34.5186 15.8956 34.3803 15.9987C33.9252 15.8765 33.4601 15.7633 32.9921 15.6618C32.9357 15.6495 32.8776 15.6386 32.8208 15.6266C33.3679 14.4316 33.6873 13.1338 33.7473 11.794C33.766 11.3763 33.4427 11.0227 33.0251 11.0041C32.6086 10.9834 32.2538 11.3086 32.2352 11.7262C32.1366 13.9292 31.2228 16.002 29.6621 17.5627C28.7297 18.4952 27.6379 19.1725 26.4743 19.599C24.4564 19.3159 22.4009 19.3159 20.383 19.599C19.2193 19.1725 18.1276 18.4952 17.1951 17.5627C15.5301 15.8977 14.6131 13.6839 14.6131 11.3292C14.6131 8.97438 15.5301 6.76073 17.1951 5.09571C18.8602 3.43059 21.074 2.51359 23.4286 2.51359C25.7833 2.51359 27.9971 3.43059 29.6621 5.09571C30.3312 5.7648 30.8841 6.52835 31.3055 7.36492C31.4935 7.73827 31.9486 7.88858 32.3219 7.70048C32.6952 7.51259 32.8454 7.05749 32.6574 6.68425C32.1635 5.70326 31.5159 4.8088 30.7325 4.02534C28.7816 2.07443 26.1877 1 23.4287 1C20.6698 1 18.0759 2.07443 16.125 4.02534C14.1741 5.97636 13.0996 8.57016 13.0996 11.3291C13.0996 14.0881 14.1741 16.682 16.125 18.6329C16.6877 19.1956 17.3 19.6796 17.9475 20.085C17.9477 20.085 17.9479 20.0849 17.9481 20.0849C17.4776 20.2072 17.0106 20.3445 16.5488 20.4989C16.1524 20.6314 15.9385 21.0601 16.071 21.4566C16.2035 21.853 16.6324 22.0669 17.0287 21.9345C21.1558 20.5547 25.7017 20.5547 29.8288 21.9345C29.9084 21.9611 29.9893 21.9737 30.0688 21.9737C30.3854 21.9737 30.6805 21.7734 30.7864 21.4566C30.919 21.0602 30.7051 20.6314 30.3087 20.4989C29.8469 20.3445 29.3799 20.2071 28.9094 20.0849C28.9096 20.0849 28.9098 20.085 28.91 20.085C29.5576 19.6796 30.1697 19.1956 30.7325 18.6329C31.2304 18.135 31.6698 17.5914 32.0514 17.0136C32.26 17.0541 32.4671 17.0965 32.6711 17.1408C32.9429 17.1998 33.2135 17.2632 33.4816 17.3297C33.4732 17.3626 33.4645 17.3954 33.4575 17.4289C33.0885 19.1803 33.1124 20.7293 33.5287 22.0327C33.9029 23.2042 34.5782 24.1533 35.5356 24.8538C36.6641 25.6793 38.0264 26.0359 39.2605 26.0359C40.1893 26.0359 41.0456 25.8338 41.6744 25.4776C42.3858 25.0747 42.9818 24.2257 43.4535 22.9511C43.6716 23.2056 43.8783 23.4663 44.073 23.7332C44.8629 24.8153 45.4659 26.0078 45.8652 27.2776C46.0997 28.0233 46.6819 28.6102 47.4224 28.8475L49.5523 29.5298C50.1112 29.7089 50.4867 30.2233 50.4867 30.8101V34.342C50.4867 34.9288 50.1112 35.4432 49.5523 35.6222L46.1206 36.7215C45.5716 36.8975 45.107 37.2748 44.8123 37.784C43.4641 40.1141 41.3444 42.0422 38.5117 43.515C38.1845 43.6853 37.9578 43.9899 37.8895 44.3508L36.7904 50.1707C36.76 50.331 36.6196 50.4473 36.4564 50.4473H32.8827C32.7195 50.4473 32.579 50.3309 32.5486 50.1707L31.9399 46.9543C31.82 46.3215 31.2265 45.9011 30.5877 45.9979C29.0483 46.2307 27.4621 46.3486 25.8734 46.3486C24.6914 46.3486 23.5245 46.2827 22.405 46.1526C21.786 46.0814 21.2093 46.5033 21.0936 47.1146L20.5151 50.1707C20.4847 50.331 20.3443 50.4473 20.1811 50.4473H16.6074C16.4442 50.4473 16.3037 50.3309 16.273 50.1682L15.2147 44.6715C15.1465 44.3173 14.9241 44.0162 14.6041 43.8453C9.77539 41.2675 7.22313 36.9608 7.22313 31.3912C7.22313 28.5771 7.8388 26.0887 9.05298 23.9949C10.186 22.0409 11.8409 20.4254 13.9715 19.1929C14.3333 18.9836 14.4569 18.5206 14.2477 18.1588C14.0385 17.797 13.5756 17.6736 13.2137 17.8826C9.08223 20.2726 6.59039 23.9597 5.90434 28.6428V28.6427C5.83152 28.6361 5.75859 28.6298 5.68598 28.6223C5.69918 28.117 5.60777 27.6071 5.40871 27.1123C4.96966 26.0209 4.06778 25.2332 3.11096 25.1056C2.35696 25.0046 1.63942 25.3247 1.14146 25.9826C0.419453 26.9367 0.537164 27.6917 0.762937 28.1571C1.1441 28.9425 2.12388 29.498 3.74979 29.8473C3.7051 29.9142 3.65595 29.9815 3.60212 30.049C2.64144 31.2538 1.50962 31.5202 0.774719 31.5453C0.3445 31.5599 0 31.9053 0 32.3358V32.3394C0 32.7641 0.335055 33.1104 0.759281 33.1298C0.813617 33.1323 0.870391 33.1337 0.9295 33.1337C1.85941 33.1337 3.35187 32.7907 4.78573 30.9927C5.01211 30.709 5.19655 30.4096 5.33833 30.1002C5.48112 30.1163 5.61834 30.1302 5.74976 30.1423C5.74976 30.142 5.74976 30.1418 5.74986 30.1415C5.72406 30.5516 5.70974 30.9677 5.70974 31.3912C5.70974 34.5424 6.461 37.3522 7.94249 39.7426C9.30851 41.9465 11.2643 43.7511 13.7575 45.1082L14.7863 50.452C14.9517 51.3263 15.7176 51.9608 16.6074 51.9608H20.1811C21.0709 51.9608 21.8368 51.3263 22.0022 50.452L22.5252 47.6887C23.6116 47.8038 24.7363 47.8621 25.8732 47.8621C27.4333 47.8621 28.9914 47.7534 30.51 47.5389L31.0614 50.4522C31.2269 51.3265 31.9928 51.9609 32.8825 51.9609H36.4562C37.346 51.9609 38.1118 51.3264 38.2774 50.4518L39.3475 44.7855C42.3709 43.1868 44.6497 41.0867 46.1222 38.542C46.2283 38.3585 46.3917 38.224 46.5823 38.1629L50.0138 37.0637C51.2018 36.683 52 35.5892 52 34.3418V30.8099C52 29.5625 51.2018 28.4688 50.0138 28.0882ZM42.786 19.0942C42.4948 21.5851 41.7134 23.7159 40.9284 24.1605C40.036 24.666 37.9758 24.7636 36.429 23.6321C34.8804 22.4993 34.365 20.4621 34.9383 17.7409C34.9383 17.7407 34.9383 17.7407 34.9383 17.7407C34.9959 17.4674 35.1901 17.231 35.4577 17.1085C39.2464 15.3742 41.4307 14.807 42.2422 14.807C42.3647 14.807 42.4559 14.8199 42.5166 14.8437C42.7604 15.1035 43.0801 16.5803 42.786 19.0942ZM2.12479 27.4962C2.04648 27.3348 2.23133 27.0509 2.34853 26.8959C2.53429 26.6505 2.70542 26.6003 2.83471 26.6003C2.86203 26.6003 2.88752 26.6026 2.91088 26.6057C3.25884 26.6521 3.74634 27.035 4.00461 27.677C4.06545 27.8281 4.14446 28.0785 4.16295 28.3907C3.11533 28.1737 2.30141 27.8607 2.12479 27.4962Z" fill="url(#paint1_linear)"/>
<path d="M24.1636 9.98152V7.27345C25.0974 7.34018 25.4444 7.76705 25.7645 7.76705C26.1648 7.76705 26.3515 7.26015 26.3515 7.00665C26.3515 6.35289 25.0707 6.07278 24.1636 6.04607V5.68573C24.1636 5.52566 23.9634 5.37891 23.7633 5.37891C23.5364 5.37891 23.3764 5.52566 23.3764 5.68573V6.07258C22.109 6.20603 20.8416 6.87309 20.8416 8.55405C20.8416 10.2617 22.1757 10.742 23.3764 11.1689V14.304C22.0155 14.1973 21.6554 13.2634 21.2151 13.2634C20.8816 13.2634 20.6015 13.7037 20.6015 14.0239C20.6015 14.6776 21.7221 15.5714 23.3764 15.5981V16.0117C23.3764 16.1718 23.5365 16.3185 23.7633 16.3185C23.9635 16.3185 24.1636 16.1718 24.1636 16.0117V15.5581C25.6044 15.3579 26.5916 14.4508 26.5916 12.8098C26.5916 10.9955 25.3242 10.4084 24.1636 9.98152ZM23.4564 9.72812C22.7493 9.46131 22.1757 9.1812 22.1757 8.42081C22.1757 7.72703 22.7093 7.3935 23.4564 7.30016V9.72812ZM24.0834 14.2773V11.4624C24.7371 11.7425 25.2574 12.1161 25.2574 12.9565C25.2574 13.7171 24.8038 14.144 24.0834 14.2773Z" fill="url(#paint2_linear)"/>
<defs>
<linearGradient id="paint0_linear" x1="41.1928" y1="27.4844" x2="41.1928" y2="30.7155" gradientUnits="userSpaceOnUse">
<stop stop-color="#85CD43"/>
<stop offset="1" stop-color="#4CB854"/>
</linearGradient>
<linearGradient id="paint1_linear" x1="26" y1="1" x2="26" y2="51.9609" gradientUnits="userSpaceOnUse">
<stop stop-color="#85CD43"/>
<stop offset="1" stop-color="#4CB854"/>
</linearGradient>
<linearGradient id="paint2_linear" x1="23.5965" y1="5.37891" x2="23.5965" y2="16.3185" gradientUnits="userSpaceOnUse">
<stop stop-color="#85CD43"/>
<stop offset="1" stop-color="#4CB854"/>
</linearGradient>
</defs>
</svg>
