<svg width="42" height="49" viewBox="0 0 42 49" fill="none" xmlns="http://www.w3.org/2000/svg">
<path d="M5.49994 32.4996L5.04753 32.7125L5.49994 32.4996ZM10.5438 0.963715C10.5239 0.688293 10.2844 0.481155 10.009 0.501067L5.52074 0.825496C5.24531 0.845404 5.03818 1.08482 5.05809 1.36024C5.07799 1.63567 5.31741 1.8428 5.59283 1.82289L9.58242 1.53451L9.87081 5.5241C9.89071 5.79952 10.1301 6.00666 10.4056 5.98675C10.681 5.96685 10.8881 5.72743 10.8682 5.45201L10.5438 0.963715ZM40.9999 46.9997C40.9614 46.5012 40.9615 46.5012 40.9615 46.5012C40.9615 46.5012 40.9615 46.5012 40.9615 46.5012C40.9615 46.5012 40.9615 46.5012 40.9615 46.5012C40.9615 46.5012 40.9614 46.5012 40.9612 46.5012C40.9609 46.5012 40.9604 46.5013 40.9596 46.5013C40.9581 46.5014 40.9556 46.5016 40.9523 46.5019C40.9456 46.5024 40.9353 46.5031 40.9215 46.5041C40.8939 46.506 40.8522 46.5088 40.797 46.5122C40.6866 46.5191 40.522 46.5285 40.3081 46.5383C39.8802 46.558 39.2549 46.5794 38.4692 46.5864L38.4781 47.5864C39.2772 47.5793 39.915 47.5574 40.354 47.5372C40.5736 47.5272 40.7435 47.5175 40.8591 47.5103C40.9169 47.5067 40.9611 47.5037 40.9912 47.5016C41.0062 47.5006 41.0177 47.4998 41.0256 47.4992C41.0295 47.4989 41.0326 47.4987 41.0347 47.4985C41.0358 47.4984 41.0366 47.4984 41.0372 47.4983C41.0375 47.4983 41.0378 47.4983 41.038 47.4983C41.0381 47.4982 41.0381 47.4982 41.0382 47.4982C41.0382 47.4982 41.0383 47.4982 41.0383 47.4982C41.0383 47.4982 41.0384 47.4982 40.9999 46.9997ZM33.4477 46.4297C31.9149 46.3221 30.2253 46.1484 28.4537 45.8758L28.3016 46.8642C30.1042 47.1415 31.8215 47.318 33.3777 47.4273L33.4477 46.4297ZM23.5348 44.8783C21.9404 44.4694 20.3371 43.9666 18.7719 43.3497L18.4052 44.2801C20.0143 44.9143 21.6576 45.4293 23.2864 45.847L23.5348 44.8783ZM14.2938 41.1705C12.8708 40.3216 11.5313 39.3437 10.3185 38.218L9.63822 38.9509C10.9084 40.1299 12.3056 41.1489 13.7815 42.0293L14.2938 41.1705ZM7.14824 34.4484C6.71032 33.7667 6.31011 33.0469 5.95235 32.2867L5.04753 32.7125C5.42414 33.5128 5.84561 34.2709 6.3069 34.9889L7.14824 34.4484ZM5.95235 32.2867C5.54965 31.4309 5.20011 30.5821 4.89926 29.7418L3.95778 30.0788C4.26947 30.9494 4.63125 31.8279 5.04753 32.7125L5.95235 32.2867ZM3.58509 24.4237C3.32036 22.5275 3.27637 20.6954 3.39486 18.9481L2.39715 18.8804C2.27433 20.6917 2.31981 22.5931 2.59469 24.562L3.58509 24.4237ZM4.29505 13.5296C4.79817 11.6216 5.45331 9.88093 6.14843 8.34847L5.23774 7.93538C4.52281 9.5115 3.84744 11.3052 3.32811 13.2746L4.29505 13.5296ZM8.81353 3.52155C9.28434 2.80969 9.68952 2.25782 9.97573 1.88538C10.1188 1.69919 10.2321 1.55793 10.3089 1.46402C10.3473 1.41707 10.3766 1.38196 10.3959 1.35901C10.4056 1.34753 10.4128 1.33909 10.4174 1.33373C10.4196 1.33105 10.4213 1.32914 10.4223 1.32799C10.4228 1.32743 10.4231 1.32705 10.4232 1.32687C10.4233 1.32678 10.4233 1.32674 10.4233 1.32674C10.4233 1.32675 10.4233 1.32676 10.4233 1.32679C10.4233 1.3268 10.4233 1.32683 10.4233 1.32684C10.4232 1.32687 10.4232 1.32691 10.0451 0.999764C9.66695 0.67262 9.66691 0.672662 9.66688 0.672707C9.66686 0.672725 9.66682 0.672777 9.66679 0.672812C9.66672 0.67289 9.66664 0.672977 9.66655 0.673078C9.66638 0.673279 9.66616 0.673531 9.66591 0.673831C9.66539 0.674427 9.66471 0.675224 9.66385 0.676214C9.66216 0.678193 9.65979 0.680954 9.65677 0.684488C9.65074 0.691557 9.6421 0.70173 9.63095 0.714966C9.60866 0.741435 9.57637 0.780166 9.53491 0.83085C9.45199 0.932214 9.33238 1.08142 9.18282 1.27605C8.88373 1.66524 8.46461 2.23636 7.97945 2.96991L8.81353 3.52155ZM5.49994 32.4996L4.59512 32.9254L4.59512 32.9254L5.49994 32.4996ZM11.0425 0.927668C11.0027 0.37682 10.5238 -0.03745 9.97298 0.0023663L0.996398 0.651227C0.445553 0.691045 0.0312799 1.16987 0.0710962 1.72072C0.110913 2.27157 0.589742 2.68584 1.14059 2.64602L9.11977 2.06926L9.69654 10.0484C9.73635 10.5993 10.2152 11.0136 10.766 10.9737C11.3169 10.9339 11.7312 10.4551 11.6913 9.90425L11.0425 0.927668ZM40.9999 46.9997C40.923 46.0027 40.923 46.0027 40.9231 46.0027C40.9231 46.0027 40.9231 46.0027 40.9232 46.0026C40.9232 46.0026 40.9232 46.0026 40.9233 46.0026C40.9233 46.0026 40.9233 46.0026 40.9232 46.0026C40.923 46.0027 40.9226 46.0027 40.922 46.0027C40.9208 46.0028 40.9187 46.003 40.9156 46.0032C40.9096 46.0037 40.8999 46.0044 40.8867 46.0053C40.8603 46.0071 40.8199 46.0098 40.766 46.0132C40.6581 46.0199 40.4963 46.0291 40.2852 46.0388C39.8629 46.0582 39.2437 46.0795 38.4648 46.0864L38.4825 48.0864C39.2884 48.0792 39.9323 48.0571 40.377 48.0367C40.5993 48.0265 40.7719 48.0167 40.8901 48.0093C40.9492 48.0057 40.9947 48.0026 41.026 48.0004C41.0417 47.9993 41.0538 47.9985 41.0623 47.9978C41.0665 47.9975 41.0698 47.9973 41.0723 47.9971C41.0735 47.997 41.0745 47.9969 41.0752 47.9969C41.0756 47.9968 41.0759 47.9968 41.0762 47.9968C41.0763 47.9968 41.0764 47.9968 41.0765 47.9968C41.0766 47.9968 41.0767 47.9967 41.0767 47.9967C41.0768 47.9967 41.0768 47.9967 40.9999 46.9997ZM33.4828 45.931C31.9617 45.8241 30.2858 45.6518 28.5297 45.3817L28.2256 47.3584C30.0436 47.6381 31.7748 47.8159 33.3427 47.926L33.4828 45.931ZM23.659 44.394C22.0817 43.9895 20.4986 43.4928 18.9552 42.8845L18.2219 44.7452C19.8528 45.3881 21.5163 45.9092 23.1622 46.3313L23.659 44.394ZM14.55 40.7411C13.1533 39.9079 11.8427 38.9506 10.6587 37.8515L9.29806 39.3174C10.5969 40.523 12.0231 41.5625 13.5254 42.4587L14.55 40.7411ZM7.56891 34.1781C7.14267 33.5147 6.75309 32.814 6.40476 32.0738L4.59512 32.9254C4.98115 33.7457 5.41326 34.523 5.88623 35.2592L7.56891 34.1781ZM6.40476 32.0738C6.00885 31.2324 5.66543 30.3984 5.37 29.5732L3.48704 30.2474C3.80415 31.1331 4.17205 32.0263 4.59512 32.9254L6.40476 32.0738ZM4.08029 24.3546C3.82063 22.4948 3.7774 20.6972 3.89371 18.9819L1.89829 18.8466C1.7733 20.6899 1.81954 22.6258 2.09949 24.6311L4.08029 24.3546ZM4.77853 13.657C5.27354 11.7799 5.91856 10.0656 6.60377 8.55501L4.78239 7.72884C4.05756 9.32678 3.37207 11.1469 2.84464 13.1471L4.77853 13.657ZM9.23058 3.79737C9.69421 3.09636 10.0924 2.55411 10.3722 2.19006C10.512 2.00808 10.6222 1.87078 10.6959 1.78061C10.7328 1.73552 10.7606 1.70223 10.7784 1.68103C10.7874 1.67043 10.7938 1.66286 10.7976 1.65835C10.7996 1.65609 10.8008 1.65461 10.8015 1.65389C10.8018 1.65353 10.8019 1.65336 10.8019 1.65339C10.8019 1.6534 10.8018 1.65347 10.8017 1.65358C10.8017 1.65363 10.8016 1.6537 10.8016 1.65378C10.8015 1.65382 10.8015 1.65388 10.8014 1.6539C10.8014 1.65398 10.8013 1.65405 10.0451 0.999764C9.28883 0.345476 9.28876 0.345557 9.28869 0.345641C9.28866 0.345674 9.28858 0.345761 9.28853 0.345824C9.28842 0.345953 9.2883 0.346094 9.28816 0.346246C9.2879 0.346553 9.28759 0.346906 9.28724 0.347311C9.28655 0.348118 9.28568 0.349123 9.28465 0.350324C9.28259 0.352722 9.27986 0.355904 9.27648 0.359865C9.26972 0.36779 9.26034 0.378829 9.24845 0.392944C9.22469 0.421173 9.19089 0.461716 9.1479 0.514265C9.06193 0.619355 8.93917 0.77254 8.78636 0.971377C8.48083 1.36895 8.05474 1.94969 7.56241 2.69409L9.23058 3.79737Z" fill="#FFE0B1"/>
</svg>
