<svg width="110" height="19" viewBox="0 0 110 19" fill="none" xmlns="http://www.w3.org/2000/svg">
<path d="M55 17.5L55 18L55 17.5ZM0.861909 3.94122C0.596513 4.01749 0.443185 4.29446 0.519448 4.55987L1.76225 8.88485C1.83851 9.15025 2.11548 9.30358 2.38088 9.22731C2.64629 9.15105 2.79961 8.87407 2.72335 8.60867L1.61865 4.76424L5.46307 3.65954C5.72847 3.58327 5.8818 3.3063 5.80554 3.04089C5.72927 2.77549 5.45229 2.62216 5.18689 2.69843L0.861909 3.94122ZM109 4.42179C108.787 3.96922 108.787 3.96922 108.787 3.96921C108.787 3.96922 108.787 3.96921 108.787 3.96921C108.787 3.96922 108.787 3.96922 108.787 3.96924C108.787 3.96926 108.787 3.96931 108.787 3.96938C108.787 3.96952 108.786 3.96974 108.786 3.97005C108.784 3.97067 108.782 3.97163 108.78 3.97292C108.774 3.97551 108.766 3.97945 108.754 3.9847C108.732 3.99521 108.698 4.01098 108.652 4.03181C108.562 4.07345 108.427 4.13528 108.249 4.21549C107.893 4.37591 107.366 4.60984 106.685 4.90286L107.08 5.82151C107.767 5.52608 108.299 5.28982 108.66 5.12715C108.84 5.04581 108.978 4.98288 109.071 4.94014C109.117 4.91878 109.152 4.90246 109.176 4.89142C109.188 4.8859 109.197 4.8817 109.203 4.87884C109.206 4.87742 109.208 4.87633 109.21 4.87558C109.211 4.8752 109.211 4.87491 109.212 4.87471C109.212 4.87461 109.212 4.87452 109.212 4.87447C109.212 4.87444 109.212 4.87441 109.212 4.87439C109.213 4.87438 109.213 4.87437 109.213 4.87437C109.213 4.87436 109.213 4.87435 109 4.42179ZM102.388 6.66704C101.099 7.174 99.6406 7.72857 98.0382 8.30916L98.3788 9.24935C99.9903 8.66548 101.457 8.10771 102.754 7.59769L102.388 6.66704ZM93.6395 9.83772C92.2335 10.3057 90.7547 10.7781 89.2142 11.2452L89.5044 12.2021C91.054 11.7323 92.5413 11.2571 93.9553 10.7866L93.6395 9.83772ZM84.7492 12.531C83.2867 12.9297 81.7838 13.3169 80.2481 13.6859L80.4817 14.6583C82.0278 14.2868 83.5406 13.897 85.0122 13.4958L84.7492 12.531ZM75.7139 14.6978C74.2125 15.0066 72.6887 15.2933 71.1491 15.552L71.3149 16.5382C72.8671 16.2773 74.4028 15.9884 75.9154 15.6773L75.7139 14.6978ZM66.5572 16.2304C65.0261 16.4245 63.4862 16.5864 61.9435 16.7108L62.0239 17.7076C63.5827 17.5819 65.1378 17.4183 66.683 17.2225L66.5572 16.2304ZM57.3157 16.9664C56.5427 16.9886 55.7705 17 55 17L55 18C55.7804 18 56.5621 17.9884 57.3444 17.966L57.3157 16.9664ZM55 17C54.2197 17 53.4438 16.9913 52.6726 16.9744L52.6507 17.9742C53.4291 17.9912 54.2123 18 55 18L55 17ZM48.0249 16.7728C46.4567 16.6714 44.9117 16.538 43.3926 16.3769L43.2871 17.3713C44.8194 17.5339 46.378 17.6684 47.9604 17.7707L48.0249 16.7728ZM38.7821 15.7943C37.2177 15.5652 35.686 15.309 34.1903 15.0308L34.0075 16.0139C35.5153 16.2944 37.0596 16.5527 38.6372 16.7838L38.7821 15.7943ZM29.6315 14.0938C28.076 13.7438 26.568 13.3736 25.1117 12.9896L24.8567 13.9565C26.3244 14.3435 27.8442 14.7167 29.412 15.0694L29.6315 14.0938ZM20.6383 11.7237C19.0814 11.2528 17.6003 10.7729 16.2019 10.2945L15.8782 11.2407C17.2875 11.7228 18.7799 12.2064 20.3488 12.6809L20.6383 11.7237ZM11.8342 8.71082C10.2331 8.09665 8.79099 7.50539 7.52367 6.96131L7.12917 7.8802C8.40784 8.42915 9.86204 9.02537 11.4761 9.64449L11.8342 8.71082ZM3.28497 5.02678C2.61552 4.70049 2.10309 4.43893 1.75888 4.25941C1.58678 4.16964 1.45673 4.1004 1.37014 4.05383C1.32685 4.03055 1.29442 4.01293 1.27303 4.00126C1.26234 3.99542 1.2544 3.99107 1.24925 3.98824C1.24667 3.98682 1.24479 3.98579 1.24361 3.98513C1.24302 3.98481 1.2426 3.98458 1.24236 3.98444C1.24224 3.98438 1.24217 3.98433 1.24213 3.98432C1.24211 3.98431 1.2421 3.9843 1.24211 3.98431C1.24211 3.98431 1.24213 3.98431 1.24213 3.98431C1.24214 3.98432 1.24216 3.98433 1 4.42178C0.757844 4.85922 0.757867 4.85924 0.75789 4.85925C0.757905 4.85926 0.757928 4.85927 0.757959 4.85929C0.758004 4.85931 0.758065 4.85935 0.758134 4.85939C0.758279 4.85946 0.758462 4.85957 0.758691 4.85969C0.759149 4.85995 0.75979 4.8603 0.760598 4.86074C0.762216 4.86164 0.764535 4.86291 0.767549 4.86457C0.773576 4.86789 0.782396 4.87272 0.793977 4.87904C0.81714 4.89168 0.851373 4.91027 0.896485 4.93454C0.986718 4.98307 1.12051 5.0543 1.29645 5.14606C1.64832 5.32958 2.16885 5.59525 2.84684 5.92569L3.28497 5.02678ZM55 17.5L55 18.5L55 17.5ZM0.723825 3.46067C0.193017 3.6132 -0.113631 4.16715 0.0388958 4.69795L2.52448 13.3479C2.67702 13.8787 3.23096 14.1854 3.76177 14.0328C4.29257 13.8803 4.59923 13.3264 4.4467 12.7956L2.23728 5.10671L9.92614 2.89729C10.4569 2.74477 10.7636 2.19081 10.6111 1.66001C10.4585 1.1292 9.90459 0.822551 9.37379 0.975079L0.723825 3.46067ZM109 4.42179C108.575 3.51666 108.575 3.51665 108.575 3.51664C108.575 3.51664 108.575 3.51663 108.575 3.51663C108.575 3.51662 108.575 3.51662 108.575 3.51663C108.575 3.51663 108.575 3.51667 108.575 3.51672C108.575 3.51682 108.574 3.51702 108.574 3.51729C108.572 3.51784 108.57 3.51874 108.568 3.51996C108.563 3.52242 108.554 3.52622 108.543 3.53134C108.521 3.54158 108.488 3.55709 108.443 3.57764C108.354 3.61874 108.22 3.68002 108.043 3.75967C107.69 3.91896 107.166 4.15172 106.487 4.44353L107.277 6.28083C107.967 5.98421 108.502 5.74677 108.865 5.58298C109.047 5.50108 109.186 5.43759 109.28 5.39431C109.327 5.37267 109.363 5.35608 109.387 5.34478C109.399 5.33912 109.408 5.33479 109.415 5.3318C109.418 5.33031 109.42 5.32915 109.422 5.32834C109.423 5.32793 109.424 5.32761 109.424 5.32737C109.424 5.32725 109.425 5.32715 109.425 5.32708C109.425 5.32704 109.425 5.32701 109.425 5.32698C109.425 5.32697 109.425 5.32695 109.425 5.32694C109.425 5.32693 109.425 5.32692 109 4.42179ZM102.205 6.20171C100.92 6.70715 99.4657 7.26012 97.8678 7.83907L98.5491 9.71945C100.165 9.13394 101.636 8.57457 102.937 8.06302L102.205 6.20171ZM93.4816 9.36331C92.0796 9.82992 90.6051 10.3009 89.0691 10.7667L89.6495 12.6806C91.2036 12.2094 92.6952 11.7329 94.1132 11.261L93.4816 9.36331ZM84.6177 12.0486C83.1598 12.446 81.6618 12.832 80.1313 13.1998L80.5985 15.1444C82.1498 14.7717 83.6675 14.3806 85.1437 13.9782L84.6177 12.0486ZM75.6132 14.2081C74.1173 14.5157 72.5995 14.8013 71.0663 15.059L71.3978 17.0313C72.9563 16.7693 74.498 16.4793 76.0161 16.1671L75.6132 14.2081ZM66.4944 15.7344C64.9703 15.9275 63.438 16.0887 61.9033 16.2125L62.0641 18.206C63.631 18.0796 65.1936 17.9152 66.7458 17.7185L66.4944 15.7344ZM57.3014 16.4666C56.533 16.4887 55.7656 16.5 55 16.5L55 18.5C55.7853 18.5 56.5718 18.4884 57.3587 18.4658L57.3014 16.4666ZM55 16.5C54.2234 16.5 53.4511 16.4914 52.6836 16.4745L52.6397 18.4741C53.4217 18.4912 54.2085 18.5 55 18.5L55 16.5ZM48.0572 16.2738C46.496 16.1729 44.9579 16.0401 43.4454 15.8796L43.2344 17.8685C44.7732 18.0318 46.3387 18.1669 47.9281 18.2696L48.0572 16.2738ZM38.8546 15.2996C37.2967 15.0714 35.7714 14.8163 34.2818 14.5392L33.916 16.5055C35.43 16.7871 36.9806 17.0465 38.5647 17.2785L38.8546 15.2996ZM29.7413 13.606C28.1919 13.2574 26.6898 12.8886 25.2392 12.5061L24.7293 14.44C26.2025 14.8285 27.7283 15.2031 29.3023 15.5572L29.7413 13.606ZM20.7831 11.2451C19.2321 10.776 17.7568 10.298 16.3638 9.82142L15.7163 11.7137C17.131 12.1977 18.6292 12.6831 20.2041 13.1595L20.7831 11.2451ZM12.0133 8.24399C10.4186 7.63229 8.98257 7.0435 7.72092 6.50186L6.93192 8.33965C8.21626 8.89103 9.67653 9.48973 11.297 10.1113L12.0133 8.24399ZM3.50403 4.57732C2.83885 4.25311 2.33048 3.9936 1.9901 3.81608C1.81991 3.72732 1.69174 3.65906 1.60697 3.61347C1.56459 3.59068 1.53306 3.57356 1.51256 3.56237C1.50231 3.55677 1.49482 3.55266 1.49011 3.55007C1.48775 3.54878 1.48609 3.54786 1.48512 3.54733C1.48464 3.54706 1.48433 3.54689 1.48419 3.54682C1.48413 3.54678 1.48411 3.54677 1.48412 3.54678C1.48414 3.54678 1.48415 3.5468 1.48419 3.54681C1.48421 3.54682 1.48424 3.54684 1.48425 3.54685C1.48428 3.54687 1.48432 3.54689 1 4.42178C0.515679 5.29667 0.515725 5.29669 0.515771 5.29672C0.515794 5.29673 0.51584 5.29676 0.515878 5.29678C0.515954 5.29682 0.516038 5.29687 0.516137 5.29692C0.516336 5.29703 0.516572 5.29716 0.516862 5.29732C0.517427 5.29763 0.518167 5.29804 0.51909 5.29855C0.520921 5.29956 0.523461 5.30096 0.526696 5.30274C0.533166 5.30629 0.54242 5.31137 0.554444 5.31793C0.5785 5.33106 0.613626 5.35014 0.659654 5.37489C0.75171 5.4244 0.887368 5.49662 1.06523 5.58939C1.42095 5.77491 1.94553 6.04262 2.62778 6.37515L3.50403 4.57732Z" fill="#FFE0B1"/>
</svg>
