<svg width="64" height="33" viewBox="0 0 64 33" fill="none" xmlns="http://www.w3.org/2000/svg">
<path d="M34.3123 23.2215L34.5383 23.6676L34.3123 23.2215ZM60.2479 0.509191C60.5191 0.457258 60.781 0.635017 60.833 0.906231L61.6793 5.32592C61.7313 5.59714 61.5535 5.8591 61.2823 5.91104C61.0111 5.96298 60.7491 5.78522 60.6972 5.514L59.9449 1.58539L56.0163 2.33771C55.745 2.38964 55.4831 2.21188 55.4311 1.94067C55.3792 1.66945 55.557 1.40749 55.8282 1.35555L60.2479 0.509191ZM0.999974 31.0709C0.985023 30.5711 0.985007 30.5711 0.984994 30.5711C0.984995 30.5711 0.984986 30.5711 0.984989 30.5711C0.984993 30.5711 0.985013 30.5711 0.98505 30.5711C0.985122 30.5711 0.98526 30.5711 0.985461 30.5711C0.985863 30.571 0.986522 30.571 0.987435 30.571C0.989262 30.5709 0.992109 30.5709 0.995965 30.5707C1.00368 30.5705 1.01543 30.5701 1.03115 30.5695C1.06259 30.5684 1.1099 30.5667 1.17246 30.5641C1.29758 30.559 1.48373 30.5506 1.72607 30.5378C2.21079 30.5121 2.92022 30.4685 3.81579 30.3969L3.89547 31.3938C2.99027 31.4661 2.27187 31.5103 1.77895 31.5364C1.53248 31.5494 1.34236 31.558 1.21342 31.5633C1.14894 31.5659 1.09976 31.5677 1.06648 31.5689C1.04984 31.5695 1.03717 31.5699 1.02856 31.5702C1.02425 31.5703 1.02095 31.5704 1.01867 31.5705C1.01754 31.5705 1.01665 31.5706 1.01603 31.5706C1.01572 31.5706 1.01547 31.5706 1.01528 31.5706C1.01519 31.5706 1.01512 31.5706 1.01506 31.5706C1.01503 31.5706 1.01499 31.5706 1.01498 31.5706C1.01495 31.5706 1.01492 31.5706 0.999974 31.0709ZM9.50066 29.7816C11.2197 29.5489 13.1242 29.2493 15.1428 28.8641L15.3302 29.8464C13.2918 30.2353 11.3694 30.5377 9.6348 30.7725L9.50066 29.7816ZM20.7197 27.6278C22.5247 27.1682 24.3641 26.6379 26.1966 26.0263L26.5132 26.9748C24.6549 27.5951 22.792 28.1321 20.9664 28.5969L20.7197 27.6278ZM31.515 23.9881C32.3853 23.6062 33.244 23.2024 34.0863 22.7755L34.5383 23.6676C33.6785 24.1033 32.803 24.5149 31.9168 24.9038L31.515 23.9881ZM34.0863 22.7755C34.9462 22.3398 35.7866 21.8898 36.6072 21.4282L37.0975 22.2997C36.2647 22.7682 35.4116 23.2251 34.5383 23.6676L34.0863 22.7755ZM41.4634 18.4233C43.101 17.3156 44.6375 16.1777 46.0698 15.0388L46.6922 15.8215C45.2412 16.9753 43.6841 18.1285 42.0238 19.2516L41.4634 18.4233ZM50.4107 11.3188C51.9441 9.90508 53.3011 8.54245 54.4754 7.29189L55.2044 7.97641C54.0151 9.2429 52.6411 10.6226 51.0885 12.054L50.4107 11.3188ZM58.2202 2.98463C58.7874 2.27505 59.216 1.70645 59.502 1.31637C59.645 1.12134 59.7523 0.970949 59.8235 0.869905C59.8591 0.819384 59.8857 0.781199 59.9031 0.75594C59.9119 0.743311 59.9183 0.733911 59.9225 0.727817C59.9246 0.724771 59.9261 0.72255 59.927 0.721163C59.9275 0.720471 59.9278 0.719988 59.928 0.719714C59.9281 0.719577 59.9282 0.719492 59.9282 0.719461C59.9282 0.719443 59.9282 0.719441 59.9282 0.71945C59.9282 0.719457 59.9282 0.719475 59.9282 0.719477C59.9282 0.719498 59.9282 0.719522 60.3419 1.00027C60.7556 1.28102 60.7556 1.28105 60.7556 1.28108C60.7556 1.2811 60.7556 1.28114 60.7555 1.28117C60.7555 1.28123 60.7554 1.28131 60.7554 1.2814C60.7553 1.28158 60.7551 1.28181 60.7549 1.28209C60.7545 1.28266 60.754 1.28344 60.7533 1.28443C60.752 1.28641 60.7501 1.28923 60.7476 1.29287C60.7426 1.30016 60.7353 1.31075 60.7257 1.3246C60.7066 1.35227 60.6783 1.3929 60.641 1.44591C60.5663 1.55191 60.4553 1.7074 60.3084 1.90766C60.0148 2.30817 59.5778 2.88784 59.0014 3.609L58.2202 2.98463ZM34.3123 23.2215L34.7643 24.1136L34.3123 23.2215ZM60.1538 0.0181161C60.6963 -0.0857582 61.2202 0.269763 61.3241 0.812191L63.0168 9.65157C63.1206 10.194 62.7651 10.7179 62.2227 10.8218C61.6803 10.9257 61.1563 10.5702 61.0525 10.0277L59.5478 2.1705L51.6906 3.67514C51.1482 3.77901 50.6242 3.42349 50.5204 2.88106C50.4165 2.33864 50.772 1.81471 51.3144 1.71083L60.1538 0.0181161ZM0.999974 31.0709C0.970073 30.0713 0.970036 30.0713 0.970002 30.0713C0.969996 30.0713 0.969966 30.0713 0.969955 30.0713C0.969931 30.0713 0.969924 30.0713 0.969933 30.0713C0.96995 30.0713 0.970032 30.0713 0.970177 30.0713C0.970468 30.0713 0.971014 30.0713 0.971816 30.0712C0.973419 30.0712 0.97604 30.0711 0.979671 30.071C0.986932 30.0708 0.99823 30.0704 1.01349 30.0698C1.04401 30.0688 1.09037 30.067 1.15198 30.0645C1.27519 30.0595 1.45935 30.0512 1.69964 30.0385C2.18025 30.013 2.88519 29.9697 3.77595 29.8985L3.9353 31.8922C3.02529 31.9649 2.30241 32.0094 1.80538 32.0357C1.55686 32.0488 1.36475 32.0575 1.23389 32.0628C1.16847 32.0655 1.11835 32.0674 1.08415 32.0686C1.06704 32.0692 1.05392 32.0696 1.04485 32.0699C1.04031 32.0701 1.03679 32.0702 1.03429 32.0703C1.03304 32.0703 1.03205 32.0703 1.03131 32.0704C1.03095 32.0704 1.03064 32.0704 1.0304 32.0704C1.03028 32.0704 1.03018 32.0704 1.03009 32.0704C1.03005 32.0704 1.02999 32.0704 1.02997 32.0704C1.02992 32.0704 1.02987 32.0704 0.999974 31.0709ZM9.43359 29.2861C11.1448 29.0544 13.0404 28.7562 15.0491 28.373L15.4239 30.3375C13.3757 30.7283 11.4443 31.0322 9.70187 31.268L9.43359 29.2861ZM20.5963 27.1433C22.391 26.6863 24.2186 26.1594 26.0383 25.552L26.6715 27.4491C24.8004 28.0737 22.9257 28.614 21.0898 29.0814L20.5963 27.1433ZM31.314 23.5303C32.1765 23.1518 33.0268 22.7519 33.8603 22.3295L34.7643 24.1136C33.8957 24.5537 33.0118 24.9693 32.1178 25.3617L31.314 23.5303ZM33.8603 22.3295C34.7136 21.8971 35.5476 21.4506 36.362 20.9924L37.3426 22.7355C36.5037 23.2074 35.6442 23.6677 34.7643 24.1136L33.8603 22.3295ZM41.1833 18.0092C42.8095 16.9091 44.3357 15.7789 45.7587 14.6474L47.0034 16.2129C45.5431 17.374 43.9756 18.5349 42.3039 19.6658L41.1833 18.0092ZM50.0717 10.9512C51.5955 9.54631 52.9441 8.19222 54.1109 6.94963L55.5689 8.31867C54.3722 9.59312 52.9896 10.9814 51.4274 12.4216L50.0717 10.9512ZM57.8297 2.67244C58.3922 1.96865 58.8166 1.40559 59.0987 1.02072C59.2398 0.828302 59.3453 0.680468 59.4148 0.581903C59.4495 0.532624 59.4752 0.495662 59.4919 0.471611C59.5002 0.459587 59.5062 0.450788 59.51 0.44529C59.5119 0.442541 59.5132 0.44062 59.5139 0.439532C59.5143 0.438985 59.5145 0.438648 59.5146 0.438524C59.5146 0.43846 59.5147 0.438448 59.5146 0.438491C59.5146 0.438511 59.5146 0.438546 59.5146 0.438592C59.5145 0.438618 59.5145 0.438663 59.5145 0.438675C59.5145 0.438722 59.5144 0.438777 60.3419 1.00027C61.1694 1.56176 61.1693 1.56183 61.1693 1.56189C61.1693 1.56191 61.1692 1.56198 61.1692 1.56203C61.1691 1.56212 61.1691 1.56224 61.169 1.56237C61.1688 1.56262 61.1686 1.56292 61.1684 1.56328C61.1679 1.564 61.1672 1.56493 61.1665 1.56606C61.1649 1.56834 61.1628 1.57145 61.1601 1.57539C61.1547 1.58328 61.147 1.59448 61.137 1.60892C61.117 1.63781 61.0879 1.67967 61.0497 1.73391C60.9732 1.8424 60.8604 2.00043 60.7117 2.20331C60.4142 2.60902 59.973 3.19424 59.3919 3.92119L57.8297 2.67244Z" fill="#4B4242"/>
</svg>
