<svg width="42" height="52" viewBox="0 0 42 52" fill="none" xmlns="http://www.w3.org/2000/svg">
<path d="M40.7052 50.3578H37.1473V11.7685C37.1473 10.1085 35.7967 8.75794 34.1368 8.75794H32.7683V7.38948C32.7683 5.72955 31.4178 4.37897 29.7578 4.37897H24.0105V1.91577C24.0105 0.859524 23.1511 0 22.0947 0H19.9052C18.8489 0 17.9895 0.859524 17.9895 1.91577V4.37897H12.2422C10.5822 4.37897 9.23164 5.72955 9.23164 7.38948V8.75794H7.86318C6.20325 8.75794 4.85267 10.1085 4.85267 11.7685V50.3578H1.29473C0.841155 50.3578 0.473701 50.7253 0.473701 51.1789C0.473701 51.6324 0.841155 51.9999 1.29473 51.9999H10.0423C10.0497 51.9999 10.0574 51.9999 10.0649 51.9999H25.379C25.8325 51.9999 26.2 51.6324 26.2 51.1789C26.2 50.7253 25.8325 50.3578 25.379 50.3578H10.976L12.2433 39.5856L15.8001 42.7867V44.6105C15.8001 45.6669 16.6596 46.5263 17.7159 46.5263H24.2843C25.3407 46.5263 26.2001 45.6668 26.2001 44.6105V42.7867L29.7569 39.5856L31.0242 50.3578H28.6633C28.2097 50.3578 27.8423 50.7253 27.8423 51.1789C27.8423 51.6324 28.2098 51.9999 28.6633 51.9999H31.9352C31.939 51.9999 31.9426 52 31.9465 52C31.9504 52 31.954 51.9999 31.9579 51.9999H40.7053C41.1589 51.9999 41.5264 51.6324 41.5264 51.1789C41.5263 50.7253 41.1588 50.3578 40.7052 50.3578ZM19.6315 1.91577C19.6315 1.76485 19.7542 1.64206 19.9052 1.64206H22.0947C22.2457 1.64206 22.3684 1.76475 22.3684 1.91577V4.37897H19.6316V1.91577H19.6315ZM9.32254 50.3578H6.49473V34.4118L10.7481 38.2399L9.32254 50.3578ZM35.5052 50.3578H32.6774L31.252 38.24L35.5052 34.4119V50.3578ZM35.5052 31.7472H16.3473V13.9579C16.3473 13.5044 15.9799 13.1369 15.5263 13.1369C15.0727 13.1369 14.7052 13.5045 14.7052 13.9579V31.7474H14.4315C13.978 31.7474 13.6105 32.1149 13.6105 32.5685C13.6105 33.022 13.978 33.3895 14.4315 33.3895H34.1867L25.0639 41.6H19.9052C19.4517 41.6 19.0842 41.9676 19.0842 42.421C19.0842 42.8745 19.4517 43.2421 19.9052 43.2421H24.5578V44.6105C24.5578 44.7614 24.4351 44.8842 24.2841 44.8842H17.7157C17.5647 44.8842 17.4419 44.7615 17.4419 44.6105V42.421C17.4419 42.1882 17.3432 41.9665 17.1703 41.8108L7.81322 33.3895H11.1472C11.6008 33.3895 11.9682 33.022 11.9682 32.5685C11.9682 32.1149 11.6008 31.7474 11.1472 31.7474H6.49453V11.7685C6.49453 11.0138 7.10837 10.4 7.86298 10.4H9.23143V28.1895C9.23143 28.6431 9.59889 29.0105 10.0525 29.0105C10.506 29.0105 10.8735 28.6431 10.8735 28.1895V10.4H14.4314C14.885 10.4 15.2525 10.0324 15.2525 9.57897C15.2525 9.12549 14.885 8.75794 14.4314 8.75794H10.8735V7.38948C10.8735 6.63488 11.4873 6.02103 12.242 6.02103H29.7577C30.5123 6.02103 31.1262 6.63488 31.1262 7.38948V8.75794H17.7158C17.2622 8.75794 16.8947 9.12549 16.8947 9.57897C16.8947 10.0324 17.2622 10.4 17.7158 10.4H34.1368C34.8914 10.4 35.5052 11.0138 35.5052 11.7685V31.7472Z" fill="url(#paint0_linear)"/>
<defs>
<linearGradient id="paint0_linear" x1="21" y1="0" x2="21" y2="52" gradientUnits="userSpaceOnUse">
<stop stop-color="#85CD43"/>
<stop offset="1" stop-color="#4CB854"/>
</linearGradient>
</defs>
</svg>
