<svg width="52" height="52" viewBox="0 0 52 52" fill="none" xmlns="http://www.w3.org/2000/svg">
<path d="M45.7052 50.3578H42.1473V11.7685C42.1473 10.1085 40.7967 8.75794 39.1368 8.75794H37.7683V7.38948C37.7683 5.72955 36.4178 4.37897 34.7578 4.37897H29.0105V1.91577C29.0105 0.859524 28.1511 0 27.0947 0H24.9052C23.8489 0 22.9895 0.859524 22.9895 1.91577V4.37897H17.2422C15.5822 4.37897 14.2316 5.72955 14.2316 7.38948V8.75794H12.8632C11.2032 8.75794 9.85267 10.1085 9.85267 11.7685V50.3578H6.29473C5.84115 50.3578 5.4737 50.7253 5.4737 51.1789C5.4737 51.6324 5.84115 51.9999 6.29473 51.9999H15.0423C15.0497 51.9999 15.0574 51.9999 15.0649 51.9999H30.379C30.8325 51.9999 31.2 51.6324 31.2 51.1789C31.2 50.7253 30.8325 50.3578 30.379 50.3578H15.976L17.2433 39.5856L20.8001 42.7867V44.6105C20.8001 45.6669 21.6596 46.5263 22.7159 46.5263H29.2843C30.3407 46.5263 31.2001 45.6668 31.2001 44.6105V42.7867L34.7569 39.5856L36.0242 50.3578H33.6633C33.2097 50.3578 32.8423 50.7253 32.8423 51.1789C32.8423 51.6324 33.2098 51.9999 33.6633 51.9999H36.9352C36.939 51.9999 36.9426 52 36.9465 52C36.9504 52 36.954 51.9999 36.9579 51.9999H45.7053C46.1589 51.9999 46.5264 51.6324 46.5264 51.1789C46.5263 50.7253 46.1588 50.3578 45.7052 50.3578ZM24.6315 1.91577C24.6315 1.76485 24.7542 1.64206 24.9052 1.64206H27.0947C27.2457 1.64206 27.3684 1.76475 27.3684 1.91577V4.37897H24.6316V1.91577H24.6315ZM14.3225 50.3578H11.4947V34.4118L15.7481 38.2399L14.3225 50.3578ZM40.5052 50.3578H37.6774L36.252 38.24L40.5052 34.4119V50.3578ZM40.5052 31.7472H21.3473V13.9579C21.3473 13.5044 20.9799 13.1369 20.5263 13.1369C20.0727 13.1369 19.7052 13.5045 19.7052 13.9579V31.7474H19.4315C18.978 31.7474 18.6105 32.1149 18.6105 32.5685C18.6105 33.022 18.978 33.3895 19.4315 33.3895H39.1867L30.0639 41.6H24.9052C24.4517 41.6 24.0842 41.9676 24.0842 42.421C24.0842 42.8745 24.4517 43.2421 24.9052 43.2421H29.5578V44.6105C29.5578 44.7614 29.4351 44.8842 29.2841 44.8842H22.7157C22.5647 44.8842 22.4419 44.7615 22.4419 44.6105V42.421C22.4419 42.1882 22.3432 41.9665 22.1703 41.8108L12.8132 33.3895H16.1472C16.6008 33.3895 16.9682 33.022 16.9682 32.5685C16.9682 32.1149 16.6008 31.7474 16.1472 31.7474H11.4945V11.7685C11.4945 11.0138 12.1084 10.4 12.863 10.4H14.2314V28.1895C14.2314 28.6431 14.5989 29.0105 15.0525 29.0105C15.506 29.0105 15.8735 28.6431 15.8735 28.1895V10.4H19.4314C19.885 10.4 20.2525 10.0324 20.2525 9.57897C20.2525 9.12549 19.885 8.75794 19.4314 8.75794H15.8735V7.38948C15.8735 6.63488 16.4873 6.02103 17.242 6.02103H34.7577C35.5123 6.02103 36.1262 6.63488 36.1262 7.38948V8.75794H22.7158C22.2622 8.75794 21.8947 9.12549 21.8947 9.57897C21.8947 10.0324 22.2622 10.4 22.7158 10.4H39.1368C39.8914 10.4 40.5052 11.0138 40.5052 11.7685V31.7472Z" fill="url(#paint0_linear)"/>
<defs>
<linearGradient id="paint0_linear" x1="26" y1="0" x2="26" y2="52" gradientUnits="userSpaceOnUse">
<stop stop-color="#85CD43"/>
<stop offset="1" stop-color="#4CB854"/>
</linearGradient>
</defs>
</svg>
