<svg width="44" height="44" viewBox="0 0 44 44" fill="none" xmlns="http://www.w3.org/2000/svg">
<circle cx="22" cy="22" r="21.5" stroke="url(#paint0_linear)"/>
<path d="M28.1666 24.3802C27.4949 24.2357 26.9635 24.5475 26.493 24.8199C26.0111 25.1006 25.0949 25.8438 24.5697 25.6536C21.8808 24.5465 19.3519 22.193 18.2571 19.4934C18.0642 18.957 18.804 18.0349 19.0826 17.5474C19.3529 17.0754 19.6583 16.539 19.519 15.8623C19.3932 15.2541 17.765 13.1824 17.1892 12.6158C16.8095 12.2416 16.4205 12.0358 16.0212 12.0025C14.52 11.938 12.8433 13.9412 12.5492 14.4204C11.8125 15.4423 11.8166 16.802 12.5616 18.4507C14.3569 22.8791 21.1472 29.5622 25.5922 31.4251C26.4125 31.8087 27.1626 32.001 27.8364 32.001C28.4957 32.001 29.0828 31.817 29.5874 31.4521C29.9681 31.2328 32.0534 29.4728 31.9987 27.9312C31.9657 27.5383 31.7604 27.1453 31.391 26.7649C30.8286 26.1838 28.7702 24.507 28.1666 24.3802Z" fill="url(#paint1_linear)"/>
<defs>
<linearGradient id="paint0_linear" x1="22" y1="0" x2="22" y2="44" gradientUnits="userSpaceOnUse">
<stop stop-color="#F8BB1D"/>
<stop offset="1" stop-color="#F8981D"/>
</linearGradient>
<linearGradient id="paint1_linear" x1="21.9998" y1="12.001" x2="21.9998" y2="32.001" gradientUnits="userSpaceOnUse">
<stop stop-color="#F8BB1D"/>
<stop offset="1" stop-color="#F8981D"/>
</linearGradient>
</defs>
</svg>
