<svg width="30" height="30" viewBox="0 0 30 30" fill="none" xmlns="http://www.w3.org/2000/svg">
<circle cx="15" cy="15" r="14.5" stroke="url(#paint0_linear)"/>
<path d="M19.625 16.7849C19.1212 16.6765 18.7227 16.9104 18.3698 17.1147C18.0084 17.3252 17.3212 17.8826 16.9273 17.74C14.9107 16.9096 13.014 15.1445 12.1929 13.1198C12.0482 12.7175 12.6031 12.0259 12.812 11.6603C13.0147 11.3063 13.2438 10.904 13.1393 10.3965C13.0449 9.94037 11.8238 8.38653 11.392 7.96162C11.1072 7.68095 10.8155 7.52658 10.516 7.50163C9.39003 7.45329 8.13252 8.95567 7.91197 9.31509C7.35944 10.0815 7.36253 11.1013 7.92125 12.3378C9.26776 15.6591 14.3605 20.6714 17.6942 22.0686C18.3094 22.3563 18.872 22.5005 19.3774 22.5005C19.8719 22.5005 20.3122 22.3625 20.6906 22.0888C20.9761 21.9243 22.5401 20.6044 22.4991 19.4482C22.4743 19.1535 22.3203 18.8588 22.0433 18.5734C21.6215 18.1376 20.0777 16.88 19.625 16.7849" fill="url(#paint1_linear)"/>
<defs>
<linearGradient id="paint0_linear" x1="15" y1="0" x2="15" y2="30" gradientUnits="userSpaceOnUse">
<stop stop-color="#F8BB1D"/>
<stop offset="1" stop-color="#F8981D"/>
</linearGradient>
<linearGradient id="paint1_linear" x1="14.9999" y1="7.50049" x2="14.9999" y2="22.5005" gradientUnits="userSpaceOnUse">
<stop stop-color="#F8BB1D"/>
<stop offset="1" stop-color="#F8981D"/>
</linearGradient>
</defs>
</svg>
