<svg width="24" height="24" viewBox="0 0 24 24" fill="none" xmlns="http://www.w3.org/2000/svg">
<path d="M20.9503 2.34153C20.3548 1.79413 17.9444 0.0414914 12.5712 0.0174827C12.5712 0.0174827 6.23768 -0.366658 3.15015 2.46638C1.43112 4.18541 0.826098 6.69673 0.763675 9.81787C0.701252 12.9342 0.619622 18.7779 6.25208 20.3625H6.25688L6.25208 22.7778C6.25208 22.7778 6.21847 23.7574 6.8619 23.9542C7.63979 24.1943 8.10076 23.4501 8.84503 22.6482C9.25318 22.2064 9.81498 21.563 10.2423 21.0684C14.0933 21.3901 17.056 20.6506 17.3922 20.5402C18.17 20.2857 22.5732 19.7239 23.2887 13.8802C24.0282 7.86835 22.9286 4.06056 20.9503 2.34153ZM21.6033 13.4576C20.9983 18.3362 17.4306 18.6435 16.7727 18.8548C16.4942 18.946 13.8917 19.5942 10.6169 19.3782C10.6169 19.3782 8.17758 22.3216 7.41891 23.0851C7.29886 23.2052 7.15961 23.2532 7.06838 23.2292C6.93873 23.1956 6.90032 23.0419 6.90512 22.8162C6.90512 22.4897 6.92433 18.7971 6.92433 18.7971C6.91952 18.7971 6.91952 18.7971 6.92433 18.7971C2.15618 17.4767 2.43469 12.502 2.4875 9.8995C2.54032 7.29694 3.0301 5.16016 4.48504 3.72444C7.09239 1.36197 12.4752 1.7125 12.4752 1.7125C17.0176 1.73171 19.1928 3.10021 19.697 3.55638C21.3728 4.9969 22.2275 8.43016 21.6033 13.4576Z" fill="#675DA9"/>
<path d="M14.7848 9.99074C14.6264 9.99074 14.4919 9.86589 14.4823 9.70263C14.4295 8.67026 13.9445 8.16607 12.9554 8.11325C12.7873 8.10365 12.6576 7.9596 12.6672 7.79154C12.6769 7.62347 12.8209 7.49383 12.989 7.50343C14.295 7.57546 15.0249 8.32453 15.0921 9.66902C15.1017 9.83708 14.9721 9.98114 14.804 9.98594C14.7944 9.99074 14.7896 9.99074 14.7848 9.99074Z" fill="#675DA9"/>
<path d="M16.3406 10.5094H16.3358C16.1677 10.5046 16.0333 10.3654 16.0381 10.1973C16.0621 9.16014 15.7644 8.31983 15.1305 7.62838C14.5015 6.93693 13.6324 6.56239 12.4848 6.48076C12.3167 6.46636 12.1919 6.3223 12.2063 6.15424C12.2207 5.98618 12.3647 5.86134 12.5328 5.87574C13.8293 5.97178 14.852 6.42314 15.5819 7.22023C16.3166 8.02213 16.6719 9.02569 16.6479 10.2117C16.6431 10.3798 16.5038 10.5094 16.3406 10.5094Z" fill="#675DA9"/>
<path d="M17.9347 11.1335C17.7667 11.1335 17.6322 10.9991 17.6322 10.831C17.6178 8.97273 17.0848 7.55621 15.9996 6.49502C14.9288 5.44824 13.57 4.91524 11.971 4.90084C11.8029 4.90084 11.6685 4.76159 11.6685 4.59353C11.6685 4.42546 11.8077 4.29102 11.971 4.29102C13.7332 4.30542 15.2314 4.89604 16.4174 6.05806C17.6082 7.22009 18.2181 8.82387 18.2373 10.8214C18.2421 10.9943 18.1076 11.1335 17.9347 11.1335C17.9396 11.1335 17.9396 11.1335 17.9347 11.1335Z" fill="#675DA9"/>
<path d="M13.0274 13.7504C13.0274 13.7504 13.4547 13.7889 13.6852 13.5056L14.1318 12.9438C14.3478 12.6653 14.8712 12.4876 15.3802 12.7709C15.6635 12.9293 16.1773 13.2463 16.4942 13.4815C16.8352 13.7312 17.5266 14.3075 17.5314 14.3123C17.8627 14.5908 17.9396 14.9989 17.7139 15.4359C17.7139 15.4359 17.7139 15.4407 17.7139 15.4455C17.4834 15.8536 17.1713 16.2378 16.7823 16.5931C16.7775 16.5931 16.7775 16.5979 16.7727 16.5979C16.451 16.8668 16.1341 17.0204 15.8268 17.0541C15.7884 17.0637 15.7452 17.0637 15.6875 17.0637C15.5531 17.0637 15.4186 17.0445 15.2842 17.0012L15.2746 16.9868C14.7944 16.8524 13.9973 16.5163 12.672 15.7816C11.8077 15.3062 11.0923 14.8212 10.4824 14.3363C10.1607 14.0818 9.83419 13.7985 9.49807 13.4623C9.48847 13.4527 9.47406 13.4383 9.46446 13.4287C9.45485 13.4191 9.44045 13.4047 9.43085 13.3951C9.42124 13.3855 9.40684 13.3711 9.39723 13.3615C9.38763 13.3519 9.37323 13.3375 9.36362 13.3279C9.0323 12.9918 8.7442 12.6653 8.4897 12.3435C8.00472 11.7385 7.51975 11.0182 7.04437 10.1539C6.3097 8.82385 5.97358 8.02675 5.83913 7.55138L5.82473 7.54178C5.78151 7.40733 5.7623 7.27288 5.7623 7.13843C5.7623 7.08081 5.7623 7.03759 5.77191 6.99918C5.81032 6.68706 5.96398 6.37495 6.22807 6.05323C6.22807 6.04843 6.23288 6.04843 6.23288 6.04363C6.58821 5.64988 6.97235 5.34257 7.3805 5.11209C7.3805 5.11209 7.3853 5.11209 7.3901 5.11209C7.82226 4.88641 8.23041 4.96323 8.51371 5.29455C8.51371 5.29455 9.09472 5.99081 9.34441 6.33173C9.5797 6.65345 9.89662 7.16244 10.0551 7.44574C10.3384 7.95473 10.1607 8.47812 9.88221 8.6942L9.32041 9.14076C9.0371 9.37125 9.07552 9.7986 9.07552 9.7986C9.07552 9.7986 9.90622 12.9582 13.0274 13.7504Z" fill="#675DA9"/>
</svg>
