<svg width="24" height="24" viewBox="0 0 24 24" fill="none" xmlns="http://www.w3.org/2000/svg">
<path d="M20.0007 4.03378C17.9162 1.90541 15.0347 0.75 12.092 0.75C5.83856 0.75 0.811308 5.7973 0.872616 11.9392C0.872616 13.8851 1.42439 15.7703 2.34401 17.473L0.75 23.25L6.69687 21.7297C8.35218 22.6419 10.1914 23.0676 12.0307 23.0676C18.2228 23.0676 23.25 18.0203 23.25 11.8784C23.25 8.89865 22.0852 6.10135 20.0007 4.03378ZM12.092 21.1824C10.4366 21.1824 8.78133 20.7568 7.37125 19.9054L7.00341 19.723L3.44755 20.6351L4.36717 17.1689L4.12193 16.8041C1.42439 12.4865 2.71185 6.77027 7.12602 4.09459C11.5402 1.41892 17.2418 2.69595 19.9394 7.07432C22.6369 11.4527 21.3495 17.1081 16.9353 19.7838C15.5252 20.6959 13.8086 21.1824 12.092 21.1824ZM17.4871 14.4324L16.8127 14.1284C16.8127 14.1284 15.8317 13.7027 15.2187 13.3986C15.1574 13.3986 15.096 13.3378 15.0347 13.3378C14.8508 13.3378 14.7282 13.3986 14.6056 13.4595C14.6056 13.4595 14.5443 13.5203 13.686 14.4932C13.6247 14.6149 13.502 14.6757 13.3794 14.6757H13.3181C13.2568 14.6757 13.1342 14.6149 13.0729 14.5541L12.7663 14.4324C12.092 14.1284 11.4789 13.7635 10.9884 13.277C10.8658 13.1554 10.6819 13.0338 10.5593 12.9122C10.1301 12.4865 9.70095 12 9.39441 11.4527L9.33311 11.3311C9.2718 11.2703 9.2718 11.2095 9.21049 11.0878C9.21049 10.9662 9.21049 10.8446 9.2718 10.7838C9.2718 10.7838 9.51703 10.4797 9.70095 10.2973C9.82357 10.1757 9.88488 9.99324 10.0075 9.87162C10.1301 9.68919 10.1914 9.44595 10.1301 9.26351C10.0688 8.95946 9.33311 7.31757 9.14918 6.9527C9.02657 6.77027 8.90395 6.70946 8.72003 6.64865H8.5361C8.41349 6.64865 8.22956 6.64865 8.04564 6.64865C7.92302 6.64865 7.80041 6.70946 7.67779 6.70946L7.61648 6.77027C7.49387 6.83108 7.37125 6.9527 7.24864 7.01351C7.12602 7.13514 7.06471 7.25676 6.9421 7.37838C6.51294 7.92568 6.26771 8.59459 6.26771 9.26351C6.26771 9.75 6.39033 10.2365 6.57425 10.6622L6.63556 10.8446C7.18733 12 7.92302 13.0338 8.90395 13.9459L9.14918 14.1892C9.33311 14.3716 9.51703 14.4932 9.63965 14.6757C10.9271 15.7703 12.3985 16.5608 14.0538 16.9865C14.2377 17.0473 14.483 17.0473 14.6669 17.1081C14.8508 17.1081 15.096 17.1081 15.28 17.1081C15.5865 17.1081 15.9544 16.9865 16.1996 16.8649C16.3835 16.7432 16.5061 16.7432 16.6287 16.6216L16.7514 16.5C16.874 16.3784 16.9966 16.3176 17.1192 16.1959C17.2418 16.0743 17.3644 15.9527 17.4257 15.8311C17.5484 15.5878 17.6097 15.2838 17.671 14.9797C17.671 14.8581 17.671 14.6757 17.671 14.5541C17.671 14.5541 17.6097 14.4932 17.4871 14.4324Z" fill="#0DC143"/>
</svg>
