<svg width="122" height="122" viewBox="0 0 122 122" fill="none" xmlns="http://www.w3.org/2000/svg">
<g filter="url(#filter0_d)">
<circle cx="61" cy="61" r="37" fill="white"/>
</g>
<g filter="url(#filter1_d)">
<circle cx="61" cy="61" r="27" fill="white"/>
<circle cx="61" cy="61" r="26.5" stroke="url(#paint0_linear)"/>
</g>
<path d="M65 59H67.5C67.6326 59 67.7598 58.9473 67.8536 58.8536C67.9473 58.7598 68 58.6326 68 58.5C68 58.3674 67.9473 58.2402 67.8536 58.1464C67.7598 58.0527 67.6326 58 67.5 58H65C64.8674 58 64.7402 58.0527 64.6464 58.1464C64.5527 58.2402 64.5 58.3674 64.5 58.5C64.5 58.6326 64.5527 58.7598 64.6464 58.8536C64.7402 58.9473 64.8674 59 65 59Z" fill="url(#paint1_linear)"/>
<path d="M75.5 58C75.3674 58 75.2402 58.0527 75.1464 58.1464C75.0527 58.2402 75 58.3674 75 58.5V75H49.5C49.0055 75 48.5222 74.8534 48.1111 74.5787C47.7 74.304 47.3795 73.9135 47.1903 73.4567C47.0011 72.9999 46.9516 72.4972 47.048 72.0123C47.1445 71.5273 47.3826 71.0819 47.7322 70.7322C48.0819 70.3826 48.5273 70.1445 49.0123 70.048C49.4972 69.9516 49.9999 70.0011 50.4567 70.1903C50.9135 70.3795 51.304 70.7 51.5787 71.1111C51.8534 71.5222 52 72.0055 52 72.5C52 72.6326 52.0527 72.7598 52.1464 72.8536C52.2402 72.9473 52.3674 73 52.5 73C52.6326 73 52.7598 72.9473 52.8536 72.8536C52.9473 72.7598 53 72.6326 53 72.5V59H54.5C54.6326 59 54.7598 58.9473 54.8536 58.8536C54.9473 58.7598 55 58.6326 55 58.5C55 58.3674 54.9473 58.2402 54.8536 58.1464C54.7598 58.0527 54.6326 58 54.5 58H53V56.5C53 55.5717 52.6313 54.6815 51.9749 54.0251C51.3185 53.3687 50.4283 53 49.5 53C48.5717 53 47.6815 53.3687 47.0251 54.0251C46.3687 54.6815 46 55.5717 46 56.5V72.5C46.0011 73.4279 46.3701 74.3176 47.0263 74.9737C47.6824 75.6299 48.5721 75.9989 49.5 76H75.5C75.6326 76 75.7598 75.9473 75.8536 75.8536C75.9473 75.7598 76 75.6326 76 75.5V58.5C76 58.3674 75.9473 58.2402 75.8536 58.1464C75.7598 58.0527 75.6326 58 75.5 58ZM47 56.5C47 55.837 47.2634 55.2011 47.7322 54.7322C48.2011 54.2634 48.837 54 49.5 54C50.163 54 50.7989 54.2634 51.2678 54.7322C51.7366 55.2011 52 55.837 52 56.5V70.05C51.6744 69.7168 51.2856 69.4521 50.8562 69.2714C50.4269 69.0907 49.9658 68.9976 49.5 68.9976C49.0342 68.9976 48.5731 69.0907 48.1438 69.2714C47.7144 69.4521 47.3256 69.7168 47 70.05V56.5Z" fill="url(#paint2_linear)"/>
<path d="M69.0355 64.186L69.8355 66.186L71.0355 69.186C71.0725 69.2789 71.1366 69.3586 71.2194 69.4148C71.3022 69.4709 71.4 69.501 71.5 69.501C71.6 69.501 71.6978 69.4709 71.7806 69.4148C71.8634 69.3586 71.9275 69.2789 71.9645 69.186L73.1645 66.186L73.9645 64.186C73.9846 64.1326 73.9952 64.0761 73.996 64.019C73.996 64.0125 74 64.007 74 64V55.5C74 55.3674 73.9473 55.2402 73.8536 55.1464C73.7598 55.0527 73.6326 55 73.5 55C73.3674 55 73.2402 55.0527 73.1464 55.1464C73.0527 55.2402 73 55.3674 73 55.5V63.5H72V52H73V53.5C73 53.6326 73.0527 53.7598 73.1464 53.8536C73.2402 53.9473 73.3674 54 73.5 54C73.6326 54 73.7598 53.9473 73.8536 53.8536C73.9473 53.7598 74 53.6326 74 53.5V48.5C74 47.837 73.7366 47.2011 73.2678 46.7322C72.7989 46.2634 72.163 46 71.5 46C70.837 46 70.2011 46.2634 69.7322 46.7322C69.2634 47.2011 69 47.837 69 48.5V64C69 64.007 69.0035 64.0125 69.004 64.0195C69.0048 64.0764 69.0155 64.1327 69.0355 64.186ZM71.0385 66.5H71.9615L71.5 67.654L71.0385 66.5ZM72.3615 65.5H70.6385L70.2385 64.5H72.7615L72.3615 65.5ZM71 63.5H70V52H71V63.5ZM70 51V50H73V51H70ZM70 48.5C70 48.1022 70.158 47.7206 70.4393 47.4393C70.7206 47.158 71.1022 47 71.5 47C71.8978 47 72.2794 47.158 72.5607 47.4393C72.842 47.7206 73 48.1022 73 48.5V49H70V48.5Z" fill="url(#paint3_linear)"/>
<path d="M57 55.8499V56.0904C56.7078 56.1922 56.4544 56.3824 56.2752 56.6347C56.0959 56.887 55.9996 57.1889 55.9996 57.4984C55.9996 57.8079 56.0959 58.1097 56.2752 58.362C56.4544 58.6143 56.7078 58.8045 57 58.9064V58.9999C57.001 59.6322 57.2015 60.2482 57.573 60.7599C57.9445 61.2717 58.4681 61.6531 59.069 61.8499C58.535 62.3866 57.8643 62.767 57.1295 62.9499L56.367 63.1409C55.7818 63.2855 55.2698 63.6395 54.9279 64.1361C54.586 64.6326 54.4378 65.2372 54.5114 65.8355C54.5851 66.4339 54.8754 66.9845 55.3275 67.3833C55.7796 67.7821 56.3622 68.0015 56.965 67.9999H58C58.1327 67.9999 58.2598 67.9472 58.3536 67.8534C58.4474 67.7597 58.5 67.6325 58.5 67.4999C58.5 67.3673 58.4474 67.2401 58.3536 67.1463C58.2598 67.0525 58.1327 66.9999 58 66.9999H56.965C56.6076 66.9995 56.2626 66.8685 55.995 66.6316C55.7273 66.3946 55.5555 66.068 55.5119 65.7132C55.4683 65.3584 55.5558 64.9999 55.7581 64.7052C55.9603 64.4105 56.2633 64.1998 56.61 64.1129L57.3725 63.9224C58.531 63.6318 59.5524 62.9476 60.262 61.9869C61.009 61.9208 61.7042 61.5776 62.2109 61.0249C62.7176 60.4721 62.9991 59.7497 63 58.9999V58.9079C63.2923 58.806 63.5457 58.6158 63.7249 58.3635C63.9042 58.1112 64.0005 57.8094 64.0005 57.4999C64.0005 57.1904 63.9042 56.8885 63.7249 56.6362C63.5457 56.3839 63.2923 56.1937 63 56.0919V55.8499C63.7763 55.1576 64.2878 54.2171 64.4471 53.1892C64.6065 52.1614 64.4037 51.1102 63.8735 50.2154C63.8061 50.1011 63.6961 50.0184 63.5676 49.9853C63.4391 49.9522 63.3028 49.9714 63.1885 50.0389C63.0743 50.1063 62.9915 50.2164 62.9584 50.3448C62.9253 50.4733 62.9446 50.6096 63.012 50.7239C63.4415 51.4478 63.5946 52.3026 63.4429 53.1306C63.2913 53.9585 62.8452 54.7037 62.187 55.2284C62.1287 55.2752 62.0816 55.3346 62.0492 55.4021C62.0168 55.4696 62 55.5435 62 55.6184V55.9999H61.5585L61.997 52.0549C62.0063 51.9715 61.9944 51.8871 61.9625 51.8095C61.9306 51.7319 61.8797 51.6636 61.8144 51.6109C61.7492 51.5582 61.6717 51.5227 61.5892 51.5077C61.5066 51.4928 61.4216 51.4989 61.342 51.5254L60 51.9729L58.658 51.5254C58.5785 51.4989 58.4935 51.4928 58.4109 51.5077C58.3284 51.5227 58.2509 51.5582 58.1857 51.6109C58.1204 51.6636 58.0695 51.7319 58.0376 51.8095C58.0057 51.8871 57.9938 51.9715 58.003 52.0549L58.4415 55.9999H58V55.6199C58.0001 55.545 57.9833 55.4711 57.9509 55.4036C57.9185 55.3361 57.8714 55.2767 57.813 55.2299C57.1205 54.6779 56.6631 53.8837 56.5334 53.0077C56.4036 52.1316 56.6112 51.239 57.114 50.51C57.6169 49.781 58.3777 49.27 59.2428 49.0802C60.1078 48.8904 61.0126 49.0359 61.7745 49.4874C61.8888 49.5548 62.0251 49.5741 62.1536 49.541C62.2821 49.5079 62.3921 49.4251 62.4595 49.3109C62.527 49.1966 62.5463 49.0603 62.5132 48.9318C62.4801 48.8034 62.3973 48.6933 62.283 48.6259C61.3218 48.06 60.1845 47.8715 59.0921 48.0971C57.9997 48.3227 57.0301 48.9462 56.3717 49.8466C55.7132 50.747 55.4129 51.8599 55.529 52.9693C55.6451 54.0787 56.1694 55.1054 57 55.8499ZM60 60.9999C59.4696 60.9999 58.9609 60.7892 58.5858 60.4141C58.2108 60.039 58 59.5303 58 58.9999H62C62 59.5303 61.7893 60.039 61.4143 60.4141C61.0392 60.7892 60.5305 60.9999 60 60.9999ZM59.0835 52.7214L59.842 52.9744C59.9446 53.0085 60.0555 53.0085 60.158 52.9744L60.9165 52.7214L60.5525 55.9999H59.45L59.0835 52.7214ZM59 56.9999H62.5C62.6327 56.9999 62.7598 57.0525 62.8536 57.1463C62.9474 57.2401 63 57.3673 63 57.4999C63 57.6325 62.9474 57.7597 62.8536 57.8534C62.7598 57.9472 62.6327 57.9999 62.5 57.9999H57.5C57.3674 57.9999 57.2403 57.9472 57.1465 57.8534C57.0527 57.7597 57 57.6325 57 57.4999C57 57.3673 57.0527 57.2401 57.1465 57.1463C57.2403 57.0525 57.3674 56.9999 57.5 56.9999H59Z" fill="url(#paint4_linear)"/>
<path d="M54 53C54.2761 53 54.5 52.7761 54.5 52.5C54.5 52.2239 54.2761 52 54 52C53.7239 52 53.5 52.2239 53.5 52.5C53.5 52.7761 53.7239 53 54 53Z" fill="url(#paint5_linear)"/>
<path d="M66 53C66.2761 53 66.5 52.7761 66.5 52.5C66.5 52.2239 66.2761 52 66 52C65.7239 52 65.5 52.2239 65.5 52.5C65.5 52.7761 65.7239 53 66 53Z" fill="url(#paint6_linear)"/>
<path d="M60 47C60.2761 47 60.5 46.7761 60.5 46.5C60.5 46.2239 60.2761 46 60 46C59.7239 46 59.5 46.2239 59.5 46.5C59.5 46.7761 59.7239 47 60 47Z" fill="url(#paint7_linear)"/>
<path d="M54.554 49.933C54.6396 49.9825 54.738 50.0054 54.8367 49.9989C54.9354 49.9925 55.0299 49.9569 55.1084 49.8967C55.1868 49.8365 55.2457 49.7544 55.2775 49.6607C55.3092 49.5671 55.3125 49.4661 55.287 49.3706C55.2614 49.2751 55.208 49.1893 55.1337 49.1241C55.0593 49.0589 54.9673 49.0172 54.8693 49.0043C54.7712 48.9914 54.6715 49.0078 54.5828 49.0516C54.4941 49.0953 54.4204 49.1644 54.371 49.25C54.3047 49.3648 54.2867 49.5013 54.321 49.6294C54.3553 49.7575 54.4391 49.8667 54.554 49.933Z" fill="url(#paint8_linear)"/>
<path d="M64.946 55.933C65.0316 55.9824 65.13 56.0054 65.2287 55.9989C65.3274 55.9925 65.4219 55.9569 65.5004 55.8967C65.5788 55.8365 65.6377 55.7544 65.6695 55.6607C65.7013 55.5671 65.7046 55.4661 65.679 55.3706C65.6534 55.2751 65.6 55.1893 65.5257 55.1241C65.4513 55.0589 65.3593 55.0172 65.2613 55.0043C65.1632 54.9914 65.0636 55.0078 64.9749 55.0516C64.8862 55.0953 64.8124 55.1644 64.763 55.25C64.6967 55.3648 64.6787 55.5013 64.7131 55.6294C64.7474 55.7575 64.8312 55.8667 64.946 55.933Z" fill="url(#paint9_linear)"/>
<path d="M63.1295 47.7872C63.3962 47.7157 63.5545 47.4416 63.4831 47.1748C63.4116 46.9081 63.1374 46.7498 62.8707 46.8213C62.604 46.8927 62.4457 47.1669 62.5171 47.4336C62.5886 47.7004 62.8628 47.8587 63.1295 47.7872Z" fill="url(#paint10_linear)"/>
<path d="M65.446 49.933C65.5317 49.8836 65.6007 49.8098 65.6445 49.7211C65.6882 49.6325 65.7047 49.5328 65.6918 49.4347C65.6789 49.3367 65.6372 49.2447 65.572 49.1703C65.5068 49.096 65.421 49.0426 65.3254 49.017C65.2299 48.9914 65.129 48.9947 65.0353 49.0265C64.9417 49.0583 64.8596 49.1172 64.7994 49.1956C64.7392 49.2741 64.7036 49.3686 64.6971 49.4673C64.6906 49.566 64.7136 49.6644 64.763 49.75C64.8293 49.8648 64.9386 49.9486 65.0666 49.983C65.1947 50.0173 65.3312 49.9993 65.446 49.933Z" fill="url(#paint11_linear)"/>
<path d="M55.237 55.25C55.1875 55.1644 55.1138 55.0953 55.0251 55.0516C54.9364 55.0078 54.8367 54.9914 54.7387 55.0043C54.6406 55.0172 54.5486 55.0589 54.4743 55.1241C54.3999 55.1893 54.3466 55.2751 54.321 55.3706C54.2954 55.4661 54.2987 55.5671 54.3305 55.6607C54.3623 55.7544 54.4211 55.8365 54.4996 55.8967C54.578 55.9569 54.6726 55.9925 54.7713 55.9989C54.8699 56.0054 54.9683 55.9824 55.054 55.933C55.1688 55.8667 55.2526 55.7575 55.2869 55.6294C55.3212 55.5013 55.3033 55.3648 55.237 55.25Z" fill="url(#paint12_linear)"/>
<path d="M57.2501 47.737C57.3357 47.6875 57.4048 47.6138 57.4485 47.5251C57.4922 47.4364 57.5087 47.3367 57.4958 47.2387C57.4829 47.1406 57.4412 47.0486 57.376 46.9743C57.3108 46.8999 57.225 46.8466 57.1295 46.821C57.0339 46.7954 56.933 46.7987 56.8393 46.8305C56.7457 46.8623 56.6636 46.9211 56.6034 46.9996C56.5432 47.078 56.5076 47.1726 56.5011 47.2713C56.4947 47.3699 56.5176 47.4683 56.5671 47.554C56.6334 47.6688 56.7426 47.7526 56.8707 47.7869C56.9987 47.8212 57.1352 47.8033 57.2501 47.737Z" fill="url(#paint13_linear)"/>
<path d="M62.5 72H64.5C64.6326 72 64.7598 71.9473 64.8536 71.8536C64.9473 71.7598 65 71.6326 65 71.5V70.6595C65.1697 70.5795 65.3326 70.4856 65.487 70.379L66.214 70.799C66.3289 70.8653 66.4653 70.8833 66.5934 70.8489C66.7215 70.8146 66.8307 70.7308 66.897 70.616L67.897 68.884C67.9633 68.7692 67.9813 68.6327 67.947 68.5046C67.9126 68.3765 67.8289 68.2673 67.714 68.201L66.988 67.7815C66.996 67.687 67 67.5935 67 67.5C67 67.4065 66.996 67.313 66.988 67.2185L67.714 66.799C67.8289 66.7327 67.9126 66.6235 67.947 66.4954C67.9813 66.3673 67.9633 66.2308 67.897 66.116L66.897 64.384C66.8307 64.2692 66.7215 64.1854 66.5934 64.1511C66.4653 64.1167 66.3289 64.1347 66.214 64.201L65.487 64.621C65.3326 64.5144 65.1697 64.4205 65 64.3405V63.5C65 63.3674 64.9473 63.2402 64.8536 63.1464C64.7598 63.0527 64.6326 63 64.5 63H62.5C62.3674 63 62.2402 63.0527 62.1465 63.1464C62.0527 63.2402 62 63.3674 62 63.5V64.3405C61.8303 64.4205 61.6674 64.5144 61.513 64.621L60.786 64.201C60.6712 64.1347 60.5347 64.1167 60.4066 64.1511C60.2785 64.1854 60.1693 64.2692 60.103 64.384L59.103 66.116C59.0367 66.2308 59.0187 66.3673 59.0531 66.4954C59.0874 66.6235 59.1712 66.7327 59.286 66.799L60.012 67.2185C60.004 67.313 60 67.4065 60 67.5C60 67.5935 60.004 67.687 60.012 67.7815L59.286 68.201C59.2287 68.2336 59.1784 68.2772 59.138 68.3293C59.0976 68.3814 59.0679 68.441 59.0506 68.5047C59.0333 68.5683 59.0288 68.6347 59.0373 68.7001C59.0458 68.7655 59.0672 68.8286 59.1001 68.8857C59.1331 68.9428 59.177 68.9928 59.2294 69.0328C59.2818 69.0729 59.3416 69.1022 59.4053 69.119C59.4691 69.1359 59.5355 69.14 59.6009 69.131C59.6662 69.1221 59.7291 69.1003 59.786 69.067L60.8 68.48C60.8895 68.4284 60.9608 68.3504 61.0041 68.2567C61.0474 68.1629 61.0607 68.0581 61.042 67.9565C60.9833 67.655 60.9833 67.345 61.042 67.0435C61.0607 66.9419 61.0474 66.8371 61.0041 66.7433C60.9608 66.6496 60.8895 66.5716 60.8 66.52L60.217 66.183L60.717 65.317L61.3 65.654C61.3896 65.7057 61.493 65.7284 61.5959 65.7189C61.6989 65.7094 61.7964 65.6682 61.875 65.601C62.1082 65.402 62.376 65.2476 62.665 65.1455C62.7627 65.1113 62.8475 65.0477 62.9075 64.9633C62.9675 64.8789 62.9998 64.778 63 64.6745V64H64V64.6745C64.0001 64.7778 64.0321 64.8785 64.0917 64.9629C64.1514 65.0472 64.2357 65.111 64.333 65.1455C64.6221 65.2476 64.8899 65.402 65.123 65.601C65.2016 65.6682 65.2991 65.7094 65.4021 65.7189C65.5051 65.7284 65.6085 65.7057 65.698 65.654L66.281 65.317L66.781 66.183L66.2 66.52C66.1106 66.5716 66.0393 66.6496 65.9959 66.7433C65.9526 66.8371 65.9394 66.9419 65.958 67.0435C66.0167 67.345 66.0167 67.655 65.958 67.9565C65.9394 68.0581 65.9526 68.1629 65.9959 68.2567C66.0393 68.3504 66.1106 68.4284 66.2 68.48L66.783 68.817L66.283 69.683L65.7 69.346C65.6105 69.2943 65.5071 69.2716 65.4041 69.2811C65.3011 69.2906 65.2036 69.3318 65.125 69.399C64.8919 69.598 64.6241 69.7524 64.335 69.8545C64.2377 69.889 64.1534 69.9528 64.0937 70.0371C64.0341 70.1215 64.0021 70.2222 64.002 70.3255V71H63V70.3255C63 70.2222 62.9679 70.1215 62.9083 70.0371C62.8487 69.9528 62.7644 69.889 62.667 69.8545C62.378 69.7524 62.1102 69.598 61.877 69.399C61.7984 69.3318 61.7009 69.2906 61.5979 69.2811C61.495 69.2716 61.3916 69.2943 61.302 69.346L60.286 69.933C60.2287 69.9656 60.1784 70.0092 60.138 70.0613C60.0976 70.1134 60.0679 70.173 60.0506 70.2367C60.0333 70.3003 60.0288 70.3667 60.0373 70.4321C60.0458 70.4975 60.0672 70.5606 60.1001 70.6177C60.1331 70.6748 60.177 70.7248 60.2294 70.7648C60.2818 70.8049 60.3416 70.8342 60.4053 70.851C60.4691 70.8679 60.5355 70.872 60.6009 70.863C60.6662 70.8541 60.7291 70.8323 60.786 70.799L61.513 70.379C61.6674 70.4856 61.8303 70.5795 62 70.6595V71.5C62 71.6326 62.0527 71.7598 62.1465 71.8536C62.2402 71.9473 62.3674 72 62.5 72Z" fill="url(#paint14_linear)"/>
<path d="M65 67.5C65 67.2033 64.912 66.9133 64.7472 66.6666C64.5824 66.42 64.3481 66.2277 64.074 66.1142C63.7999 66.0007 63.4983 65.9709 63.2074 66.0288C62.9164 66.0867 62.6491 66.2296 62.4393 66.4393C62.2296 66.6491 62.0867 66.9164 62.0288 67.2074C61.9709 67.4983 62.0007 67.7999 62.1142 68.074C62.2277 68.3481 62.42 68.5824 62.6666 68.7472C62.9133 68.912 63.2033 69 63.5 69C63.8978 69 64.2794 68.842 64.5607 68.5607C64.842 68.2794 65 67.8978 65 67.5ZM63 67.5C63 67.4011 63.0293 67.3044 63.0843 67.2222C63.1392 67.14 63.2173 67.0759 63.3087 67.0381C63.4 67.0002 63.5006 66.9903 63.5976 67.0096C63.6945 67.0289 63.7836 67.0765 63.8536 67.1464C63.9235 67.2164 63.9711 67.3055 63.9904 67.4025C64.0097 67.4994 63.9998 67.6 63.9619 67.6913C63.9241 67.7827 63.86 67.8608 63.7778 67.9157C63.6956 67.9707 63.5989 68 63.5 68C63.3674 68 63.2402 67.9473 63.1464 67.8536C63.0527 67.7598 63 67.6326 63 67.5Z" fill="url(#paint15_linear)"/>
<path d="M64 74H70C70.5304 74 71.0391 73.7893 71.4142 73.4142C71.7893 73.0391 72 72.5304 72 72V71C72 70.8674 71.9473 70.7402 71.8536 70.6464C71.7598 70.5527 71.6326 70.5 71.5 70.5C71.3674 70.5 71.2402 70.5527 71.1464 70.6464C71.0527 70.7402 71 70.8674 71 71V72C71 72.2652 70.8946 72.5196 70.7071 72.7071C70.5196 72.8946 70.2652 73 70 73H64C63.8674 73 63.7402 73.0527 63.6464 73.1464C63.5527 73.2402 63.5 73.3674 63.5 73.5C63.5 73.6326 63.5527 73.7598 63.6464 73.8536C63.7402 73.9473 63.8674 74 64 74Z" fill="url(#paint16_linear)"/>
<path d="M55 72C55 72.2967 55.088 72.5867 55.2528 72.8334C55.4176 73.08 55.6519 73.2723 55.926 73.3858C56.2001 73.4994 56.5017 73.5291 56.7926 73.4712C57.0836 73.4133 57.3509 73.2704 57.5607 73.0607C57.7704 72.8509 57.9133 72.5836 57.9712 72.2926C58.0291 72.0017 57.9993 71.7001 57.8858 71.426C57.7723 71.1519 57.58 70.9176 57.3334 70.7528C57.0867 70.588 56.7967 70.5 56.5 70.5C56.1022 70.5 55.7206 70.658 55.4393 70.9393C55.158 71.2206 55 71.6022 55 72ZM57 72C57 72.0989 56.9707 72.1956 56.9157 72.2778C56.8608 72.36 56.7827 72.4241 56.6913 72.4619C56.6 72.4998 56.4994 72.5097 56.4025 72.4904C56.3055 72.4711 56.2164 72.4235 56.1464 72.3536C56.0765 72.2836 56.0289 72.1945 56.0096 72.0975C55.9903 72.0006 56.0002 71.9 56.0381 71.8087C56.0759 71.7173 56.14 71.6392 56.2222 71.5843C56.3044 71.5293 56.4011 71.5 56.5 71.5C56.6326 71.5 56.7598 71.5527 56.8536 71.6464C56.9473 71.7402 57 71.8674 57 72Z" fill="url(#paint17_linear)"/>
<defs>
<filter id="filter0_d" x="0" y="0" width="122" height="122" filterUnits="userSpaceOnUse" color-interpolation-filters="sRGB">
<feFlood flood-opacity="0" result="BackgroundImageFix"/>
<feColorMatrix in="SourceAlpha" type="matrix" values="0 0 0 0 0 0 0 0 0 0 0 0 0 0 0 0 0 0 127 0"/>
<feOffset/>
<feGaussianBlur stdDeviation="12"/>
<feColorMatrix type="matrix" values="0 0 0 0 0.120833 0 0 0 0 0.0090625 0 0 0 0 0.0962437 0 0 0 0.06 0"/>
<feBlend mode="normal" in2="BackgroundImageFix" result="effect1_dropShadow"/>
<feBlend mode="normal" in="SourceGraphic" in2="effect1_dropShadow" result="shape"/>
</filter>
<filter id="filter1_d" x="10" y="10" width="102" height="102" filterUnits="userSpaceOnUse" color-interpolation-filters="sRGB">
<feFlood flood-opacity="0" result="BackgroundImageFix"/>
<feColorMatrix in="SourceAlpha" type="matrix" values="0 0 0 0 0 0 0 0 0 0 0 0 0 0 0 0 0 0 127 0"/>
<feOffset/>
<feGaussianBlur stdDeviation="12"/>
<feColorMatrix type="matrix" values="0 0 0 0 0.120833 0 0 0 0 0.0090625 0 0 0 0 0.0962437 0 0 0 0.06 0"/>
<feBlend mode="normal" in2="BackgroundImageFix" result="effect1_dropShadow"/>
<feBlend mode="normal" in="SourceGraphic" in2="effect1_dropShadow" result="shape"/>
</filter>
<linearGradient id="paint0_linear" x1="61" y1="34" x2="61" y2="88" gradientUnits="userSpaceOnUse">
<stop stop-color="#85CD43"/>
<stop offset="1" stop-color="#4CB854"/>
</linearGradient>
<linearGradient id="paint1_linear" x1="66.25" y1="58" x2="66.25" y2="59" gradientUnits="userSpaceOnUse">
<stop stop-color="#85CD43"/>
<stop offset="1" stop-color="#4CB854"/>
</linearGradient>
<linearGradient id="paint2_linear" x1="61" y1="53" x2="61" y2="76" gradientUnits="userSpaceOnUse">
<stop stop-color="#85CD43"/>
<stop offset="1" stop-color="#4CB854"/>
</linearGradient>
<linearGradient id="paint3_linear" x1="71.5" y1="46" x2="71.5" y2="69.501" gradientUnits="userSpaceOnUse">
<stop stop-color="#85CD43"/>
<stop offset="1" stop-color="#4CB854"/>
</linearGradient>
<linearGradient id="paint4_linear" x1="59.4965" y1="48.0042" x2="59.4965" y2="67.9999" gradientUnits="userSpaceOnUse">
<stop stop-color="#85CD43"/>
<stop offset="1" stop-color="#4CB854"/>
</linearGradient>
<linearGradient id="paint5_linear" x1="54" y1="52" x2="54" y2="53" gradientUnits="userSpaceOnUse">
<stop stop-color="#85CD43"/>
<stop offset="1" stop-color="#4CB854"/>
</linearGradient>
<linearGradient id="paint6_linear" x1="66" y1="52" x2="66" y2="53" gradientUnits="userSpaceOnUse">
<stop stop-color="#85CD43"/>
<stop offset="1" stop-color="#4CB854"/>
</linearGradient>
<linearGradient id="paint7_linear" x1="60" y1="46" x2="60" y2="47" gradientUnits="userSpaceOnUse">
<stop stop-color="#85CD43"/>
<stop offset="1" stop-color="#4CB854"/>
</linearGradient>
<linearGradient id="paint8_linear" x1="54.804" y1="49" x2="54.804" y2="50" gradientUnits="userSpaceOnUse">
<stop stop-color="#85CD43"/>
<stop offset="1" stop-color="#4CB854"/>
</linearGradient>
<linearGradient id="paint9_linear" x1="65.196" y1="55" x2="65.196" y2="56" gradientUnits="userSpaceOnUse">
<stop stop-color="#85CD43"/>
<stop offset="1" stop-color="#4CB854"/>
</linearGradient>
<linearGradient id="paint10_linear" x1="62.8707" y1="46.8213" x2="63.1295" y2="47.7872" gradientUnits="userSpaceOnUse">
<stop stop-color="#85CD43"/>
<stop offset="1" stop-color="#4CB854"/>
</linearGradient>
<linearGradient id="paint11_linear" x1="65.196" y1="49" x2="65.196" y2="50" gradientUnits="userSpaceOnUse">
<stop stop-color="#85CD43"/>
<stop offset="1" stop-color="#4CB854"/>
</linearGradient>
<linearGradient id="paint12_linear" x1="54.804" y1="55" x2="54.804" y2="56" gradientUnits="userSpaceOnUse">
<stop stop-color="#85CD43"/>
<stop offset="1" stop-color="#4CB854"/>
</linearGradient>
<linearGradient id="paint13_linear" x1="57.0001" y1="46.804" x2="57.0001" y2="47.804" gradientUnits="userSpaceOnUse">
<stop stop-color="#85CD43"/>
<stop offset="1" stop-color="#4CB854"/>
</linearGradient>
<linearGradient id="paint14_linear" x1="63.4986" y1="63" x2="63.4986" y2="72" gradientUnits="userSpaceOnUse">
<stop stop-color="#85CD43"/>
<stop offset="1" stop-color="#4CB854"/>
</linearGradient>
<linearGradient id="paint15_linear" x1="63.5" y1="66" x2="63.5" y2="69" gradientUnits="userSpaceOnUse">
<stop stop-color="#85CD43"/>
<stop offset="1" stop-color="#4CB854"/>
</linearGradient>
<linearGradient id="paint16_linear" x1="67.75" y1="70.5" x2="67.75" y2="74" gradientUnits="userSpaceOnUse">
<stop stop-color="#85CD43"/>
<stop offset="1" stop-color="#4CB854"/>
</linearGradient>
<linearGradient id="paint17_linear" x1="56.5" y1="70.5" x2="56.5" y2="73.5" gradientUnits="userSpaceOnUse">
<stop stop-color="#85CD43"/>
<stop offset="1" stop-color="#4CB854"/>
</linearGradient>
</defs>
</svg>
