<svg width="122" height="122" viewBox="0 0 122 122" fill="none" xmlns="http://www.w3.org/2000/svg">
<g filter="url(#filter0_d)">
<circle cx="61" cy="61" r="37" fill="white"/>
</g>
<g filter="url(#filter1_d)">
<circle cx="61" cy="61" r="27" fill="white"/>
<circle cx="61" cy="61" r="26.5" stroke="url(#paint0_linear)"/>
</g>
<path d="M53.25 69.0386C53.7607 69.2188 54.3009 69.3126 54.85 69.3126C55.9757 69.3126 57.0663 68.9128 57.925 68.1997C58.7837 68.9128 59.8743 69.3126 61 69.3126C62.1257 69.3126 63.2163 68.9128 64.075 68.1997C64.9337 68.9128 66.0243 69.3126 67.15 69.3126C68.2756 69.3126 69.3663 68.9128 70.225 68.1997C71.0836 68.9129 72.1743 69.3126 73.2999 69.3126C74.6376 69.3126 75.9259 68.7481 76.8342 67.7639C77.0684 67.5102 77.0525 67.1148 76.7989 66.8807C76.5451 66.6466 76.1498 66.6625 75.9157 66.9161C75.2432 67.6446 74.2898 68.0626 73.2999 68.0626C72.3101 68.0626 71.3567 67.6447 70.6842 66.9161C70.5659 66.7879 70.3994 66.7149 70.2249 66.7149C70.0505 66.7149 69.884 66.7879 69.7656 66.9161C69.0931 67.6446 68.1397 68.0626 67.1499 68.0626C66.16 68.0626 65.2066 67.6446 64.5341 66.9161C64.4157 66.7879 64.2492 66.7149 64.0748 66.7149C63.9004 66.7149 63.7339 66.7879 63.6155 66.9161C62.9431 67.6446 61.9896 68.0626 60.9998 68.0626C60.0099 68.0626 59.0564 67.6446 58.384 66.9161C58.2656 66.7879 58.0991 66.7149 57.9247 66.7149C57.7502 66.7149 57.5837 66.7879 57.4654 66.9161C56.7929 67.6446 55.8395 68.0626 54.8496 68.0626C54.2903 68.0626 53.7435 67.9317 53.2496 67.6826V61.359C53.7604 61.5392 54.3006 61.6329 54.8496 61.6329C55.9753 61.6329 57.0659 61.2332 57.9246 60.5201C58.7833 61.2332 59.8739 61.6329 60.9996 61.6329C62.1254 61.6329 63.2159 61.2332 64.0746 60.5201C64.9333 61.2332 66.0239 61.6329 67.1496 61.6329C68.2753 61.6329 69.3658 61.2332 70.2246 60.5201C71.0833 61.2332 72.1738 61.6329 73.2996 61.6329C74.6372 61.6329 75.9255 61.0684 76.8339 60.0843C77.068 59.8306 77.0521 59.4352 76.7985 59.2011C76.5448 58.9669 76.1493 58.9828 75.9153 59.2364C75.2429 59.965 74.2894 60.3829 73.2996 60.3829C72.3096 60.3829 71.3562 59.9651 70.6839 59.2365C70.5656 59.1082 70.3991 59.0353 70.2246 59.0353C70.2246 59.0353 70.2246 59.0353 70.2246 59.0353C70.0501 59.0353 69.8836 59.1083 69.7652 59.2364C69.0927 59.965 68.1393 60.3829 67.1495 60.3829C66.1596 60.3829 65.2062 59.9651 64.5338 59.2364C64.4154 59.1083 64.2489 59.0353 64.0744 59.0353C63.9 59.0353 63.7334 59.1083 63.6151 59.2364C62.9427 59.9651 61.9893 60.3829 60.9994 60.3829C60.0095 60.3829 59.0561 59.965 58.3836 59.2364C58.2653 59.1083 58.0988 59.0353 57.9243 59.0353C57.7499 59.0353 57.5834 59.1083 57.465 59.2364C56.7926 59.965 55.8391 60.3829 54.8492 60.3829C54.29 60.3829 53.7432 60.2521 53.2493 60.003V46.875C53.2493 45.8411 52.4081 45 51.3742 45H46.875C45.8411 45 45 45.8411 45 46.875V58.1875C45 58.5326 45.2799 58.8125 45.625 58.8125C45.9701 58.8125 46.25 58.5326 46.25 58.1875V46.875C46.25 46.5304 46.5304 46.25 46.875 46.25H51.375C51.7196 46.25 52 46.5304 52 46.875V48.8438H50.875C50.5299 48.8438 50.25 49.1237 50.25 49.4688C50.25 49.8139 50.5299 50.0938 50.875 50.0938H52V52.6876H49.125C48.7799 52.6876 48.5 52.9674 48.5 53.3126C48.5 53.6577 48.7799 53.9376 49.125 53.9376H52V56.5313H50.875C50.5299 56.5313 50.25 56.8112 50.25 57.1563C50.25 57.5014 50.5299 57.7813 50.875 57.7813H52V60.3751H49.125C48.7799 60.3751 48.5 60.6549 48.5 61.0001C48.5 61.3452 48.7799 61.6251 49.125 61.6251H52V64.2188H50.875C50.5299 64.2188 50.25 64.4987 50.25 64.8438C50.25 65.1889 50.5299 65.4688 50.875 65.4688H52V68.0626H49.125C48.7799 68.0626 48.5 68.3424 48.5 68.6876C48.5 69.0327 48.7799 69.3126 49.125 69.3126H52V71.9063H50.875C50.5299 71.9063 50.25 72.1862 50.25 72.5313C50.25 72.8764 50.5299 73.1563 50.875 73.1563H52V75.125C52 75.4696 51.7196 75.75 51.375 75.75H46.875C46.5304 75.75 46.25 75.4696 46.25 75.125V63.8125C46.25 63.4674 45.9701 63.1875 45.625 63.1875C45.2799 63.1875 45 63.4674 45 63.8125V75.125C45 76.1589 45.8411 77 46.875 77H51.375C51.8802 77 52.3389 76.7988 52.6764 76.4729C53.3468 76.8136 54.0877 76.9922 54.85 76.9922C55.9757 76.9922 57.0663 76.5924 57.925 75.8792C58.7837 76.5924 59.8743 76.9922 61 76.9922C62.1257 76.9922 63.2163 76.5924 64.075 75.8792C64.9337 76.5924 66.0243 76.9922 67.15 76.9922C68.2757 76.9922 69.3663 76.5924 70.225 75.8792C71.0836 76.5925 72.1743 76.9922 73.2999 76.9922C74.6377 76.9922 75.9259 76.4277 76.8342 75.4434C77.0684 75.1898 77.0525 74.7943 76.7989 74.5602C76.5451 74.3261 76.1497 74.3421 75.9157 74.5956C75.2432 75.3242 74.2898 75.7422 73.2999 75.7422C72.31 75.7422 71.3566 75.3243 70.6842 74.5957C70.5659 74.4674 70.3994 74.3945 70.2249 74.3945C70.0505 74.3945 69.8839 74.4674 69.7656 74.5956C69.0931 75.3242 68.1398 75.7422 67.1499 75.7422C66.16 75.7422 65.2066 75.3242 64.5341 74.5956C64.4158 74.4674 64.2492 74.3945 64.0748 74.3945C63.9004 74.3945 63.7338 74.4674 63.6155 74.5956C62.9431 75.3242 61.9896 75.7422 60.9998 75.7422C60.0099 75.7422 59.0564 75.3242 58.384 74.5956C58.2657 74.4674 58.0991 74.3945 57.9247 74.3945C57.7502 74.3945 57.5837 74.4674 57.4654 74.5956C56.7929 75.3242 55.8395 75.7422 54.8496 75.7422C54.283 75.7422 53.7325 75.609 53.2351 75.3549C53.2443 75.2795 53.2497 75.2029 53.2497 75.125V69.0386H53.25Z" fill="url(#paint1_linear)"/>
<path d="M66.6566 50.5815L66.7291 50.509V56.4839C66.7291 56.8291 67.009 57.1089 67.3541 57.1089C67.6993 57.1089 67.9791 56.8291 67.9791 56.4839V50.5091L68.0516 50.5815C68.1736 50.7035 68.3336 50.7646 68.4935 50.7646C68.6534 50.7646 68.8134 50.7035 68.9354 50.5815C69.1795 50.3374 69.1795 49.9417 68.9354 49.6976L67.7961 48.5582C67.5521 48.3143 67.1565 48.3142 66.9121 48.5582L65.7727 49.6976C65.5286 49.9416 65.5286 50.3374 65.7727 50.5815C66.0169 50.8255 66.4125 50.8256 66.6566 50.5815Z" fill="url(#paint2_linear)"/>
<path d="M72.318 47.3894C72.478 47.3894 72.6378 47.3283 72.7599 47.2063L72.8323 47.1339V53.1087C72.8323 53.4539 73.1122 53.7337 73.4573 53.7337C73.8025 53.7337 74.0823 53.4539 74.0823 53.1087V47.1338L74.1548 47.2063C74.399 47.4503 74.7947 47.4503 75.0388 47.2063C75.2828 46.9622 75.2828 46.5665 75.0388 46.3224L73.8993 45.183C73.6552 44.939 73.2596 44.939 73.0154 45.183L71.876 46.3224C71.632 46.5664 71.632 46.9622 71.876 47.2063C71.9981 47.3283 72.158 47.3894 72.318 47.3894Z" fill="url(#paint3_linear)"/>
<path d="M45.625 61.625C45.7894 61.625 45.9506 61.5581 46.0668 61.4418C46.1831 61.3256 46.25 61.1644 46.25 61C46.25 60.8349 46.1831 60.6744 46.0668 60.5581C45.9506 60.4418 45.7894 60.375 45.625 60.375C45.4606 60.375 45.2994 60.4418 45.1831 60.5581C45.0669 60.6744 45 60.8356 45 61C45 61.1644 45.0668 61.3256 45.1831 61.4418C45.2994 61.5581 45.4606 61.625 45.625 61.625Z" fill="url(#paint4_linear)"/>
<defs>
<filter id="filter0_d" x="0" y="0" width="122" height="122" filterUnits="userSpaceOnUse" color-interpolation-filters="sRGB">
<feFlood flood-opacity="0" result="BackgroundImageFix"/>
<feColorMatrix in="SourceAlpha" type="matrix" values="0 0 0 0 0 0 0 0 0 0 0 0 0 0 0 0 0 0 127 0"/>
<feOffset/>
<feGaussianBlur stdDeviation="12"/>
<feColorMatrix type="matrix" values="0 0 0 0 0.120833 0 0 0 0 0.0090625 0 0 0 0 0.0962437 0 0 0 0.06 0"/>
<feBlend mode="normal" in2="BackgroundImageFix" result="effect1_dropShadow"/>
<feBlend mode="normal" in="SourceGraphic" in2="effect1_dropShadow" result="shape"/>
</filter>
<filter id="filter1_d" x="10" y="10" width="102" height="102" filterUnits="userSpaceOnUse" color-interpolation-filters="sRGB">
<feFlood flood-opacity="0" result="BackgroundImageFix"/>
<feColorMatrix in="SourceAlpha" type="matrix" values="0 0 0 0 0 0 0 0 0 0 0 0 0 0 0 0 0 0 127 0"/>
<feOffset/>
<feGaussianBlur stdDeviation="12"/>
<feColorMatrix type="matrix" values="0 0 0 0 0.120833 0 0 0 0 0.0090625 0 0 0 0 0.0962437 0 0 0 0.06 0"/>
<feBlend mode="normal" in2="BackgroundImageFix" result="effect1_dropShadow"/>
<feBlend mode="normal" in="SourceGraphic" in2="effect1_dropShadow" result="shape"/>
</filter>
<linearGradient id="paint0_linear" x1="61" y1="34" x2="61" y2="88" gradientUnits="userSpaceOnUse">
<stop stop-color="#85CD43"/>
<stop offset="1" stop-color="#4CB854"/>
</linearGradient>
<linearGradient id="paint1_linear" x1="61" y1="45" x2="61" y2="77" gradientUnits="userSpaceOnUse">
<stop stop-color="#85CD43"/>
<stop offset="1" stop-color="#4CB854"/>
</linearGradient>
<linearGradient id="paint2_linear" x1="67.3541" y1="48.3752" x2="67.3541" y2="57.1089" gradientUnits="userSpaceOnUse">
<stop stop-color="#85CD43"/>
<stop offset="1" stop-color="#4CB854"/>
</linearGradient>
<linearGradient id="paint3_linear" x1="73.4574" y1="45" x2="73.4574" y2="53.7337" gradientUnits="userSpaceOnUse">
<stop stop-color="#85CD43"/>
<stop offset="1" stop-color="#4CB854"/>
</linearGradient>
<linearGradient id="paint4_linear" x1="45.625" y1="60.375" x2="45.625" y2="61.625" gradientUnits="userSpaceOnUse">
<stop stop-color="#85CD43"/>
<stop offset="1" stop-color="#4CB854"/>
</linearGradient>
</defs>
</svg>
