<svg width="122" height="122" viewBox="0 0 122 122" fill="none" xmlns="http://www.w3.org/2000/svg">
<g filter="url(#filter0_d)">
<circle cx="61" cy="61" r="37" fill="white"/>
</g>
<g filter="url(#filter1_d)">
<circle cx="61" cy="61" r="27" fill="white"/>
<circle cx="61" cy="61" r="26.5" stroke="url(#paint0_linear)"/>
</g>
<path d="M74.4989 71.063C74.4997 71.0418 74.5 71.0208 74.5 71C74.4994 70.4697 74.2885 69.9614 73.9136 69.5864C73.5386 69.2115 73.0303 69.0006 72.5 69V59.75L74.3 58.4C74.3625 58.3531 74.4132 58.2922 74.4479 58.2222C74.4827 58.1522 74.5005 58.075 74.5 57.9969C74.4995 57.9188 74.4807 57.8418 74.4451 57.7722C74.4095 57.7027 74.3581 57.6424 74.295 57.5963L70 54.4576V49C70.1326 49 70.2598 48.9473 70.3536 48.8536C70.4474 48.7598 70.5 48.6326 70.5 48.5V46.5C70.5 46.3674 70.4474 46.2402 70.3536 46.1464C70.2598 46.0527 70.1326 46 70 46H65C64.8674 46 64.7402 46.0527 64.6465 46.1464C64.5527 46.2402 64.5 46.3674 64.5 46.5V48.5C64.5 48.6326 64.5527 48.7598 64.6465 48.8536C64.7402 48.9473 64.8674 49 65 49V50.8038L61.295 48.0963C61.2094 48.0337 61.1061 48 61 48C60.894 48 60.7907 48.0337 60.705 48.0963L47.705 57.5963C47.6419 57.6424 47.5905 57.7027 47.5549 57.7722C47.5193 57.8418 47.5005 57.9188 47.5 57.9969C47.4996 58.075 47.5174 58.1522 47.5521 58.2222C47.5869 58.2922 47.6375 58.3531 47.7 58.4L49.5 59.75V69C48.9698 69.0006 48.4614 69.2115 48.0865 69.5864C47.7115 69.9614 47.5006 70.4697 47.5 71C47.5 71.0208 47.5004 71.0418 47.5012 71.063C47.0295 71.1843 46.6182 71.4735 46.3446 71.8764C46.071 72.2793 45.9538 72.7682 46.015 73.2514C46.0763 73.7346 46.3117 74.1788 46.6772 74.5008C47.0426 74.8227 47.513 75.0002 48 75H74C74.4871 75.0002 74.9574 74.8227 75.3229 74.5008C75.6884 74.1788 75.9238 73.7346 75.985 73.2514C76.0462 72.7682 75.9291 72.2793 75.6554 71.8764C75.3818 71.4735 74.9706 71.1843 74.4989 71.063ZM65.5 47H69.5V48H65.5V47ZM66 51.5V49H69V53.7269L65.9527 51.5H66ZM61 49.1192L73.1597 58.0052L71.9955 58.8784L61.2942 51.0956C61.2087 51.0335 61.1057 51 61 51C60.8943 51 60.7914 51.0335 60.7059 51.0956L50.0046 58.8784L48.8403 58.0052L61 49.1192ZM47 73C47.0003 72.7375 47.1037 72.4855 47.2879 72.2985C47.4722 72.1114 47.7225 72.0042 47.985 72H47.9862C48.0118 72.0036 48.0373 72.0066 48.0634 72.0083C48.1463 72.0135 48.2291 71.9981 48.3045 71.9633C48.3799 71.9285 48.4454 71.8754 48.4951 71.809C48.5449 71.7425 48.5773 71.6647 48.5895 71.5826C48.6017 71.5005 48.5932 71.4166 48.5648 71.3386C48.5235 71.2304 48.5015 71.1158 48.5 71C48.5003 70.7349 48.6058 70.4807 48.7933 70.2932C48.9807 70.1058 49.2349 70.0003 49.5 70V74H48C47.7349 73.9997 47.4807 73.8942 47.2933 73.7068C47.1058 73.5193 47.0003 73.2651 47 73ZM68.5 74H62.5V63H68.5V74ZM69.5 74V62.5C69.5 62.3674 69.4474 62.2402 69.3536 62.1464C69.2598 62.0527 69.1326 62 69 62H62C61.8674 62 61.7402 62.0527 61.6465 62.1464C61.5527 62.2402 61.5 62.3674 61.5 62.5V74H50.5V59.7546L61 52.1182L71.5 59.7546V74H69.5ZM74 74H72.5V70C72.7652 70.0003 73.0193 70.1058 73.2068 70.2932C73.3943 70.4807 73.4997 70.7349 73.5 71C73.4986 71.1159 73.4766 71.2306 73.4352 71.3388C73.4069 71.4168 73.3984 71.5007 73.4106 71.5828C73.4227 71.665 73.4552 71.7428 73.5049 71.8092C73.5547 71.8757 73.6202 71.9287 73.6956 71.9635C73.7709 71.9983 73.8538 72.0138 73.9367 72.0086C73.9627 72.0069 73.9883 72.0038 74.0138 72.0002H74.015C74.2802 72.0022 74.5338 72.1095 74.7199 72.2984C74.9061 72.4874 75.0095 72.7425 75.0075 73.0077C75.0055 73.273 74.8983 73.5265 74.7093 73.7127C74.5204 73.8988 74.2652 74.0022 74 74.0002V74Z" fill="url(#paint1_linear)"/>
<path d="M59 62H53C52.8674 62 52.7402 62.0527 52.6464 62.1464C52.5527 62.2402 52.5 62.3674 52.5 62.5V69.5C52.5 69.6326 52.5527 69.7598 52.6464 69.8536C52.7402 69.9473 52.8674 70 53 70H59C59.1326 70 59.2598 69.9473 59.3536 69.8536C59.4473 69.7598 59.5 69.6326 59.5 69.5V62.5C59.5 62.3674 59.4473 62.2402 59.3536 62.1464C59.2598 62.0527 59.1326 62 59 62ZM58.5 65.5H56.5V63H58.5V65.5ZM55.5 63V65.5H53.5V63H55.5ZM53.5 66.5H55.5V69H53.5V66.5ZM56.5 69V66.5H58.5V69H56.5Z" fill="url(#paint2_linear)"/>
<path d="M64.462 68.1915C64.5677 67.9364 64.4466 67.6439 64.1914 67.5382C63.9363 67.4325 63.6438 67.5537 63.5381 67.8088C63.4325 68.0639 63.5536 68.3564 63.8087 68.4621C64.0639 68.5678 64.3564 68.4466 64.462 68.1915Z" fill="url(#paint3_linear)"/>
<defs>
<filter id="filter0_d" x="0" y="0" width="122" height="122" filterUnits="userSpaceOnUse" color-interpolation-filters="sRGB">
<feFlood flood-opacity="0" result="BackgroundImageFix"/>
<feColorMatrix in="SourceAlpha" type="matrix" values="0 0 0 0 0 0 0 0 0 0 0 0 0 0 0 0 0 0 127 0"/>
<feOffset/>
<feGaussianBlur stdDeviation="12"/>
<feColorMatrix type="matrix" values="0 0 0 0 0.120833 0 0 0 0 0.0090625 0 0 0 0 0.0962437 0 0 0 0.06 0"/>
<feBlend mode="normal" in2="BackgroundImageFix" result="effect1_dropShadow"/>
<feBlend mode="normal" in="SourceGraphic" in2="effect1_dropShadow" result="shape"/>
</filter>
<filter id="filter1_d" x="10" y="10" width="102" height="102" filterUnits="userSpaceOnUse" color-interpolation-filters="sRGB">
<feFlood flood-opacity="0" result="BackgroundImageFix"/>
<feColorMatrix in="SourceAlpha" type="matrix" values="0 0 0 0 0 0 0 0 0 0 0 0 0 0 0 0 0 0 127 0"/>
<feOffset/>
<feGaussianBlur stdDeviation="12"/>
<feColorMatrix type="matrix" values="0 0 0 0 0.120833 0 0 0 0 0.0090625 0 0 0 0 0.0962437 0 0 0 0.06 0"/>
<feBlend mode="normal" in2="BackgroundImageFix" result="effect1_dropShadow"/>
<feBlend mode="normal" in="SourceGraphic" in2="effect1_dropShadow" result="shape"/>
</filter>
<linearGradient id="paint0_linear" x1="61" y1="34" x2="61" y2="88" gradientUnits="userSpaceOnUse">
<stop stop-color="#85CD43"/>
<stop offset="1" stop-color="#4CB854"/>
</linearGradient>
<linearGradient id="paint1_linear" x1="61" y1="46" x2="61" y2="75" gradientUnits="userSpaceOnUse">
<stop stop-color="#85CD43"/>
<stop offset="1" stop-color="#4CB854"/>
</linearGradient>
<linearGradient id="paint2_linear" x1="56" y1="62" x2="56" y2="70" gradientUnits="userSpaceOnUse">
<stop stop-color="#85CD43"/>
<stop offset="1" stop-color="#4CB854"/>
</linearGradient>
<linearGradient id="paint3_linear" x1="63.5381" y1="67.8088" x2="64.462" y2="68.1915" gradientUnits="userSpaceOnUse">
<stop stop-color="#85CD43"/>
<stop offset="1" stop-color="#4CB854"/>
</linearGradient>
</defs>
</svg>
